<svg id="svg" version="1.1" xmlns="http://www.w3.org/2000/svg" xmlns:xlink="http://www.w3.org/1999/xlink" width="400" height="443.1314623338257" viewBox="0, 0, 400,443.1314623338257"><g id="svgg"><path id="path0" d="M71.418 32.371 C 69.416 33.681,66.074 39.362,62.916 46.824 C 61.256 50.746,61.159 55.835,62.745 55.835 C 63.952 55.835,69.425 47.022,71.918 41.064 C 72.495 39.682,73.097 38.329,73.254 38.055 C 73.604 37.447,73.768 32.481,73.455 31.975 C 73.134 31.455,72.681 31.544,71.418 32.371 M153.994 52.737 C 151.092 55.219,148.457 60.228,144.903 70.018 C 142.457 76.754,142.529 78.031,145.435 79.513 C 150.939 82.321,156.398 77.415,159.626 66.761 C 162.523 57.199,161.584 52.247,156.793 51.810 C 155.348 51.678,155.160 51.740,153.994 52.737 M173.606 89.189 C 171.347 98.799,169.818 103.083,167.613 105.982 C 166.541 107.391,167.285 107.191,170.084 105.317 C 174.004 102.693,175.381 97.684,175.128 86.974 L 175.037 83.105 173.606 89.189 M48.498 145.832 C 49.307 147.661,50.793 150.074,51.110 150.074 C 51.372 150.074,53.474 147.722,53.468 147.436 C 53.465 147.295,48.934 144.814,48.129 144.512 C 47.987 144.459,48.153 145.053,48.498 145.832 M138.259 149.097 C 136.716 149.334,135.405 149.578,135.344 149.639 C 135.158 149.825,136.999 153.424,137.682 154.210 L 138.323 154.948 139.668 153.471 C 141.175 151.815,142.688 149.566,142.688 148.982 C 142.688 148.510,141.943 148.530,138.259 149.097 M64.570 161.635 C 63.244 164.285,63.239 164.219,64.919 165.767 L 66.322 167.061 66.419 165.436 C 66.545 163.323,66.195 159.527,65.874 159.527 C 65.737 159.527,65.150 160.476,64.570 161.635 M136.646 161.702 C 135.584 163.362,133.412 168.665,133.683 168.936 C 133.757 169.010,135.077 168.502,136.616 167.807 L 139.414 166.542 139.612 165.221 C 139.847 163.653,139.427 162.083,138.446 160.868 L 137.739 159.992 136.646 161.702 M151.797 184.860 C 151.454 185.632,140.754 195.222,136.111 198.918 C 122.198 209.994,112.660 213.576,104.136 210.924 C 95.759 208.318,91.127 202.997,85.626 189.660 C 85.238 188.718,84.240 191.081,81.236 200.056 C 72.872 225.041,70.135 244.969,72.213 265.731 C 76.808 311.633,83.292 327.189,106.488 347.950 L 108.839 350.054 109.146 349.104 C 109.769 347.178,111.548 347.449,124.372 351.426 C 144.177 357.567,146.832 358.075,159.171 358.091 C 169.700 358.105,176.528 356.415,188.236 350.897 C 191.855 349.192,191.578 349.583,193.738 343.131 C 197.842 330.878,199.248 320.337,199.256 301.773 C 199.263 286.093,198.631 277.693,196.734 268.235 C 191.177 240.523,170.319 199.984,154.560 186.262 C 152.808 184.737,152.028 184.341,151.797 184.860 M71.271 268.685 C 71.274 269.335,71.335 269.566,71.405 269.199 C 71.476 268.831,71.473 268.300,71.399 268.017 C 71.325 267.735,71.268 268.035,71.271 268.685 M71.560 271.492 C 71.560 272.061,71.621 272.293,71.696 272.009 C 71.770 271.725,71.770 271.259,71.696 270.975 C 71.621 270.691,71.560 270.923,71.560 271.492 M71.862 274.298 C 71.865 274.948,71.926 275.179,71.996 274.812 C 72.067 274.444,72.064 273.913,71.990 273.630 C 71.916 273.348,71.859 273.648,71.862 274.298 M72.157 276.957 C 72.160 277.607,72.221 277.838,72.292 277.471 C 72.362 277.103,72.360 276.571,72.286 276.289 C 72.212 276.007,72.154 276.307,72.157 276.957 M72.453 279.321 C 72.456 279.970,72.516 280.202,72.587 279.834 C 72.658 279.467,72.655 278.935,72.581 278.652 C 72.507 278.370,72.449 278.671,72.453 279.321 M368.823 312.902 C 367.956 315.711,361.917 326.725,357.917 332.792 C 337.523 363.722,303.617 379.473,266.027 375.478 C 264.402 375.305,261.677 375.087,259.970 374.994 C 258.264 374.900,256.603 374.660,256.278 374.460 C 255.953 374.261,255.253 374.013,254.723 373.909 L 253.758 373.721 254.188 374.551 C 256.614 379.244,263.624 383.262,272.992 385.331 C 279.818 386.838,292.231 387.823,295.674 387.130 C 311.978 383.847,322.703 377.745,336.646 363.819 C 351.789 348.694,362.337 332.638,368.074 315.982 C 368.740 314.048,369.228 312.409,369.160 312.340 C 369.091 312.272,368.939 312.525,368.823 312.902 M27.634 405.929 C 20.676 409.798,14.798 414.872,16.059 415.919 C 16.709 416.458,19.391 416.839,22.533 416.839 L 25.488 416.839 27.294 415.261 C 29.577 413.266,32.616 411.034,34.034 410.310 C 36.291 409.157,35.834 407.009,32.938 405.156 C 30.952 403.886,31.434 403.816,27.634 405.929 M34.160 411.363 C 32.103 412.602,30.653 413.708,27.873 416.158 C 26.711 417.183,25.612 418.021,25.429 418.021 C 24.838 418.021,22.747 421.589,22.747 422.598 C 22.747 424.479,25.945 424.714,34.421 423.456 L 39.597 422.688 42.171 421.136 C 45.047 419.400,45.125 419.270,45.170 416.096 C 45.223 412.333,44.088 411.131,40.030 410.654 C 36.231 410.207,36.041 410.230,34.160 411.363 M50.011 418.477 C 45.179 419.770,35.369 426.511,36.923 427.471 C 37.578 427.876,45.533 428.149,50.070 427.922 L 54.350 427.709 55.234 426.701 C 58.120 423.414,57.162 419.583,53.176 418.475 C 51.721 418.070,51.531 418.070,50.011 418.477 M230.802 419.710 C 231.251 419.778,231.915 419.776,232.279 419.706 C 232.642 419.636,232.275 419.580,231.462 419.582 C 230.650 419.584,230.353 419.642,230.802 419.710 M227.824 421.699 C 222.693 426.335,221.829 441.290,226.701 441.152 C 228.892 441.090,234.466 436.497,235.984 433.502 C 237.670 430.177,237.599 423.149,235.865 421.640 C 234.133 420.133,229.520 420.167,227.824 421.699 M188.331 423.150 C 185.755 424.347,184.057 428.306,184.049 433.137 C 184.043 436.921,198.615 444.446,200.401 441.581 C 201.119 440.427,201.556 434.348,201.045 432.625 C 199.348 426.915,192.006 421.443,188.331 423.150 M207.074 423.414 C 201.849 426.936,205.187 439.291,211.692 440.506 C 213.642 440.870,213.928 440.644,216.219 436.928 C 217.244 435.263,217.588 429.333,216.769 427.433 C 215.078 423.510,210.035 421.419,207.074 423.414 M36.341 425.549 C 35.792 426.116,35.401 426.624,35.471 426.680 C 35.541 426.736,36.046 426.272,36.593 425.650 C 37.835 424.238,37.675 424.173,36.341 425.549 M36.453 428.901 C 36.683 429.273,36.576 429.263,42.097 429.388 C 46.974 429.498,45.622 429.178,39.623 428.803 C 37.316 428.659,36.323 428.689,36.453 428.901 M47.637 429.163 C 48.083 429.231,48.815 429.231,49.261 429.163 C 49.708 429.095,49.343 429.040,48.449 429.040 C 47.555 429.040,47.190 429.095,47.637 429.163 " stroke="none" fill="#f9e58d" fill-rule="evenodd"></path><path id="path1" d="M120.236 0.211 C 112.220 1.116,99.488 6.144,88.846 12.607 C 74.776 21.151,69.311 26.330,69.261 31.167 C 69.248 32.420,69.031 32.973,67.825 34.814 C 62.493 42.959,53.740 66.429,53.003 74.553 L 52.799 76.813 51.316 77.919 C 50.501 78.527,49.646 79.158,49.415 79.321 C 47.510 80.663,42.987 85.229,40.575 88.246 C 29.631 101.935,25.737 115.273,30.047 124.306 C 30.335 124.911,30.582 125.473,30.594 125.554 C 30.607 125.635,31.234 126.965,31.988 128.508 C 33.251 131.094,34.224 132.603,36.433 135.395 C 36.892 135.976,37.449 137.223,37.671 138.166 C 39.272 144.974,47.989 158.894,56.180 167.725 C 56.820 168.416,57.262 168.981,57.162 168.981 C 56.628 168.981,49.694 165.933,42.541 162.553 C 17.254 150.606,16.018 150.074,13.564 150.074 C 9.840 150.074,9.253 152.027,10.195 161.283 C 10.682 166.074,10.705 165.974,8.666 167.868 C 6.102 170.250,5.397 170.814,3.988 171.612 C 1.841 172.829,0.000 174.710,-0.000 175.687 C -0.000 176.518,3.259 179.895,4.071 179.906 C 4.280 179.909,4.522 180.099,4.610 180.328 C 4.698 180.557,5.825 181.521,7.115 182.470 C 8.630 183.584,9.898 184.823,10.695 185.968 C 14.168 190.953,23.305 200.935,35.711 213.297 C 51.359 228.888,61.027 236.151,68.772 238.132 C 69.998 238.445,71.054 238.754,71.119 238.819 C 71.183 238.884,71.070 240.845,70.866 243.176 C 70.332 249.277,70.378 256.351,70.992 262.629 C 71.828 271.176,72.937 280.717,73.604 285.081 C 73.938 287.275,74.261 289.468,74.321 289.956 C 74.776 293.656,75.355 296.638,76.559 301.477 C 77.507 305.284,79.616 311.957,80.763 314.776 L 81.468 316.509 79.360 317.974 C 76.578 319.909,60.081 336.420,57.639 339.715 C 55.828 342.157,53.032 347.432,52.774 348.892 C 52.702 349.298,52.376 350.694,52.050 351.994 C 51.152 355.576,50.705 359.308,50.724 363.072 C 50.766 371.608,52.527 375.592,59.675 383.321 C 61.685 385.495,63.671 388.204,64.339 389.685 C 64.385 389.788,63.787 390.047,63.009 390.261 C 51.012 393.550,28.532 403.415,21.418 408.512 C 12.952 414.578,12.660 417.277,20.426 417.690 L 23.866 417.873 22.703 419.793 C 21.176 422.314,21.187 423.741,22.739 424.645 C 24.333 425.572,31.378 425.286,37.149 424.059 C 38.009 423.876,37.997 424.376,37.123 425.199 C 35.138 427.069,35.025 428.468,36.850 428.571 C 40.095 428.755,54.795 428.784,56.573 428.611 C 57.710 428.500,59.970 428.335,61.595 428.245 C 64.286 428.095,70.640 427.718,77.105 427.323 C 78.486 427.239,80.480 427.107,81.536 427.030 C 82.592 426.953,88.508 426.625,94.682 426.302 C 100.857 425.978,107.038 425.651,108.419 425.575 C 109.801 425.499,112.127 425.225,113.589 424.967 C 117.197 424.329,117.548 424.270,118.907 424.068 C 131.356 422.221,137.311 416.292,134.502 408.539 C 133.917 406.926,133.400 406.077,130.176 401.429 C 126.682 396.393,126.609 393.381,129.871 388.835 C 132.188 385.607,142.356 372.821,142.606 372.821 C 142.682 372.821,144.027 373.216,145.596 373.699 C 151.852 375.623,159.509 376.855,167.123 377.162 L 171.617 377.343 171.815 378.701 C 172.062 380.390,173.203 383.632,174.375 385.968 C 175.633 388.476,180.215 396.502,180.740 397.116 C 181.413 397.904,180.998 400.640,179.667 404.188 C 175.836 414.400,175.270 419.827,177.380 426.112 C 180.122 434.280,190.824 442.883,198.339 442.960 C 201.356 442.991,201.853 442.472,202.023 439.106 C 202.102 437.535,202.258 436.836,202.556 436.722 C 203.375 436.408,205.752 437.599,207.116 439.008 C 210.321 442.317,213.913 442.597,215.678 439.675 C 217.205 437.149,219.131 435.242,220.354 435.046 C 220.992 434.944,221.725 434.780,221.983 434.681 C 222.375 434.531,222.452 434.760,222.455 436.084 C 222.460 439.130,224.508 442.247,226.500 442.242 C 229.333 442.235,235.386 437.304,237.066 433.633 C 237.732 432.178,237.966 431.951,239.417 431.350 C 247.797 427.876,247.341 415.365,238.446 404.720 L 236.939 402.917 239.142 401.145 C 243.352 397.758,247.352 391.868,248.495 387.371 C 248.868 385.905,248.643 385.959,251.256 386.708 C 265.848 390.894,288.916 390.674,303.693 386.209 C 316.626 382.301,325.110 376.837,337.531 364.415 C 362.323 339.622,373.570 315.006,376.817 278.434 C 377.719 268.274,377.743 249.335,376.854 249.335 C 376.604 249.335,376.510 252.329,376.499 260.635 C 376.461 288.917,373.301 303.755,363.477 321.789 C 350.496 345.617,334.898 359.974,312.408 368.795 C 298.148 374.388,290.343 375.412,269.689 374.402 C 257.027 373.782,255.952 373.772,256.264 374.276 C 256.900 375.306,282.529 376.123,289.367 375.331 C 324.872 371.221,353.466 348.485,369.139 311.902 C 370.848 307.914,370.147 310.681,367.739 317.430 C 358.984 341.970,335.129 370.514,314.771 380.811 C 303.955 386.282,294.293 388.367,278.287 388.684 C 265.690 388.933,248.572 386.577,249.175 384.677 C 253.283 371.732,253.764 351.700,250.198 342.037 C 248.906 338.536,248.913 338.642,249.748 335.272 C 250.726 331.325,251.102 327.879,251.105 322.841 L 251.108 318.799 253.650 320.395 C 269.278 330.207,287.966 331.904,311.669 325.665 C 331.115 320.547,344.311 308.768,356.307 285.820 C 361.824 275.265,365.731 261.472,365.731 252.550 C 365.731 248.358,365.043 249.169,364.805 253.643 C 363.852 271.525,353.044 294.732,339.143 308.744 C 330.612 317.344,322.676 321.917,311.078 324.914 C 287.795 330.933,270.091 329.278,254.170 319.593 L 251.108 317.731 251.107 316.546 C 251.105 307.971,246.595 287.079,240.621 267.968 C 237.075 256.623,227.961 231.406,225.859 227.122 C 225.482 226.354,225.501 226.319,226.397 226.144 C 240.907 223.300,255.354 212.567,267.155 195.864 C 268.459 194.019,269.758 192.582,270.949 191.668 C 279.014 185.482,283.174 179.898,280.688 178.597 C 280.261 178.373,279.446 177.770,278.877 177.258 C 277.543 176.055,276.029 174.946,273.189 173.091 C 269.731 170.833,269.733 171.401,273.163 162.393 C 275.031 157.489,275.779 154.225,275.128 153.823 C 274.974 153.728,272.398 153.757,269.404 153.889 C 263.376 154.153,260.488 154.876,254.210 157.694 C 247.535 160.691,221.498 168.200,211.078 170.134 C 204.601 171.336,203.491 171.395,202.745 170.577 C 199.345 166.852,196.951 138.763,198.227 117.578 C 200.649 77.360,197.040 55.182,184.790 35.007 C 170.798 11.965,144.013 -2.473,120.236 0.211 M129.838 1.014 C 148.567 1.808,170.028 14.702,181.922 32.306 C 195.562 52.496,199.720 75.476,197.324 117.430 C 196.144 138.075,198.255 164.880,201.495 170.401 C 201.810 170.938,202.068 171.457,202.068 171.553 C 202.068 171.748,197.068 171.431,195.790 171.155 C 195.315 171.053,194.978 171.107,194.978 171.285 C 194.978 172.829,204.613 172.409,213.978 170.457 C 225.103 168.138,248.404 161.281,254.653 158.487 C 260.695 155.786,264.576 154.790,269.840 154.589 L 274.539 154.411 274.353 155.769 C 274.251 156.517,273.238 159.562,272.102 162.537 C 270.967 165.513,269.872 168.665,269.670 169.542 L 269.302 171.138 270.664 172.372 C 271.414 173.050,272.845 174.093,273.846 174.689 C 276.495 176.267,280.650 179.590,280.650 180.131 C 280.650 181.546,272.427 189.899,269.032 191.934 C 268.814 192.064,267.529 193.700,266.177 195.569 C 250.599 217.098,235.165 226.158,212.038 227.351 C 209.644 227.474,207.976 227.682,207.976 227.858 C 207.976 228.328,217.079 227.875,221.112 227.204 C 223.056 226.881,224.666 226.643,224.690 226.676 C 224.919 226.995,230.557 241.654,232.212 246.233 C 247.781 289.311,253.399 319.610,248.849 335.951 L 248.381 337.633 247.270 336.227 C 241.257 328.621,224.729 324.135,216.625 327.909 C 214.324 328.981,211.193 332.053,212.402 332.053 C 212.561 332.053,213.242 331.455,213.916 330.724 C 219.388 324.788,237.439 327.247,245.173 334.981 C 252.464 342.272,254.001 359.819,249.215 381.102 C 246.540 392.993,242.513 398.623,232.411 404.588 C 230.821 405.528,229.451 406.408,229.366 406.545 C 228.951 407.217,230.411 406.625,233.078 405.042 L 236.029 403.289 237.097 404.525 C 244.668 413.290,246.837 424.869,241.669 428.934 C 240.706 429.691,238.352 431.019,237.972 431.019 C 237.884 431.019,237.895 429.524,237.996 427.696 C 238.343 421.473,237.097 419.793,232.133 419.793 C 228.150 419.793,226.730 420.666,224.965 424.198 C 224.134 425.862,222.751 430.820,222.743 432.165 C 222.736 433.381,222.381 433.678,220.376 434.146 C 219.345 434.386,218.322 434.732,218.103 434.914 C 217.773 435.188,217.744 435.020,217.936 433.945 C 219.145 427.176,215.686 421.846,210.099 421.868 C 204.077 421.891,201.579 428.701,205.077 435.558 C 205.554 436.494,205.581 436.683,205.216 436.543 C 204.967 436.448,204.242 436.229,203.605 436.057 C 202.461 435.750,202.444 435.723,202.273 434.071 C 202.035 431.759,200.693 429.206,198.400 426.699 C 191.281 418.917,184.219 421.087,183.265 431.350 C 183.038 433.793,182.915 433.825,181.431 431.816 C 175.831 424.234,175.736 418.468,180.957 402.806 C 181.336 401.669,181.737 400.052,181.847 399.213 L 182.049 397.688 178.487 391.379 C 174.691 384.654,173.387 381.771,172.636 378.444 L 172.166 376.366 169.170 376.366 C 144.806 376.364,127.609 367.897,100.303 342.460 C 83.068 326.404,75.633 305.893,71.957 264.254 C 70.337 245.905,72.013 231.014,78.114 209.530 C 81.235 198.542,85.668 186.580,86.526 186.833 C 95.990 189.623,120.204 186.157,138.944 179.330 L 142.142 178.165 143.643 178.757 C 165.560 187.396,195.242 242.534,198.651 280.945 C 202.406 323.237,195.826 351.455,177.908 369.914 C 175.714 372.174,174.685 373.433,174.915 373.576 C 175.364 373.853,181.229 367.871,183.638 364.678 C 197.360 346.489,202.715 318.780,199.552 282.333 C 197.948 263.853,193.355 248.497,183.187 227.622 C 170.210 200.980,158.502 185.625,146.291 179.231 L 143.301 177.665 146.466 176.241 C 155.033 172.385,162.646 167.155,168.178 161.325 C 170.654 158.716,173.117 155.706,173.117 155.291 C 173.117 154.699,172.373 155.319,170.957 157.090 C 161.404 169.036,146.346 177.369,124.176 182.979 C 99.921 189.117,83.172 188.229,70.712 180.144 C 59.502 172.871,41.171 148.917,38.583 138.159 C 38.395 137.377,38.511 137.434,40.390 139.046 C 41.495 139.993,43.300 141.352,44.400 142.065 C 46.234 143.253,46.486 143.545,47.413 145.551 C 48.918 148.809,50.517 151.319,50.975 151.143 C 51.214 151.051,51.679 151.531,52.171 152.380 C 59.144 164.391,74.491 175.942,86.209 177.997 C 110.704 182.293,145.266 169.049,168.711 146.382 C 171.568 143.619,174.440 140.936,175.093 140.418 C 177.094 138.833,178.014 135.059,176.715 133.761 C 176.154 133.200,175.990 133.718,176.366 134.859 C 177.310 137.718,174.931 140.608,170.133 142.431 C 166.094 143.966,162.637 144.620,142.984 147.565 C 131.691 149.257,116.536 151.533,109.306 152.622 L 96.160 154.602 88.922 154.610 C 72.291 154.628,63.122 152.088,47.710 143.195 C 33.322 134.892,26.598 121.146,30.483 107.976 C 33.470 97.852,45.909 81.241,53.037 77.859 C 53.969 77.417,53.981 77.383,54.142 74.821 C 54.307 72.194,55.904 65.392,56.484 64.845 C 56.704 64.638,56.742 64.903,56.613 65.731 C 55.072 75.593,58.599 76.712,62.976 67.750 C 64.795 64.026,64.993 63.985,64.993 67.326 C 64.993 70.414,63.478 73.995,61.015 76.735 L 59.699 78.199 56.710 78.364 C 53.575 78.537,53.275 78.617,53.630 79.191 C 53.915 79.652,59.179 79.292,60.249 78.738 C 63.420 77.098,66.814 69.128,70.757 54.062 C 75.554 35.732,75.817 28.811,71.620 31.287 C 67.240 33.872,71.368 26.204,76.662 21.923 C 91.117 10.235,115.078 -0.157,125.406 0.783 C 125.894 0.827,127.888 0.931,129.838 1.014 M73.590 31.961 C 73.996 32.720,73.776 37.444,73.295 38.301 C 73.126 38.602,72.577 39.845,72.076 41.064 C 69.417 47.528,63.275 56.960,62.372 55.966 C 60.040 53.398,62.949 43.839,68.718 35.117 C 70.587 32.290,72.947 30.761,73.590 31.961 M157.755 38.744 C 155.408 39.169,152.247 40.965,149.866 43.227 C 147.825 45.166,144.165 49.685,144.165 50.266 C 144.165 50.972,144.913 50.253,146.826 47.708 C 150.143 43.295,154.074 40.268,157.415 39.554 C 160.023 38.997,160.324 38.280,157.755 38.744 M156.721 49.893 C 152.627 51.782,149.056 56.669,146.026 64.531 C 139.487 81.497,136.923 93.411,138.344 100.235 C 138.727 102.076,139.349 102.442,139.201 100.739 L 139.111 99.705 139.910 100.739 C 146.097 108.750,155.548 111.445,165.958 108.165 C 171.991 106.265,173.937 104.193,175.252 98.275 C 176.105 94.431,176.399 74.026,175.653 70.347 C 172.924 56.880,163.544 46.746,156.721 49.893 M158.917 52.280 C 161.958 53.831,162.136 59.747,159.392 68.055 C 156.295 77.433,150.610 82.308,145.705 79.792 C 142.583 78.191,142.363 77.037,144.172 71.724 C 149.696 55.492,154.025 49.784,158.917 52.280 M175.203 91.798 C 174.595 100.718,173.716 103.141,170.282 105.368 C 166.670 107.712,166.315 107.702,167.923 105.304 C 169.588 102.823,170.872 99.762,171.796 96.071 C 173.203 90.452,174.841 83.433,175.085 81.979 C 175.487 79.580,175.570 86.423,175.203 91.798 M171.656 83.826 C 173.001 90.293,169.808 102.519,165.735 106.495 C 162.857 109.306,153.135 109.219,147.723 106.335 C 143.300 103.977,142.293 102.383,141.949 97.194 C 141.598 91.895,142.661 90.400,144.706 93.316 C 151.322 102.747,164.997 99.249,168.818 87.149 C 170.449 81.982,171.111 81.207,171.656 83.826 M56.721 127.041 C 56.721 128.739,57.981 130.871,58.984 130.871 C 59.318 130.871,59.239 130.643,58.679 129.976 C 57.994 129.162,57.317 127.447,57.313 126.514 C 57.312 126.311,57.179 126.145,57.016 126.145 C 56.854 126.145,56.721 126.548,56.721 127.041 M86.099 132.653 C 85.458 133.361,84.473 134.374,83.910 134.904 C 82.797 135.950,82.857 136.553,83.999 135.804 C 85.043 135.121,87.519 132.129,87.382 131.718 C 87.316 131.520,86.751 131.931,86.099 132.653 M169.101 144.830 C 162.677 151.638,151.207 160.355,142.996 164.670 C 140.484 165.990,140.620 166.013,140.620 164.273 C 140.620 162.321,140.228 161.390,138.775 159.903 L 137.556 158.654 136.143 160.778 C 135.307 162.036,134.223 164.293,133.488 166.311 C 132.010 170.363,132.797 169.750,126.292 171.915 C 100.612 180.462,83.171 179.786,69.556 169.717 L 67.439 168.152 67.260 163.914 C 66.954 156.693,66.123 156.169,63.582 161.594 L 62.544 163.809 60.056 161.151 C 57.403 158.317,53.893 153.832,52.739 151.799 L 52.037 150.563 53.271 149.176 L 54.505 147.790 56.425 148.758 C 68.880 155.034,85.902 157.004,103.693 154.226 C 109.424 153.331,121.398 151.525,129.202 150.379 C 134.623 149.583,134.157 149.485,135.092 151.625 C 135.535 152.640,136.435 154.098,137.092 154.864 L 138.286 156.258 140.367 153.978 C 142.559 151.578,143.260 150.496,143.562 149.042 C 143.724 148.260,143.899 148.135,145.063 147.965 C 145.788 147.859,150.170 147.220,154.801 146.545 C 163.294 145.307,166.425 144.662,169.129 143.595 C 169.941 143.274,170.659 143.005,170.724 142.998 C 170.790 142.990,170.059 143.815,169.101 144.830 M50.849 145.753 L 53.813 147.341 52.830 148.486 C 51.226 150.352,51.045 150.431,50.431 149.531 C 49.670 148.416,47.523 144.165,47.721 144.165 C 47.811 144.165,49.219 144.880,50.849 145.753 M142.668 149.261 C 142.363 150.328,141.741 151.247,139.771 153.544 L 138.441 155.094 137.716 154.431 C 137.057 153.827,134.925 149.762,135.150 149.538 C 135.246 149.442,141.540 148.408,142.446 148.339 C 142.868 148.307,142.901 148.445,142.668 149.261 M15.336 151.120 C 16.279 151.310,29.870 157.528,43.722 164.107 C 49.659 166.926,54.815 169.137,57.164 169.869 C 58.038 170.142,59.382 171.250,62.334 174.132 C 68.933 180.575,75.144 184.243,82.422 185.997 C 85.408 186.717,85.347 186.435,83.513 191.036 C 78.448 203.739,73.711 221.328,71.910 234.121 C 71.308 238.390,71.687 237.984,68.995 237.246 C 64.988 236.146,59.866 233.243,54.309 228.920 C 44.235 221.083,21.895 198.610,12.236 186.595 C 10.190 184.051,8.776 182.683,5.437 180.022 C -0.147 175.570,-0.159 175.456,4.629 172.206 C 7.704 170.118,10.174 167.989,10.917 166.788 L 11.565 165.738 11.100 161.044 C 10.244 152.398,10.852 150.163,13.885 150.820 C 14.129 150.873,14.782 151.008,15.336 151.120 M66.287 160.044 C 66.622 161.546,66.860 167.208,66.588 167.205 C 66.442 167.203,65.601 166.563,64.719 165.783 L 63.116 164.364 64.358 161.798 C 65.688 159.052,66.001 158.766,66.287 160.044 M139.706 163.111 C 139.889 163.938,139.906 164.835,139.751 165.379 C 139.609 165.873,139.547 166.332,139.614 166.399 C 139.738 166.523,133.846 169.286,133.469 169.280 C 133.035 169.273,135.390 163.437,136.545 161.657 L 137.751 159.799 138.577 160.771 C 139.032 161.306,139.539 162.359,139.706 163.111 M19.755 167.802 C 12.846 173.469,12.901 175.879,20.020 179.485 C 21.556 180.263,23.338 180.937,24.082 181.021 C 25.781 181.212,25.851 180.649,24.161 180.379 C 22.450 180.105,17.281 177.349,16.226 176.148 C 14.408 174.078,15.525 172.069,20.784 167.951 C 22.740 166.419,23.574 165.396,22.821 165.452 C 22.699 165.461,21.319 166.519,19.755 167.802 M247.472 166.511 C 246.924 167.060,248.088 167.209,252.972 167.215 C 258.756 167.223,260.196 167.418,261.483 168.370 C 262.412 169.057,263.034 169.166,262.854 168.612 C 262.326 166.990,248.835 165.148,247.472 166.511 M262.700 170.236 C 262.529 170.905,261.258 173.418,258.654 178.229 C 257.418 180.512,257.066 181.756,257.891 180.926 C 258.724 180.087,263.516 170.871,263.516 170.108 C 263.516 169.346,262.902 169.442,262.700 170.236 M83.977 321.674 C 88.751 331.446,93.953 337.978,104.431 347.359 C 118.654 360.091,127.960 366.596,138.109 370.903 C 139.897 371.661,141.398 372.320,141.445 372.366 C 141.492 372.413,139.289 375.227,136.549 378.619 C 128.662 388.382,122.212 397.961,123.010 398.726 C 123.293 398.998,123.357 398.908,125.042 395.864 L 126.268 393.648 126.477 395.048 C 126.928 398.070,128.446 401.259,130.672 403.860 C 133.216 406.832,134.682 411.035,134.120 413.743 C 132.952 419.370,126.817 422.273,111.669 424.365 C 108.515 424.801,56.135 427.873,55.898 427.636 C 55.839 427.577,56.198 426.967,56.696 426.279 C 60.632 420.846,54.602 415.538,47.696 418.356 L 45.909 419.086 46.031 416.539 C 46.260 411.750,44.918 410.319,39.682 409.771 L 36.166 409.403 36.274 408.468 C 36.417 407.224,35.387 405.717,33.614 404.579 C 32.854 404.092,32.226 403.612,32.217 403.514 C 32.165 402.938,43.991 398.007,55.751 393.702 L 64.973 390.326 66.793 392.430 C 69.983 396.118,74.174 399.565,77.225 401.008 C 80.300 402.463,80.392 401.693,77.326 400.166 C 73.387 398.203,68.530 393.738,64.988 388.821 C 63.939 387.366,64.041 387.409,67.073 389.703 C 71.174 392.808,78.163 396.271,81.610 396.907 C 83.790 397.309,82.693 396.518,79.582 395.444 C 67.194 391.164,55.155 379.837,52.237 369.715 C 50.027 362.050,52.412 348.982,57.352 341.696 C 61.526 335.539,79.637 317.594,81.684 317.588 C 81.846 317.587,82.878 319.426,83.977 321.674 M32.777 404.865 C 36.555 407.250,36.447 408.898,32.342 411.524 C 31.364 412.150,29.478 413.602,28.151 414.750 L 25.737 416.839 21.805 416.822 C 17.679 416.805,15.878 416.445,15.718 415.607 C 15.445 414.186,22.270 408.647,28.360 405.345 C 30.962 403.935,31.253 403.903,32.777 404.865 M39.882 410.502 C 44.521 410.877,46.219 413.270,45.226 418.033 L 44.890 419.645 42.312 421.225 C 37.113 424.410,22.452 425.515,22.452 422.721 C 22.452 421.769,24.658 418.023,25.219 418.021 C 25.359 418.021,26.556 417.076,27.877 415.921 C 31.729 412.556,35.772 409.944,36.780 410.168 C 37.105 410.241,38.501 410.391,39.882 410.502 M54.266 418.821 C 56.064 419.750,57.408 421.723,57.216 423.154 C 56.941 425.207,55.057 427.562,53.473 427.832 C 49.989 428.427,36.337 428.104,36.337 427.428 C 36.337 426.800,39.509 423.846,41.678 422.455 C 48.151 418.303,51.429 417.356,54.266 418.821 M236.084 421.640 C 237.918 423.326,237.793 430.596,235.874 433.897 C 233.971 437.167,228.796 441.350,226.645 441.356 C 221.847 441.370,222.494 426.841,227.515 421.820 L 228.656 420.679 231.848 420.679 C 235.038 420.679,235.040 420.680,236.084 421.640 M212.940 423.217 C 218.007 425.742,219.049 433.587,215.021 438.896 C 211.878 443.038,206.475 439.396,204.536 431.828 C 202.894 425.420,207.628 420.569,212.940 423.217 M192.835 423.330 C 197.150 425.289,201.411 430.687,201.468 434.269 C 201.503 436.406,200.982 440.923,200.625 441.591 C 199.319 444.031,191.543 440.985,185.062 435.495 L 183.894 434.505 184.095 431.654 C 184.600 424.488,188.081 421.172,192.835 423.330 " stroke="none" fill="#11150d" fill-rule="evenodd"></path><path id="path2" d="M121.566 1.062 C 108.047 3.049,90.984 10.946,77.548 21.434 C 71.687 26.010,67.291 33.313,71.776 31.025 C 75.974 28.883,75.704 35.646,70.851 54.210 C 65.997 72.777,61.889 80.355,56.677 80.355 C 55.420 80.355,53.158 79.267,53.354 78.757 C 54.450 75.900,46.381 82.785,41.441 88.922 C 27.362 106.409,25.872 120.472,36.676 133.912 C 40.823 139.071,50.351 145.434,59.707 149.292 C 64.096 151.102,75.585 153.537,81.093 153.825 C 94.894 154.548,96.052 154.437,133.973 148.767 C 174.467 142.713,177.398 141.682,176.028 133.973 C 175.830 132.857,176.794 133.343,177.200 134.564 C 177.976 136.892,176.952 139.467,174.644 140.996 C 174.048 141.392,171.433 143.830,168.833 146.416 C 146.819 168.310,111.865 181.989,87.323 178.315 C 75.199 176.499,60.195 165.635,52.423 153.043 C 51.816 152.060,51.136 151.256,50.912 151.256 C 50.378 151.256,48.512 148.348,47.258 145.560 C 46.375 143.599,46.085 143.240,44.719 142.423 C 43.871 141.916,42.209 140.710,41.025 139.743 C 38.426 137.619,38.465 137.595,39.567 140.616 C 43.582 151.618,60.217 172.963,69.701 179.284 C 76.885 184.071,85.385 186.701,92.312 186.281 C 97.794 185.948,99.692 185.838,102.511 185.686 C 116.301 184.945,115.380 185.069,124.815 182.679 C 146.963 177.070,161.413 168.814,171.833 155.815 C 172.609 154.847,172.799 154.737,172.968 155.157 C 173.209 155.758,171.606 157.921,168.279 161.489 C 166.368 163.538,166.101 163.948,166.474 164.258 C 168.403 165.858,165.901 170.062,158.078 178.363 L 153.273 183.461 156.925 187.077 C 174.067 204.055,193.817 244.185,198.369 271.287 C 203.967 304.612,199.461 340.131,187.138 359.823 C 182.456 367.305,178.720 392.252,181.618 396.685 C 182.356 397.814,181.886 400.547,179.931 406.499 C 176.031 418.370,176.545 425.835,181.686 431.979 C 182.944 433.482,183.051 433.410,183.238 430.945 C 183.963 421.354,190.961 418.912,197.784 425.869 C 200.797 428.941,203.184 433.655,202.556 435.293 C 202.463 435.534,202.707 435.746,203.198 435.854 C 203.632 435.949,204.278 436.110,204.633 436.211 C 205.264 436.391,205.259 436.349,204.384 434.096 C 201.883 427.653,203.901 422.512,209.238 421.733 C 214.291 420.996,218.168 425.125,218.168 431.244 C 218.168 433.719,218.260 434.536,218.525 434.434 C 218.721 434.359,219.670 434.134,220.635 433.935 L 222.390 433.573 222.586 432.074 C 223.731 423.340,226.579 419.627,232.091 419.679 C 237.319 419.729,239.021 422.217,238.130 428.508 C 237.781 430.979,237.793 430.995,239.412 430.208 C 246.284 426.870,245.998 416.617,238.763 406.917 C 235.949 403.144,236.318 403.254,233.063 405.216 C 231.534 406.138,230.003 406.923,229.661 406.960 C 229.318 406.998,227.478 407.924,225.571 409.019 C 215.159 414.998,209.564 413.837,199.510 403.614 C 194.423 398.440,193.733 397.140,194.993 395.102 C 196.015 393.447,197.571 393.285,200.606 394.518 C 205.480 396.499,215.497 397.487,221.713 396.600 C 222.201 396.531,223.530 396.396,224.668 396.301 C 233.243 395.584,238.868 394.209,241.213 392.256 C 243.192 390.609,244.139 390.725,244.616 392.671 C 244.827 393.530,246.970 388.924,247.978 385.445 C 252.990 368.149,252.983 348.045,247.962 338.819 C 242.439 328.673,220.995 323.620,214.040 330.826 C 211.777 333.171,211.145 332.498,213.357 330.099 C 219.670 323.250,241.106 327.073,247.405 336.173 L 248.280 337.438 248.528 336.592 C 253.846 318.405,246.537 282.958,227.304 233.650 C 225.935 230.142,224.815 227.145,224.815 226.991 C 224.815 226.829,223.533 226.928,221.787 227.224 C 215.326 228.320,207.546 228.576,207.736 227.687 C 207.778 227.489,207.061 225.997,206.142 224.372 C 200.687 214.727,202.637 211.361,212.577 213.261 C 214.353 213.600,217.533 214.082,219.645 214.332 C 221.758 214.582,223.951 214.844,224.520 214.915 C 234.966 216.220,241.764 215.537,250.014 212.356 C 253.630 210.962,259.462 204.818,266.402 195.094 C 267.945 192.932,269.083 191.697,270.529 190.617 C 274.230 187.852,280.668 181.160,280.641 180.106 C 280.632 179.721,276.077 176.251,272.609 173.985 C 268.494 171.297,268.525 171.648,271.675 163.368 C 273.288 159.129,274.446 155.519,274.446 154.732 C 274.446 154.600,272.419 154.578,269.941 154.685 C 264.731 154.908,261.459 155.730,255.366 158.344 C 248.435 161.318,228.365 167.351,216.665 169.976 C 206.855 172.178,199.295 172.901,195.919 171.961 C 194.674 171.615,194.286 170.805,195.453 170.989 C 195.760 171.038,197.309 171.155,198.894 171.250 L 201.776 171.423 201.025 169.782 C 197.283 161.609,196.014 138.132,197.668 107.681 C 200.208 60.920,188.271 29.980,160.740 11.962 C 148.459 3.925,132.429 -0.535,121.566 1.062 M159.527 38.827 C 159.527 39.101,158.959 39.367,157.912 39.585 C 154.108 40.374,150.244 43.322,146.634 48.189 C 145.564 49.632,144.579 50.812,144.444 50.812 C 142.305 50.812,149.859 42.181,153.819 40.100 C 156.718 38.577,159.527 37.950,159.527 38.827 M162.261 49.629 C 166.860 51.350,172.023 58.133,174.585 65.820 C 177.551 74.718,176.884 98.726,173.529 103.846 C 172.773 105.000,168.541 107.570,166.389 108.181 C 155.171 111.368,146.950 109.263,140.450 101.539 L 139.259 100.123 139.381 101.169 C 139.598 103.025,138.661 102.505,138.204 100.517 C 136.725 94.080,139.424 81.136,145.488 65.576 C 150.510 52.691,156.139 47.338,162.261 49.629 M57.446 126.219 C 57.509 126.422,57.643 127.082,57.744 127.687 C 57.844 128.292,58.263 129.186,58.674 129.675 C 59.514 130.673,59.400 131.356,58.475 130.862 C 56.968 130.055,55.744 125.849,57.016 125.849 C 57.189 125.849,57.382 126.016,57.446 126.219 M87.740 131.740 C 87.740 132.468,84.099 136.185,83.383 136.188 C 82.692 136.190,83.010 135.675,85.001 133.567 C 86.823 131.638,87.740 131.026,87.740 131.740 M11.690 151.651 C 10.677 152.664,10.548 154.180,11.062 159.067 C 11.918 167.221,11.878 167.308,5.022 172.100 C -0.201 175.751,-0.250 175.311,5.935 180.232 C 8.327 182.134,10.468 184.111,11.231 185.122 C 17.991 194.076,31.616 208.199,34.998 209.759 C 43.369 213.620,53.501 215.820,61.588 215.532 C 71.675 215.174,75.482 215.006,75.577 214.916 C 75.630 214.865,76.332 212.519,77.136 209.701 C 78.893 203.547,81.907 194.566,83.715 190.103 C 85.012 186.900,85.022 186.851,84.391 186.657 C 84.040 186.549,82.489 186.111,80.945 185.683 C 73.896 183.732,67.026 179.407,61.207 173.258 C 58.667 170.574,58.451 170.420,56.260 169.704 C 53.530 168.813,49.308 166.910,32.053 158.793 C 13.904 150.255,13.299 150.042,11.690 151.651 M267.208 153.490 L 265.731 153.894 267.799 153.759 C 268.936 153.684,270.731 153.613,271.787 153.600 C 273.135 153.584,273.531 153.502,273.117 153.323 C 272.222 152.939,268.873 153.033,267.208 153.490 M23.266 165.805 C 23.200 166.008,21.826 167.254,20.214 168.573 C 15.277 172.611,14.526 174.389,16.864 176.502 C 18.291 177.791,23.101 180.207,24.241 180.207 C 25.223 180.207,26.016 180.991,25.308 181.263 C 24.629 181.523,21.981 180.674,19.636 179.443 C 12.660 175.781,12.718 173.201,19.904 167.512 C 22.373 165.557,23.543 164.963,23.266 165.805 M261.226 167.266 C 262.485 167.856,262.925 168.219,262.925 168.669 C 262.925 169.324,262.495 169.481,262.165 168.947 C 261.440 167.774,259.341 167.377,253.250 167.261 C 248.235 167.166,247.267 167.077,247.267 166.713 C 247.267 165.819,259.142 166.289,261.226 167.266 M263.704 169.719 C 263.830 170.048,264.354 170.162,265.738 170.162 C 270.100 170.162,273.545 177.581,271.069 181.645 C 266.762 188.716,260.025 187.036,259.969 178.877 L 259.961 177.696 258.915 179.542 C 257.877 181.372,257.312 181.849,257.312 180.892 C 257.312 180.619,258.442 178.309,259.823 175.759 C 261.204 173.208,262.334 171.047,262.334 170.957 C 262.334 169.806,263.376 168.865,263.704 169.719 M368.586 245.644 C 366.037 246.292,363.684 249.554,365.436 250.012 C 368.233 250.743,362.918 273.006,357.239 284.343 C 345.451 307.877,331.408 320.659,311.669 325.823 C 288.241 331.953,268.479 330.113,253.473 320.406 C 252.325 319.663,251.356 319.056,251.320 319.057 C 251.285 319.058,251.237 321.218,251.215 323.857 C 251.173 328.888,250.647 333.057,249.616 336.528 L 249.033 338.491 249.947 340.773 C 252.998 348.392,253.732 360.630,251.830 372.157 C 251.716 372.847,251.673 373.414,251.735 373.417 C 266.697 374.096,289.488 374.513,292.019 374.155 C 318.970 370.344,342.741 354.731,358.044 330.787 C 369.492 312.876,373.601 300.759,375.798 278.434 C 376.152 274.838,376.539 250.654,376.260 249.543 C 375.555 246.733,371.804 244.827,368.586 245.644 M79.729 319.013 C 74.461 323.000,62.328 335.229,58.290 340.620 C 51.173 350.122,49.433 366.353,54.587 375.150 C 57.630 380.344,60.222 382.706,66.103 385.641 C 83.114 394.134,92.497 393.900,98.406 384.835 C 100.320 381.899,100.491 380.844,100.394 372.566 C 100.274 362.285,100.660 361.046,105.520 356.098 C 110.099 351.437,110.363 352.784,103.693 346.807 C 95.820 339.752,91.158 334.420,87.307 328.070 C 85.448 325.004,82.127 318.473,82.127 317.882 C 82.127 317.333,81.650 317.558,79.729 319.013 M71.935 324.036 C 70.148 325.632,67.697 328.056,66.489 329.422 C 62.853 333.534,62.897 333.578,66.701 329.638 C 68.697 327.571,71.489 324.810,72.905 323.504 C 74.321 322.197,75.414 321.129,75.332 321.131 C 75.251 321.132,73.722 322.439,71.935 324.036 M51.137 353.908 C 50.958 354.740,50.824 355.780,50.839 356.218 C 50.854 356.657,51.045 356.023,51.265 354.808 C 51.721 352.290,51.626 351.627,51.137 353.908 M50.586 358.050 C 50.586 358.619,50.646 358.852,50.721 358.567 C 50.795 358.283,50.795 357.818,50.721 357.533 C 50.646 357.249,50.586 357.482,50.586 358.050 M53.914 394.493 C 44.228 398.048,40.656 399.497,34.329 402.440 L 32.173 403.443 33.802 404.525 C 35.536 405.676,36.362 406.884,36.438 408.382 L 36.484 409.303 39.834 409.672 C 44.969 410.238,46.248 411.562,46.216 416.278 L 46.198 418.820 47.988 418.070 C 52.532 416.167,58.198 418.798,58.198 422.811 L 58.198 423.693 60.117 423.497 C 69.648 422.525,89.592 414.569,91.913 410.814 C 93.363 408.468,92.113 407.410,84.195 404.288 C 75.475 400.849,70.845 397.688,66.438 392.165 C 64.859 390.186,66.464 389.888,53.914 394.493 M202.659 436.884 C 202.903 437.026,203.501 437.230,203.988 437.335 C 204.555 437.458,204.715 437.433,204.431 437.267 C 204.188 437.124,203.589 436.921,203.102 436.816 C 202.535 436.693,202.375 436.718,202.659 436.884 " stroke="none" fill="#f78106" fill-rule="evenodd"></path><path id="path3" d="M367.068 105.835 C 367.001 106.038,366.729 107.334,366.464 108.715 C 365.530 113.576,363.602 121.865,363.327 122.201 C 363.174 122.388,362.345 122.897,361.486 123.332 C 359.361 124.407,359.053 125.061,358.826 128.978 C 358.418 136.019,357.240 138.727,353.247 141.805 C 351.745 142.962,350.368 144.256,350.185 144.680 L 349.854 145.452 348.735 143.766 C 347.430 141.801,347.238 141.799,346.178 143.737 L 345.385 145.189 345.011 144.308 C 344.775 143.753,344.631 141.979,344.623 139.513 C 344.607 135.079,344.542 134.941,343.582 137.297 C 341.709 141.894,339.095 146.352,337.932 146.931 C 335.546 148.121,332.939 155.687,332.939 161.424 C 332.939 165.159,334.632 169.634,338.073 175.000 C 339.465 177.170,339.482 177.167,339.873 174.742 C 340.151 173.023,342.152 167.434,342.391 167.711 C 342.503 167.841,342.898 169.143,343.270 170.606 C 343.642 172.068,344.261 174.277,344.647 175.514 L 345.347 177.763 346.678 177.945 C 351.117 178.554,352.605 180.902,352.323 186.852 L 352.140 190.694 353.151 187.991 C 354.947 183.189,356.437 180.798,357.634 180.798 C 358.188 180.798,358.641 180.746,358.641 180.682 C 358.641 180.618,359.235 178.325,359.962 175.586 C 361.594 169.431,362.199 166.008,362.214 162.851 C 362.230 159.305,362.511 159.777,364.069 165.969 C 365.970 173.525,365.994 173.909,364.888 179.051 C 363.405 185.952,363.236 187.421,363.250 193.353 C 363.263 199.397,363.452 200.796,365.281 208.419 C 366.364 212.937,367.415 216.042,367.784 215.814 C 367.913 215.735,368.261 214.736,368.557 213.595 C 369.201 211.112,369.246 211.096,370.073 213.073 L 370.722 214.623 370.738 212.515 C 370.764 208.899,372.520 203.825,375.401 199.040 C 377.166 196.108,377.252 196.147,377.054 199.778 C 376.702 206.205,377.609 208.870,382.249 215.043 L 385.229 219.008 385.221 220.952 C 385.205 224.673,384.376 237.968,384.104 238.856 C 383.443 241.018,381.813 243.631,378.837 247.300 C 375.996 250.803,376.879 254.454,380.157 252.758 C 382.131 251.738,384.955 247.930,387.984 242.205 L 389.603 239.143 390.215 234.222 C 391.036 227.621,392.006 224.604,394.438 221.099 C 399.297 214.092,399.799 211.773,399.905 195.864 L 399.989 183.309 398.852 185.672 C 398.029 187.383,397.464 188.172,396.807 188.528 C 396.144 188.889,395.846 189.310,395.699 190.093 C 395.402 191.676,395.431 191.810,393.533 180.338 C 390.210 160.258,389.664 152.448,390.876 142.295 C 391.275 138.950,391.206 138.934,389.646 142.011 C 388.931 143.422,386.886 146.774,385.102 149.461 L 381.858 154.346 381.401 152.453 C 380.832 150.090,380.495 149.969,379.629 151.818 C 379.253 152.621,378.394 153.820,377.721 154.480 L 376.498 155.681 374.963 151.031 C 373.254 145.855,372.117 141.380,372.318 140.614 C 372.694 139.175,371.216 133.862,368.622 127.326 L 367.157 123.634 367.357 114.549 C 367.536 106.442,367.475 104.601,367.068 105.835 " stroke="none" fill="#dc3414" fill-rule="evenodd"></path><path id="path4" d="M362.379 163.691 C 362.159 166.788,361.131 171.988,359.725 177.105 L 358.751 180.650 357.745 180.798 C 356.476 180.984,354.845 183.729,353.143 188.543 C 352.528 190.284,351.981 191.666,351.929 191.614 C 351.877 191.562,351.976 189.638,352.149 187.339 C 352.575 181.672,351.495 179.383,347.937 178.413 C 344.769 177.549,345.201 178.194,343.431 171.687 C 342.885 169.682,342.376 167.979,342.299 167.902 C 342.085 167.688,340.274 173.308,339.858 175.480 L 339.489 177.400 340.775 179.775 C 342.725 183.379,344.548 194.142,343.612 196.529 C 343.179 197.633,341.538 197.669,340.271 196.603 C 338.873 195.426,338.789 195.581,339.013 198.925 C 339.270 202.753,339.015 203.042,337.136 201.054 C 335.342 199.156,334.767 200.107,336.105 202.760 C 338.020 206.560,338.232 211.713,336.823 220.262 C 335.778 226.601,335.690 228.637,336.351 231.175 C 337.055 233.876,339.770 236.194,342.627 236.532 C 343.983 236.693,344.165 236.795,344.165 237.394 C 344.165 238.517,345.624 242.206,346.928 244.384 C 351.778 252.481,360.512 256.050,362.860 250.895 C 363.075 250.424,363.420 250.222,364.006 250.222 C 364.655 250.222,364.845 250.084,364.845 249.616 C 364.845 244.545,373.253 243.994,375.990 248.885 C 376.745 250.234,382.155 243.640,383.715 239.470 C 384.333 237.818,385.493 219.872,385.031 219.117 C 384.910 218.920,383.495 216.983,381.887 214.812 C 377.465 208.843,376.843 207.000,377.013 200.357 C 377.116 196.283,377.193 196.303,375.113 199.842 C 372.249 204.712,370.563 210.154,370.854 213.589 L 371.016 215.510 370.312 214.032 C 369.925 213.220,369.600 212.381,369.590 212.169 C 369.547 211.260,369.017 212.252,368.519 214.174 C 367.882 216.630,367.763 216.681,366.973 214.845 C 362.958 205.510,362.077 191.424,364.742 179.181 C 365.693 174.811,365.744 174.319,365.436 172.534 C 365.118 170.692,362.824 161.249,362.653 161.077 C 362.608 161.032,362.485 162.208,362.379 163.691 M140.473 178.893 C 128.249 184.561,102.004 188.982,89.667 187.452 C 87.733 187.212,86.136 187.045,86.119 187.082 C 85.191 189.040,85.239 189.239,88.052 195.126 C 93.262 206.024,99.803 211.206,109.010 211.726 C 118.473 212.261,132.027 203.996,149.718 186.903 L 152.169 184.535 148.169 181.936 C 142.291 178.117,142.213 178.086,140.473 178.893 M108.918 185.405 C 108.887 185.427,107.068 185.532,104.874 185.638 C 98.559 185.943,94.855 186.166,92.467 186.386 L 90.251 186.590 94.092 186.822 C 98.140 187.066,103.736 186.741,109.303 185.940 C 113.166 185.384,113.559 185.236,110.986 185.308 C 109.879 185.339,108.948 185.383,108.918 185.405 M109.316 348.577 C 108.583 349.947,108.846 350.231,116.669 356.512 C 132.717 369.394,146.326 374.788,166.130 376.115 L 171.403 376.468 175.519 372.207 C 182.636 364.840,186.156 360.076,189.630 353.107 C 191.536 349.286,191.534 349.276,189.136 350.483 C 178.400 355.890,169.677 358.105,159.171 358.091 C 146.839 358.075,144.198 357.570,124.383 351.433 C 112.391 347.720,110.016 347.270,109.316 348.577 M251.592 373.929 C 251.512 374.213,251.357 375.044,251.247 375.775 C 251.138 376.507,250.663 378.827,250.193 380.932 C 249.190 385.428,248.955 385.025,253.198 386.092 C 263.892 388.781,272.224 389.220,289.585 388.006 C 293.134 387.758,292.602 387.426,288.267 387.184 C 269.905 386.161,257.893 381.717,254.203 374.580 C 253.572 373.360,251.873 372.936,251.592 373.929 " stroke="none" fill="#ebdf3c" fill-rule="evenodd"></path><path id="path5" d="M130.059 1.090 C 130.343 1.164,130.809 1.164,131.093 1.090 C 131.377 1.016,131.145 0.955,130.576 0.955 C 130.007 0.955,129.775 1.016,130.059 1.090 M74.284 24.003 L 73.117 25.258 74.372 24.091 C 75.063 23.448,75.628 22.883,75.628 22.835 C 75.628 22.612,75.371 22.835,74.284 24.003 M148.892 43.870 C 148.175 44.601,147.654 45.199,147.735 45.199 C 147.816 45.199,148.470 44.601,149.188 43.870 C 149.905 43.139,150.426 42.541,150.345 42.541 C 150.263 42.541,149.610 43.139,148.892 43.870 M149.483 44.461 C 148.765 45.192,148.245 45.790,148.326 45.790 C 148.407 45.790,149.061 45.192,149.778 44.461 C 150.496 43.730,151.017 43.131,150.935 43.131 C 150.854 43.131,150.201 43.730,149.483 44.461 M159.161 49.249 C 159.529 49.319,160.061 49.317,160.343 49.243 C 160.626 49.169,160.325 49.111,159.675 49.114 C 159.025 49.118,158.794 49.178,159.161 49.249 M176.194 78.434 C 176.194 81.521,176.238 82.744,176.291 81.152 C 176.345 79.559,176.344 77.033,176.291 75.539 C 176.237 74.044,176.194 75.347,176.194 78.434 M198.031 95.716 C 198.031 96.935,198.084 97.434,198.147 96.824 C 198.211 96.215,198.211 95.218,198.147 94.609 C 198.084 93.999,198.031 94.498,198.031 95.716 M197.728 107.090 C 197.730 108.065,197.785 108.428,197.851 107.897 C 197.916 107.366,197.915 106.569,197.848 106.125 C 197.780 105.681,197.727 106.115,197.728 107.090 M159.306 109.509 C 159.590 109.584,160.055 109.584,160.340 109.509 C 160.624 109.435,160.391 109.374,159.823 109.374 C 159.254 109.374,159.021 109.435,159.306 109.509 M197.114 119.055 C 197.114 119.623,197.175 119.856,197.249 119.572 C 197.324 119.287,197.324 118.822,197.249 118.538 C 197.175 118.253,197.114 118.486,197.114 119.055 M56.571 126.149 C 56.458 126.331,56.446 126.559,56.544 126.657 C 56.641 126.754,56.721 126.679,56.721 126.489 C 56.721 125.949,57.257 126.086,57.394 126.662 C 57.495 127.083,57.512 127.073,57.488 126.611 C 57.455 125.956,56.871 125.662,56.571 126.149 M197.114 141.802 C 197.114 142.371,197.175 142.603,197.249 142.319 C 197.324 142.035,197.324 141.569,197.249 141.285 C 197.175 141.001,197.114 141.233,197.114 141.802 M169.129 143.595 C 166.425 144.662,163.294 145.307,154.801 146.545 C 150.170 147.220,145.788 147.859,145.063 147.965 C 143.899 148.135,143.724 148.260,143.562 149.042 C 143.260 150.496,142.559 151.578,140.367 153.978 L 138.286 156.258 137.092 154.864 C 136.435 154.098,135.535 152.640,135.092 151.625 C 134.157 149.485,134.623 149.583,129.202 150.379 C 121.398 151.525,109.424 153.331,103.693 154.226 C 85.902 157.004,68.880 155.034,56.425 148.758 L 54.505 147.790 53.271 149.176 L 52.037 150.563 52.739 151.799 C 54.862 155.538,62.304 164.133,62.768 163.382 C 62.921 163.135,62.903 163.051,62.722 163.163 C 62.560 163.263,61.974 162.874,61.421 162.299 L 60.414 161.254 61.277 160.561 C 61.751 160.179,62.748 159.714,63.492 159.527 C 64.235 159.340,65.081 158.931,65.373 158.618 C 66.041 157.901,66.765 157.885,66.765 158.588 C 66.765 158.998,66.993 159.125,67.725 159.124 C 69.194 159.120,80.806 159.533,83.309 159.677 C 84.527 159.747,87.651 159.877,90.251 159.966 C 95.395 160.140,99.807 160.317,105.318 160.570 C 108.236 160.703,112.554 161.221,120.089 162.339 C 120.576 162.411,122.170 162.620,123.630 162.802 C 129.898 163.584,132.274 165.863,130.478 169.370 C 129.891 170.519,129.844 170.755,130.237 170.595 C 130.505 170.487,131.056 170.277,131.462 170.129 C 132.072 169.907,132.420 169.256,133.457 166.392 C 134.220 164.289,135.273 162.084,136.135 160.789 L 137.556 158.654 138.775 159.903 C 140.228 161.390,140.620 162.321,140.620 164.273 C 140.620 165.075,140.701 165.731,140.799 165.731 C 141.887 165.731,153.373 158.402,158.257 154.591 C 162.632 151.177,171.529 142.904,170.724 142.998 C 170.659 143.005,169.941 143.274,169.129 143.595 M168.685 146.381 C 167.475 147.600,166.551 148.597,166.632 148.597 C 166.713 148.597,167.770 147.600,168.981 146.381 C 170.191 145.162,171.115 144.165,171.034 144.165 C 170.953 144.165,169.896 145.162,168.685 146.381 M270.831 153.828 C 271.198 153.899,271.730 153.896,272.012 153.822 C 272.295 153.748,271.994 153.690,271.344 153.693 C 270.694 153.697,270.463 153.757,270.831 153.828 M80.724 154.413 C 81.008 154.488,81.473 154.488,81.758 154.413 C 82.042 154.339,81.809 154.278,81.241 154.278 C 80.672 154.278,80.439 154.339,80.724 154.413 M88.331 154.518 L 84.047 154.678 88.479 154.701 C 90.916 154.713,93.907 154.624,95.126 154.503 L 97.341 154.283 94.978 154.320 C 93.678 154.341,90.687 154.430,88.331 154.518 M268.172 154.714 C 268.539 154.785,269.071 154.782,269.354 154.708 C 269.636 154.634,269.335 154.576,268.685 154.580 C 268.035 154.583,267.804 154.643,268.172 154.714 M58.789 161.152 C 59.340 161.721,59.857 162.186,59.939 162.186 C 60.020 162.186,59.635 161.721,59.084 161.152 C 58.533 160.583,58.016 160.118,57.934 160.118 C 57.853 160.118,58.238 160.583,58.789 161.152 M67.417 165.168 C 67.361 167.784,67.407 168.046,68.021 168.566 C 68.682 169.126,68.683 169.126,68.180 168.528 C 67.801 168.076,67.651 167.231,67.577 165.130 L 67.479 162.334 67.417 165.168 M62.629 164.937 C 62.629 164.988,63.061 165.420,63.589 165.897 L 64.549 166.765 63.682 165.805 C 62.873 164.910,62.629 164.709,62.629 164.937 M201.588 170.989 C 201.725 171.211,201.194 171.349,199.935 171.421 L 198.080 171.526 200.074 171.583 C 201.930 171.636,202.538 171.374,201.727 170.873 C 201.521 170.746,201.466 170.791,201.588 170.989 M63.516 174.446 C 64.398 175.340,65.187 176.071,65.268 176.071 C 65.349 176.071,64.693 175.340,63.811 174.446 C 62.928 173.552,62.140 172.821,62.059 172.821 C 61.977 172.821,62.633 173.552,63.516 174.446 M63.208 175.258 C 63.932 176.030,64.564 176.662,64.611 176.662 C 64.833 176.662,64.598 176.397,63.294 175.172 L 61.891 173.855 63.208 175.258 M144.485 178.251 C 144.787 178.526,147.710 179.906,147.710 179.774 C 147.710 179.607,144.889 178.139,144.569 178.139 C 144.455 178.139,144.418 178.189,144.485 178.251 M144.190 179.135 C 144.494 179.407,146.233 180.207,146.233 180.074 C 146.233 179.904,144.596 179.025,144.279 179.025 C 144.162 179.025,144.122 179.075,144.190 179.135 M21.861 197.784 C 22.412 198.353,22.930 198.818,23.011 198.818 C 23.092 198.818,22.708 198.353,22.157 197.784 C 21.605 197.216,21.088 196.750,21.007 196.750 C 20.925 196.750,21.310 197.216,21.861 197.784 M26.440 202.659 C 27.075 203.309,27.661 203.840,27.742 203.840 C 27.823 203.840,27.370 203.309,26.736 202.659 C 26.101 202.009,25.515 201.477,25.434 201.477 C 25.353 201.477,25.806 202.009,26.440 202.659 M33.666 209.823 C 34.890 211.127,35.155 211.362,35.155 211.140 C 35.155 211.092,34.524 210.461,33.752 209.737 L 32.349 208.419 33.666 209.823 M40.473 216.691 C 42.499 218.722,44.223 220.384,44.304 220.384 C 44.386 220.384,42.794 218.722,40.768 216.691 C 38.742 214.660,37.018 212.999,36.936 212.999 C 36.855 212.999,38.447 214.660,40.473 216.691 M238.700 220.532 C 237.969 220.923,237.476 221.250,237.604 221.257 C 237.918 221.275,240.177 220.114,240.177 219.935 C 240.177 219.739,240.190 219.734,238.700 220.532 M46.529 222.452 C 47.163 223.102,47.749 223.634,47.830 223.634 C 47.912 223.634,47.459 223.102,46.824 222.452 C 46.190 221.802,45.604 221.270,45.523 221.270 C 45.441 221.270,45.894 221.802,46.529 222.452 M207.878 227.376 C 207.770 227.484,207.683 227.717,207.685 227.893 C 207.688 228.092,207.775 228.079,207.916 227.857 C 208.051 227.644,209.087 227.460,210.496 227.399 L 212.851 227.298 210.463 227.238 C 209.149 227.205,207.986 227.267,207.878 227.376 M376.458 255.096 C 376.460 256.071,376.515 256.434,376.580 255.903 C 376.646 255.372,376.645 254.575,376.577 254.131 C 376.510 253.687,376.456 254.121,376.458 255.096 M376.451 266.322 C 376.453 267.134,376.510 267.432,376.578 266.983 C 376.646 266.534,376.644 265.869,376.574 265.506 C 376.504 265.142,376.449 265.510,376.451 266.322 M200.399 298.375 C 200.399 299.756,200.450 300.321,200.512 299.631 C 200.574 298.940,200.574 297.810,200.512 297.120 C 200.450 296.429,200.399 296.994,200.399 298.375 M200.387 305.613 C 200.389 306.588,200.444 306.951,200.510 306.420 C 200.575 305.889,200.574 305.092,200.507 304.648 C 200.439 304.204,200.385 304.638,200.387 305.613 M341.050 308.198 L 339.882 309.453 341.137 308.286 C 342.305 307.200,342.529 306.942,342.305 306.942 C 342.257 306.942,341.692 307.507,341.050 308.198 M337.650 311.595 L 336.632 312.703 337.740 311.685 C 338.771 310.737,338.984 310.487,338.758 310.487 C 338.709 310.487,338.210 310.986,337.650 311.595 M250.331 322.600 C 250.331 324.306,250.380 325.004,250.439 324.151 C 250.499 323.298,250.499 321.902,250.439 321.049 C 250.380 320.196,250.331 320.894,250.331 322.600 M251.182 321.566 C 251.186 322.216,251.246 322.447,251.317 322.079 C 251.387 321.712,251.385 321.180,251.311 320.898 C 251.237 320.615,251.179 320.916,251.182 321.566 M69.270 327.105 L 66.617 329.838 69.350 327.185 C 71.888 324.721,72.217 324.372,72.003 324.372 C 71.959 324.372,70.729 325.602,69.270 327.105 M70.157 327.400 L 67.208 330.428 70.236 327.480 C 71.902 325.858,73.264 324.495,73.264 324.452 C 73.264 324.238,72.896 324.588,70.157 327.400 M63.645 334.195 L 62.777 335.155 63.737 334.287 C 64.265 333.810,64.697 333.378,64.697 333.327 C 64.697 333.099,64.453 333.300,63.645 334.195 M97.181 339.513 C 97.906 340.284,98.537 340.916,98.584 340.916 C 98.806 340.916,98.572 340.651,97.267 339.426 L 95.864 338.109 97.181 339.513 M96.012 339.586 C 96.563 340.155,97.080 340.620,97.162 340.620 C 97.243 340.620,96.858 340.155,96.307 339.586 C 95.756 339.018,95.239 338.552,95.157 338.552 C 95.076 338.552,95.461 339.018,96.012 339.586 M346.363 346.012 L 345.495 346.972 346.455 346.104 C 347.350 345.295,347.551 345.052,347.323 345.052 C 347.272 345.052,346.840 345.484,346.363 346.012 M341.340 351.034 L 340.473 351.994 341.433 351.126 C 342.328 350.318,342.529 350.074,342.300 350.074 C 342.250 350.074,341.818 350.506,341.340 351.034 M50.591 360.266 C 50.595 360.916,50.655 361.147,50.726 360.779 C 50.797 360.412,50.794 359.880,50.720 359.598 C 50.646 359.315,50.588 359.616,50.591 360.266 M252.659 361.743 C 252.663 362.393,252.723 362.624,252.794 362.257 C 252.865 361.889,252.862 361.357,252.788 361.075 C 252.714 360.792,252.656 361.093,252.659 361.743 M336.780 363.811 C 335.569 365.030,334.646 366.027,334.727 366.027 C 334.808 366.027,335.865 365.030,337.075 363.811 C 338.286 362.592,339.210 361.595,339.128 361.595 C 339.047 361.595,337.990 362.592,336.780 363.811 M251.773 362.925 C 251.776 363.575,251.837 363.806,251.908 363.438 C 251.978 363.071,251.976 362.539,251.902 362.257 C 251.828 361.974,251.770 362.275,251.773 362.925 M50.586 365.140 C 50.586 365.709,50.646 365.942,50.721 365.657 C 50.795 365.373,50.795 364.908,50.721 364.623 C 50.646 364.339,50.586 364.572,50.586 365.140 M181.518 367.282 L 180.650 368.242 181.610 367.375 C 182.138 366.897,182.570 366.465,182.570 366.414 C 182.570 366.186,182.326 366.387,181.518 367.282 M178.424 370.679 L 176.809 372.378 178.508 370.763 C 179.442 369.875,180.207 369.111,180.207 369.065 C 180.207 368.845,179.924 369.101,178.424 370.679 M61.595 384.047 C 62.230 384.697,62.816 385.229,62.897 385.229 C 62.978 385.229,62.525 384.697,61.891 384.047 C 61.256 383.397,60.670 382.866,60.589 382.866 C 60.508 382.866,60.961 383.397,61.595 384.047 M63.811 385.912 C 63.811 385.963,64.243 386.395,64.771 386.872 L 65.731 387.740 64.863 386.780 C 64.055 385.885,63.811 385.684,63.811 385.912 M64.611 388.113 C 64.969 388.436,65.193 388.770,65.108 388.855 C 65.023 388.941,65.083 389.091,65.242 389.189 C 65.401 389.287,65.499 389.143,65.458 388.868 C 65.418 388.594,65.064 388.179,64.672 387.947 L 63.959 387.526 64.611 388.113 M69.707 394.461 C 70.431 395.233,71.063 395.864,71.110 395.864 C 71.332 395.864,71.098 395.599,69.793 394.375 L 68.390 393.058 69.707 394.461 M82.415 396.354 C 82.860 396.574,82.784 396.982,82.269 397.142 C 81.955 397.239,81.977 397.267,82.343 397.233 C 82.940 397.179,83.060 396.396,82.489 396.280 C 82.282 396.238,82.249 396.271,82.415 396.354 M240.317 398.597 L 238.257 400.739 240.399 398.679 C 242.388 396.765,242.676 396.455,242.459 396.455 C 242.414 396.455,241.450 397.419,240.317 398.597 M46.170 415.805 C 46.172 416.617,46.230 416.915,46.298 416.466 C 46.366 416.017,46.364 415.352,46.294 414.989 C 46.224 414.625,46.168 414.993,46.170 415.805 M177.026 418.612 C 177.026 419.180,177.086 419.413,177.161 419.129 C 177.235 418.844,177.235 418.379,177.161 418.095 C 177.086 417.810,177.026 418.043,177.026 418.612 M128.508 420.089 C 127.939 420.400,127.580 420.660,127.710 420.667 C 128.023 420.683,129.690 419.817,129.690 419.638 C 129.690 419.445,129.673 419.451,128.508 420.089 M197.341 425.554 C 197.892 426.123,198.410 426.588,198.491 426.588 C 198.572 426.588,198.188 426.123,197.637 425.554 C 197.085 424.985,196.568 424.520,196.487 424.520 C 196.406 424.520,196.790 424.985,197.341 425.554 M103.475 425.027 C 103.924 425.095,104.589 425.093,104.952 425.023 C 105.316 424.953,104.948 424.898,104.136 424.900 C 103.323 424.902,103.026 424.959,103.475 425.027 M98.453 425.323 C 98.902 425.391,99.567 425.389,99.930 425.319 C 100.294 425.249,99.926 425.193,99.114 425.195 C 98.301 425.197,98.004 425.255,98.453 425.323 M93.136 425.618 C 93.585 425.686,94.249 425.684,94.613 425.614 C 94.976 425.544,94.609 425.488,93.796 425.491 C 92.984 425.493,92.686 425.550,93.136 425.618 M87.818 425.914 C 88.267 425.982,88.932 425.980,89.295 425.910 C 89.658 425.839,89.291 425.784,88.479 425.786 C 87.666 425.788,87.369 425.846,87.818 425.914 M103.180 425.914 C 103.629 425.982,104.294 425.980,104.657 425.910 C 105.020 425.839,104.653 425.784,103.840 425.786 C 103.028 425.788,102.731 425.846,103.180 425.914 M82.500 426.209 C 82.949 426.277,83.614 426.275,83.977 426.205 C 84.341 426.135,83.973 426.079,83.161 426.082 C 82.349 426.084,82.051 426.141,82.500 426.209 M97.862 426.209 C 98.311 426.277,98.976 426.275,99.339 426.205 C 99.703 426.135,99.335 426.079,98.523 426.082 C 97.710 426.084,97.413 426.141,97.862 426.209 M77.183 426.504 C 77.632 426.572,78.297 426.571,78.660 426.500 C 79.023 426.430,78.656 426.375,77.843 426.377 C 77.031 426.379,76.734 426.437,77.183 426.504 M92.545 426.504 C 92.994 426.572,93.658 426.571,94.022 426.500 C 94.385 426.430,94.018 426.375,93.205 426.377 C 92.393 426.379,92.096 426.437,92.545 426.504 M56.189 426.942 C 55.566 427.566,55.803 427.771,57.090 427.720 L 58.346 427.670 57.217 427.553 C 56.276 427.455,56.148 427.366,56.441 427.012 C 56.868 426.498,56.684 426.448,56.189 426.942 M71.865 426.800 C 72.314 426.868,72.979 426.866,73.342 426.796 C 73.706 426.726,73.338 426.670,72.526 426.672 C 71.713 426.675,71.416 426.732,71.865 426.800 M87.227 426.800 C 87.676 426.868,88.341 426.866,88.704 426.796 C 89.068 426.726,88.700 426.670,87.888 426.672 C 87.075 426.675,86.778 426.732,87.227 426.800 M66.548 427.095 C 66.997 427.163,67.661 427.161,68.025 427.091 C 68.388 427.021,68.021 426.966,67.208 426.968 C 66.396 426.970,66.099 427.027,66.548 427.095 M82.496 427.087 C 82.781 427.161,83.246 427.161,83.530 427.087 C 83.815 427.013,83.582 426.952,83.013 426.952 C 82.445 426.952,82.212 427.013,82.496 427.087 M61.230 427.391 C 61.679 427.459,62.344 427.457,62.707 427.387 C 63.071 427.317,62.703 427.261,61.891 427.263 C 61.078 427.265,60.781 427.323,61.230 427.391 " stroke="none" fill="#9f5546" fill-rule="evenodd"></path><path id="path6" d="M176.139 88.035 C 176.139 88.604,176.200 88.837,176.275 88.552 C 176.349 88.268,176.349 87.803,176.275 87.518 C 176.200 87.234,176.139 87.467,176.139 88.035 M162.925 144.043 C 160.358 144.609,160.064 144.746,161.795 144.568 C 163.346 144.409,166.373 143.599,165.288 143.633 C 164.963 143.643,163.900 143.828,162.925 144.043 M64.428 151.085 C 65.968 152.625,93.927 155.954,92.467 154.424 C 92.386 154.338,89.993 154.184,87.149 154.081 C 78.817 153.779,77.576 153.640,70.924 152.267 C 64.285 150.896,64.229 150.886,64.428 151.085 M67.178 159.933 C 67.273 160.441,67.438 162.492,67.545 164.492 L 67.739 168.127 68.951 169.110 C 74.469 173.591,79.703 175.785,87.188 176.757 L 92.396 177.433 101.515 176.611 C 111.204 175.736,113.563 175.308,123.191 172.676 C 129.510 170.948,129.880 170.770,130.615 169.108 C 132.134 165.676,129.746 163.557,123.486 162.780 C 122.105 162.609,120.576 162.410,120.089 162.338 C 112.434 161.211,108.291 160.708,105.613 160.581 C 101.728 160.398,96.292 160.180,90.251 159.966 C 87.814 159.879,84.690 159.749,83.309 159.677 C 81.928 159.605,78.205 159.463,75.037 159.362 C 71.869 159.260,68.765 159.140,68.140 159.094 C 67.015 159.011,67.006 159.019,67.178 159.933 M63.206 159.573 C 62.629 159.727,61.765 160.171,61.286 160.559 L 60.414 161.265 61.479 162.343 L 62.545 163.421 63.590 161.327 C 64.164 160.174,64.549 159.246,64.444 159.262 C 64.340 159.279,63.782 159.419,63.206 159.573 M150.369 183.276 C 150.369 183.479,152.453 184.721,152.581 184.593 C 152.642 184.531,152.170 184.180,151.531 183.812 C 150.892 183.444,150.369 183.203,150.369 183.276 M199.508 300.148 C 199.508 301.366,199.561 301.865,199.624 301.256 C 199.688 300.646,199.688 299.649,199.624 299.040 C 199.561 298.431,199.508 298.929,199.508 300.148 M199.501 304.136 C 199.502 305.111,199.558 305.474,199.623 304.943 C 199.689 304.412,199.688 303.614,199.620 303.170 C 199.553 302.727,199.499 303.161,199.501 304.136 M343.860 348.523 L 342.245 350.222 343.944 348.607 C 345.522 347.107,345.778 346.824,345.559 346.824 C 345.512 346.824,344.748 347.589,343.860 348.523 M176.796 370.827 L 175.628 372.083 176.883 370.915 C 177.574 370.273,178.139 369.708,178.139 369.659 C 178.139 369.436,177.882 369.660,176.796 370.827 M172.958 374.963 L 171.492 376.514 173.043 375.048 C 174.484 373.686,174.729 373.412,174.509 373.412 C 174.462 373.412,173.764 374.110,172.958 374.963 " stroke="none" fill="#e2857a" fill-rule="evenodd"></path><path id="path7" d="M56.327 64.913 C 55.805 65.758,54.283 72.634,54.152 74.742 C 54.056 76.294,53.848 77.372,53.607 77.565 C 52.703 78.291,53.627 78.534,56.661 78.367 L 59.699 78.199 61.015 76.735 C 63.478 73.995,64.993 70.414,64.993 67.326 C 64.993 63.985,64.795 64.026,62.976 67.750 C 58.897 76.102,55.371 75.906,56.439 67.387 C 56.729 65.073,56.695 64.318,56.327 64.913 M55.687 79.441 L 54.210 79.616 55.214 79.985 C 56.646 80.512,57.731 80.443,58.534 79.773 L 59.232 79.192 58.198 79.229 C 57.629 79.249,56.499 79.344,55.687 79.441 M175.144 81.462 C 175.085 81.909,175.111 84.003,175.202 86.115 L 175.367 89.956 175.424 85.303 C 175.477 80.899,175.385 79.638,175.144 81.462 M170.208 83.383 C 169.879 84.073,169.254 85.768,168.818 87.149 C 164.997 99.249,151.322 102.747,144.706 93.316 C 142.661 90.400,141.598 91.895,141.949 97.194 C 142.293 102.383,143.300 103.977,147.723 106.335 C 153.135 109.219,162.857 109.306,165.735 106.495 C 169.808 102.519,173.001 90.293,171.656 83.826 C 171.234 81.797,170.998 81.724,170.208 83.383 M176.162 85.524 C 176.164 86.499,176.219 86.862,176.285 86.331 C 176.351 85.801,176.349 85.003,176.282 84.559 C 176.215 84.115,176.161 84.549,176.162 85.524 M63.220 164.150 C 63.220 164.309,63.652 164.829,64.180 165.307 L 65.140 166.174 64.254 165.142 C 63.767 164.574,63.335 164.053,63.294 163.985 C 63.253 163.916,63.220 163.990,63.220 164.150 M66.524 165.379 C 66.484 166.537,66.373 166.893,66.100 166.739 C 65.807 166.574,65.806 166.612,66.096 166.924 C 66.654 167.526,66.809 167.127,66.689 165.395 L 66.579 163.811 66.524 165.379 M71.277 249.926 C 71.277 250.657,71.335 250.956,71.405 250.591 C 71.475 250.225,71.475 249.627,71.405 249.261 C 71.335 248.896,71.277 249.195,71.277 249.926 M71.298 253.914 C 71.299 255.214,71.351 255.709,71.413 255.014 C 71.476 254.320,71.475 253.256,71.411 252.651 C 71.348 252.046,71.297 252.614,71.298 253.914 M199.501 296.455 C 199.502 297.430,199.558 297.793,199.623 297.262 C 199.689 296.731,199.688 295.933,199.620 295.490 C 199.553 295.046,199.499 295.480,199.501 296.455 M199.501 307.386 C 199.502 308.360,199.558 308.724,199.623 308.193 C 199.689 307.662,199.688 306.864,199.620 306.420 C 199.553 305.976,199.499 306.411,199.501 307.386 M165.805 376.275 C 166.089 376.349,166.555 376.349,166.839 376.275 C 167.123 376.200,166.891 376.139,166.322 376.139 C 165.753 376.139,165.521 376.200,165.805 376.275 M45.288 415.953 C 45.288 416.846,45.343 417.212,45.411 416.765 C 45.479 416.318,45.479 415.587,45.411 415.140 C 45.343 414.694,45.288 415.059,45.288 415.953 M209.531 422.664 C 209.980 422.732,210.645 422.730,211.008 422.660 C 211.372 422.590,211.004 422.534,210.192 422.536 C 209.380 422.539,209.082 422.596,209.531 422.664 M185.949 423.708 L 185.081 424.668 186.041 423.800 C 186.569 423.323,187.001 422.891,187.001 422.840 C 187.001 422.612,186.758 422.813,185.949 423.708 M214.180 424.022 C 214.180 424.072,214.612 424.504,215.140 424.982 L 216.100 425.849 215.233 424.889 C 214.424 423.994,214.180 423.793,214.180 424.022 M37.503 425.923 L 36.484 427.031 37.592 426.013 C 38.623 425.065,38.836 424.815,38.610 424.815 C 38.561 424.815,38.062 425.314,37.503 425.923 M195.864 425.203 C 195.864 425.254,196.296 425.686,196.824 426.163 L 197.784 427.031 196.917 426.071 C 196.108 425.176,195.864 424.975,195.864 425.203 M237.298 426.440 C 237.301 427.090,237.361 427.321,237.432 426.954 C 237.503 426.586,237.500 426.054,237.426 425.772 C 237.352 425.490,237.294 425.790,237.298 426.440 M39.811 427.979 C 40.179 428.049,40.711 428.046,40.993 427.973 C 41.276 427.899,40.975 427.841,40.325 427.844 C 39.675 427.847,39.444 427.908,39.811 427.979 M50.890 427.982 C 51.339 428.049,52.004 428.048,52.367 427.978 C 52.731 427.907,52.363 427.852,51.551 427.854 C 50.739 427.856,50.441 427.914,50.890 427.982 M204.224 429.247 C 204.224 430.140,204.280 430.506,204.347 430.059 C 204.415 429.612,204.415 428.881,204.347 428.434 C 204.280 427.987,204.224 428.353,204.224 429.247 M44.387 428.280 C 44.996 428.344,45.993 428.344,46.603 428.280 C 47.212 428.216,46.713 428.164,45.495 428.164 C 44.276 428.164,43.778 428.216,44.387 428.280 M36.411 428.564 C 36.695 428.638,37.160 428.638,37.445 428.564 C 37.729 428.490,37.496 428.429,36.928 428.429 C 36.359 428.429,36.126 428.490,36.411 428.564 M40.103 428.864 C 40.469 428.935,41.067 428.935,41.433 428.864 C 41.798 428.794,41.499 428.736,40.768 428.736 C 40.037 428.736,39.738 428.794,40.103 428.864 M50.299 428.868 C 50.749 428.936,51.413 428.934,51.777 428.864 C 52.140 428.794,51.773 428.738,50.960 428.740 C 50.148 428.743,49.850 428.800,50.299 428.868 M44.540 429.165 C 45.071 429.231,45.869 429.230,46.313 429.162 C 46.756 429.095,46.322 429.041,45.347 429.043 C 44.372 429.044,44.009 429.100,44.540 429.165 M232.782 437.445 L 231.167 439.143 232.866 437.529 C 233.800 436.640,234.564 435.876,234.564 435.830 C 234.564 435.611,234.282 435.866,232.782 437.445 M200.955 439.291 C 200.955 439.860,201.016 440.092,201.090 439.808 C 201.164 439.524,201.164 439.058,201.090 438.774 C 201.016 438.490,200.955 438.722,200.955 439.291 " stroke="none" fill="#818a8c" fill-rule="evenodd"></path><path id="path8" d="M174.151 23.043 C 174.785 23.693,175.371 24.225,175.452 24.225 C 175.533 24.225,175.081 23.693,174.446 23.043 C 173.811 22.393,173.226 21.861,173.144 21.861 C 173.063 21.861,173.516 22.393,174.151 23.043 M166.322 52.382 C 166.322 52.433,166.754 52.865,167.282 53.342 L 168.242 54.210 167.375 53.250 C 166.566 52.355,166.322 52.154,166.322 52.382 M46.219 83.383 L 45.052 84.638 46.307 83.470 C 47.475 82.384,47.699 82.127,47.475 82.127 C 47.427 82.127,46.862 82.692,46.219 83.383 M197.705 87.149 C 197.705 87.718,197.766 87.951,197.840 87.666 C 197.915 87.382,197.915 86.917,197.840 86.632 C 197.766 86.348,197.705 86.581,197.705 87.149 M137.755 95.716 C 137.755 96.610,137.810 96.976,137.878 96.529 C 137.945 96.082,137.945 95.351,137.878 94.904 C 137.810 94.457,137.755 94.823,137.755 95.716 M196.854 127.326 C 196.854 128.708,196.904 129.273,196.967 128.582 C 197.029 127.891,197.029 126.761,196.967 126.071 C 196.904 125.380,196.854 125.945,196.854 127.326 M196.855 132.792 C 196.854 134.254,196.904 134.890,196.966 134.204 C 197.028 133.518,197.029 132.322,196.968 131.545 C 196.907 130.768,196.856 131.329,196.855 132.792 M197.114 143.575 C 197.114 144.143,197.175 144.376,197.249 144.092 C 197.324 143.807,197.324 143.342,197.249 143.058 C 197.175 142.773,197.114 143.006,197.114 143.575 M268.907 153.823 C 269.191 153.897,269.657 153.897,269.941 153.823 C 270.225 153.748,269.993 153.687,269.424 153.687 C 268.855 153.687,268.623 153.748,268.907 153.823 M168.079 161.521 L 167.061 162.629 168.168 161.611 C 169.200 160.664,169.412 160.414,169.186 160.414 C 169.137 160.414,168.639 160.912,168.079 161.521 M166.088 163.504 C 163.631 166.628,153.946 172.979,146.460 176.375 L 143.585 177.680 145.338 178.476 C 147.367 179.396,151.244 181.919,152.703 183.267 C 153.256 183.777,153.612 184.027,153.496 183.822 C 153.360 183.582,154.998 181.631,158.083 178.357 C 165.919 170.042,168.403 165.859,166.462 164.248 C 166.060 163.914,166.065 163.815,166.508 163.325 C 166.781 163.024,166.927 162.777,166.832 162.777 C 166.738 162.777,166.403 163.104,166.088 163.504 M263.516 170.611 C 263.516 170.858,262.718 172.594,261.743 174.470 C 259.818 178.174,259.675 178.924,260.388 181.603 C 262.015 187.713,267.360 187.735,271.069 181.645 C 272.838 178.742,272.050 175.216,268.809 171.534 L 267.601 170.162 265.558 170.162 C 263.929 170.162,263.516 170.253,263.516 170.611 M60.709 172.821 C 61.344 173.471,61.929 174.003,62.011 174.003 C 62.092 174.003,61.639 173.471,61.004 172.821 C 60.370 172.171,59.784 171.640,59.703 171.640 C 59.622 171.640,60.074 172.171,60.709 172.821 M199.634 172.439 C 200.002 172.510,200.533 172.507,200.816 172.433 C 201.098 172.359,200.798 172.302,200.148 172.305 C 199.498 172.308,199.267 172.369,199.634 172.439 M145.643 180.018 C 145.643 180.086,146.473 180.662,147.489 181.299 C 148.504 181.937,149.701 182.698,150.148 182.991 C 150.595 183.284,150.960 183.448,150.960 183.354 C 150.960 183.260,150.196 182.666,149.261 182.033 C 147.498 180.839,145.643 179.806,145.643 180.018 M157.312 187.592 C 158.276 188.567,159.132 189.365,159.213 189.365 C 159.295 189.365,158.572 188.567,157.607 187.592 C 156.642 186.617,155.787 185.820,155.705 185.820 C 155.624 185.820,156.347 186.617,157.312 187.592 M29.394 205.613 C 30.359 206.588,31.215 207.386,31.296 207.386 C 31.377 207.386,30.655 206.588,29.690 205.613 C 28.725 204.638,27.869 203.840,27.788 203.840 C 27.707 203.840,28.430 204.638,29.394 205.613 M34.331 210.303 C 36.622 212.805,46.200 221.974,49.191 224.528 C 60.422 234.119,71.492 239.995,71.492 236.366 C 71.492 234.194,74.693 217.666,75.543 215.453 C 75.669 215.125,74.559 215.095,69.088 215.282 C 53.445 215.817,46.764 214.812,36.407 210.365 L 33.081 208.937 34.331 210.303 M250.136 212.290 C 244.006 214.862,235.227 216.127,228.648 215.387 C 223.883 214.851,223.500 214.805,218.612 214.170 C 205.014 212.404,205.276 212.408,204.006 213.917 C 202.505 215.702,203.200 219.159,206.093 224.298 L 207.714 227.179 210.959 227.179 C 225.539 227.179,241.067 221.325,251.832 211.771 C 252.213 211.432,252.100 211.466,250.136 212.290 M209.078 228.278 C 209.602 228.343,210.533 228.345,211.146 228.281 C 211.758 228.217,211.329 228.163,210.192 228.162 C 209.055 228.161,208.553 228.213,209.078 228.278 M365.806 253.323 C 365.809 253.973,365.869 254.205,365.940 253.837 C 366.011 253.470,366.008 252.938,365.934 252.655 C 365.860 252.373,365.802 252.674,365.806 253.323 M376.484 260.857 C 376.484 263.213,376.530 264.177,376.586 262.999 C 376.642 261.821,376.642 259.893,376.586 258.715 C 376.530 257.537,376.484 258.501,376.484 260.857 M200.370 294.978 C 200.373 295.628,200.434 295.859,200.504 295.491 C 200.575 295.124,200.572 294.592,200.498 294.310 C 200.424 294.027,200.367 294.328,200.370 294.978 M200.384 308.715 C 200.384 309.609,200.439 309.974,200.507 309.527 C 200.575 309.081,200.575 308.349,200.507 307.903 C 200.439 307.456,200.384 307.821,200.384 308.715 M251.205 324.520 C 251.206 325.657,251.259 326.086,251.323 325.473 C 251.387 324.861,251.386 323.930,251.321 323.406 C 251.256 322.881,251.203 323.383,251.205 324.520 M98.227 341.802 C 98.862 342.452,99.448 342.984,99.529 342.984 C 99.610 342.984,99.158 342.452,98.523 341.802 C 97.888 341.152,97.303 340.620,97.221 340.620 C 97.140 340.620,97.593 341.152,98.227 341.802 M108.898 352.476 C 108.653 352.826,107.133 354.456,105.520 356.098 C 100.660 361.046,100.274 362.285,100.394 372.566 C 100.507 382.247,99.946 384.038,95.475 388.269 C 89.287 394.125,76.788 392.314,61.743 383.380 L 60.709 382.766 61.595 383.732 C 65.922 388.447,73.603 393.317,80.222 395.541 C 81.671 396.028,82.902 396.565,82.959 396.736 C 83.639 398.775,71.625 393.602,66.913 389.827 C 65.366 388.587,64.731 388.212,65.162 388.791 C 69.316 394.375,74.415 398.930,78.213 400.448 C 79.502 400.964,79.868 401.650,78.951 401.832 C 78.667 401.889,80.162 402.636,82.275 403.492 C 84.387 404.348,86.953 405.393,87.977 405.814 C 94.658 408.559,93.732 411.288,84.638 415.655 C 76.573 419.527,63.895 423.463,59.014 423.609 C 58.377 423.629,58.113 423.856,57.767 424.685 C 57.525 425.263,57.049 426.127,56.709 426.605 L 56.090 427.474 57.218 427.471 C 61.130 427.459,110.591 424.445,112.999 424.071 C 126.594 421.962,132.120 419.462,133.699 414.707 C 134.715 411.650,133.450 407.451,130.427 403.840 C 128.603 401.662,126.782 397.878,126.504 395.683 L 126.282 393.944 125.348 395.569 C 124.834 396.462,124.275 397.559,124.105 398.006 C 123.783 398.854,122.895 399.135,122.895 398.389 C 122.895 396.559,128.359 388.533,136.395 378.561 L 141.412 372.335 139.908 371.810 C 132.273 369.140,120.851 361.862,111.468 353.689 C 109.363 351.856,109.340 351.845,108.898 352.476 M251.773 360.857 C 251.776 361.507,251.837 361.738,251.908 361.370 C 251.978 361.003,251.976 360.471,251.902 360.189 C 251.828 359.906,251.770 360.207,251.773 360.857 M51.472 361.004 C 51.472 361.573,51.533 361.806,51.607 361.521 C 51.681 361.237,51.681 360.772,51.607 360.487 C 51.533 360.203,51.472 360.436,51.472 361.004 M183.752 364.765 C 181.687 367.598,175.683 373.708,174.965 373.708 C 174.259 373.708,171.765 376.226,172.203 376.497 C 172.380 376.607,172.526 376.948,172.526 377.255 C 172.526 379.360,174.785 384.578,178.604 391.295 C 181.004 395.518,181.267 395.849,180.975 394.291 C 179.957 388.865,181.023 378.884,183.630 369.437 C 184.659 365.707,185.473 362.628,185.439 362.596 C 185.405 362.563,184.645 363.540,183.752 364.765 M252.653 363.663 C 252.653 364.232,252.714 364.465,252.789 364.180 C 252.863 363.896,252.863 363.431,252.789 363.146 C 252.714 362.862,252.653 363.095,252.653 363.663 M242.688 391.194 C 242.363 391.377,241.700 391.857,241.213 392.260 C 238.859 394.211,233.235 395.584,224.668 396.301 C 223.530 396.396,222.201 396.531,221.713 396.600 C 215.497 397.487,205.480 396.499,200.606 394.518 C 197.571 393.285,196.015 393.447,194.993 395.102 C 193.733 397.140,194.423 398.440,199.510 403.614 C 209.565 413.838,214.980 414.974,225.479 409.063 C 227.550 407.897,229.245 406.789,229.246 406.602 C 229.246 406.414,230.742 405.365,232.570 404.269 C 238.773 400.551,244.609 394.971,244.609 392.760 C 244.609 392.270,243.638 390.808,243.342 390.851 C 243.307 390.856,243.013 391.010,242.688 391.194 M100.665 426.211 C 101.193 426.276,102.057 426.276,102.585 426.211 C 103.113 426.145,102.681 426.092,101.625 426.092 C 100.569 426.092,100.137 426.145,100.665 426.211 M91.876 426.588 L 89.069 426.770 91.581 426.794 C 92.962 426.807,95.355 426.721,96.898 426.603 L 99.705 426.388 97.194 426.397 C 95.812 426.402,93.419 426.488,91.876 426.588 M85.007 427.100 C 85.698 427.162,86.828 427.162,87.518 427.100 C 88.209 427.037,87.644 426.987,86.263 426.987 C 84.882 426.987,84.317 427.037,85.007 427.100 M79.394 427.387 C 79.760 427.458,80.358 427.458,80.724 427.387 C 81.089 427.317,80.790 427.259,80.059 427.259 C 79.328 427.259,79.029 427.317,79.394 427.387 " stroke="none" fill="#e44b12" fill-rule="evenodd"></path></g></svg>