<svg id="svg" version="1.1" xmlns="http://www.w3.org/2000/svg" xmlns:xlink="http://www.w3.org/1999/xlink" width="400" height="421.1586901763224" viewBox="0, 0, 400,421.1586901763224"><g id="svgg"><path id="path0" d="M252.016 0.898 C 248.840 4.263,244.418 10.622,240.990 16.751 C 227.905 40.150,216.312 83.154,216.157 108.867 C 216.120 114.900,215.903 115.675,214.765 113.833 C 212.225 109.724,193.019 98.571,181.852 94.720 C 165.236 88.991,141.154 87.328,128.279 91.021 C 127.184 91.335,127.094 91.286,125.637 89.586 C 102.525 62.629,44.126 31.716,7.745 27.179 C -1.097 26.076,-0.855 25.944,1.926 30.352 C 22.520 62.989,71.379 100.305,102.342 107.043 L 105.104 107.644 102.993 110.329 C 99.873 114.299,91.053 131.651,88.396 139.048 C 85.695 146.567,83.632 150.519,78.868 157.301 C 74.271 163.844,73.917 164.466,72.830 167.930 C 70.977 173.831,72.323 188.362,75.396 195.634 C 75.631 196.188,76.091 197.473,76.420 198.489 C 77.456 201.690,80.160 208.020,82.404 212.499 L 84.567 216.817 76.457 216.813 C 57.036 216.804,44.361 223.992,39.772 237.615 C 34.738 252.557,46.506 272.005,63.056 276.097 C 64.026 276.337,64.819 276.696,64.819 276.895 C 64.819 277.094,59.027 294.030,51.948 314.531 C 44.869 335.032,38.828 352.802,38.523 354.021 C 35.696 365.336,38.284 375.829,45.755 383.336 C 47.571 385.161,49.015 386.673,48.962 386.696 C 48.910 386.719,47.809 387.090,46.516 387.520 C 34.024 391.673,20.466 400.252,22.625 402.637 C 23.011 403.064,23.093 403.369,22.860 403.513 C 21.336 404.454,23.442 406.717,25.842 406.717 C 26.705 406.717,27.705 406.939,28.063 407.210 C 30.132 408.775,75.716 402.830,80.547 400.365 C 82.763 399.235,84.299 397.228,84.299 395.465 C 84.299 394.046,84.355 393.954,85.223 393.936 C 85.730 393.926,92.645 393.344,100.588 392.642 L 115.029 391.367 138.137 395.669 C 156.730 399.131,173.802 402.015,175.696 402.015 C 175.856 402.015,175.987 402.826,175.987 403.817 C 175.987 407.480,176.476 407.698,191.604 410.775 C 204.775 413.455,208.525 414.385,219.144 417.605 C 229.401 420.717,233.129 421.382,234.602 420.365 C 234.966 420.114,235.970 419.804,236.832 419.677 C 238.800 419.388,239.764 418.208,239.217 416.759 C 239.027 416.257,238.946 415.461,239.036 414.991 C 239.680 411.622,223.150 400.292,210.076 395.140 C 208.783 394.631,207.658 394.152,207.576 394.076 C 207.494 393.999,208.267 393.072,209.293 392.015 C 216.850 384.227,218.073 373.322,213.264 356.613 C 212.722 354.728,212.311 353.158,212.352 353.124 C 212.393 353.090,216.961 354.400,222.502 356.035 C 231.178 358.594,234.079 359.322,234.092 358.942 C 234.181 356.321,236.451 328.676,236.589 328.538 C 236.700 328.427,240.151 329.347,244.256 330.583 C 252.205 332.975,252.627 333.062,253.154 332.410 C 253.340 332.179,258.511 323.375,264.645 312.846 C 270.779 302.317,275.843 293.655,275.900 293.597 C 275.956 293.539,291.972 298.193,311.492 303.940 C 331.012 309.686,347.249 314.303,347.575 314.200 C 347.901 314.097,352.379 309.518,357.526 304.025 C 362.674 298.533,374.223 286.820,383.191 277.997 C 394.348 267.020,399.529 261.701,399.600 261.150 C 399.694 260.418,399.187 260.086,394.021 257.503 C 376.157 248.568,344.415 239.050,316.541 234.270 C 306.530 232.554,306.300 232.529,285.665 230.892 C 264.006 229.174,266.078 229.520,266.969 227.774 C 267.733 226.277,267.787 226.274,271.872 227.523 C 274.796 228.417,275.655 227.774,275.045 225.146 C 274.569 223.096,274.646 222.833,275.819 222.488 C 277.643 221.950,277.982 220.523,276.909 217.884 C 276.728 217.437,276.836 217.296,277.362 217.296 C 279.910 217.296,280.901 215.376,279.654 212.856 C 278.648 210.823,278.623 210.886,280.530 210.671 C 283.868 210.295,282.937 208.250,277.368 203.722 L 273.795 200.818 274.111 199.570 C 275.378 194.559,275.225 194.460,266.835 194.843 C 251.332 195.550,239.850 198.327,229.448 203.885 L 226.266 205.585 226.498 201.785 C 227.054 192.671,227.584 189.475,231.471 171.788 C 234.742 156.907,235.208 153.121,234.516 147.047 L 234.223 144.473 236.202 141.338 C 253.905 113.296,264.991 39.624,256.410 7.053 C 254.836 1.080,253.548 -0.725,252.016 0.898 M237.830 38.336 C 243.959 42.840,250.721 51.564,254.613 59.989 L 255.898 62.771 254.400 73.787 C 250.443 102.877,243.457 126.686,234.955 140.050 L 233.780 141.898 233.558 140.814 C 233.279 139.448,232.590 138.811,231.959 139.334 C 231.585 139.645,231.614 140.175,232.134 142.482 C 232.528 144.229,232.833 147.308,232.959 150.798 L 233.159 156.339 229.779 171.620 C 226.716 185.470,225.870 189.948,225.189 195.918 L 224.965 197.881 223.733 197.597 C 215.383 195.671,205.266 202.863,199.651 214.715 C 195.417 223.653,196.855 232.108,203.041 234.652 C 203.861 234.989,204.532 235.363,204.533 235.483 C 204.540 236.725,187.779 245.267,180.919 247.519 C 179.106 248.113,177.684 248.661,177.758 248.735 C 177.966 248.943,183.395 247.940,184.897 247.417 C 185.630 247.161,186.403 247.012,186.614 247.086 C 187.274 247.316,197.110 242.600,201.577 239.912 C 215.615 231.464,224.447 220.469,225.882 209.652 C 226.620 204.088,246.359 197.780,266.115 196.795 C 273.920 196.406,273.136 196.174,272.547 198.701 C 271.407 203.588,271.338 208.228,272.406 208.228 C 273.067 208.228,273.196 207.879,273.554 205.122 C 273.814 203.119,273.581 203.059,277.319 206.096 C 280.544 208.716,280.767 209.219,278.712 209.231 C 276.850 209.242,276.458 210.747,277.723 213.030 C 278.323 214.114,278.764 215.037,278.702 215.081 C 278.640 215.125,277.834 215.479,276.910 215.866 C 274.994 216.672,274.755 217.253,275.556 219.169 C 276.168 220.634,275.908 220.977,274.181 220.986 C 272.590 220.993,272.353 221.519,272.891 223.835 C 273.464 226.299,273.675 226.168,270.385 225.382 C 266.701 224.502,266.750 224.468,262.804 230.658 C 249.718 251.189,221.563 277.871,201.931 288.347 C 199.996 289.379,199.496 289.804,199.496 290.415 C 199.496 291.409,200.391 291.426,202.024 290.462 L 203.247 289.741 203.045 291.218 C 201.243 304.449,201.724 324.599,204.068 334.005 C 204.344 335.113,206.690 343.025,209.282 351.587 C 214.638 369.283,215.006 371.134,214.347 377.031 C 213.421 385.318,210.618 389.637,202.575 395.165 C 201.871 395.649,203.889 396.481,204.648 396.021 C 207.091 394.538,228.711 405.952,234.593 411.830 C 236.089 413.325,235.610 413.068,230.196 409.472 C 222.703 404.495,219.554 402.829,218.970 403.534 C 218.290 404.353,218.799 404.882,221.872 406.543 C 227.923 409.815,238.227 417.312,237.397 417.839 C 236.458 418.433,235.458 418.152,234.938 417.146 C 233.739 414.828,217.178 405.640,215.365 406.287 C 213.927 406.801,215.255 407.711,223.427 411.811 C 238.530 419.390,236.999 421.655,220.398 416.295 C 217.706 415.426,208.142 413.061,198.567 410.896 C 176.928 406.004,177.666 406.259,177.666 403.670 L 177.666 402.351 180.485 402.351 C 189.277 402.351,198.902 400.460,198.285 398.853 C 198.022 398.168,197.669 398.198,192.779 399.318 C 190.432 399.856,188.035 400.095,183.711 400.224 L 177.834 400.400 151.134 395.830 C 136.448 393.316,124.207 391.192,123.929 391.110 C 123.652 391.027,127.997 391.008,133.583 391.068 C 144.335 391.183,145.254 391.074,144.318 389.794 C 143.747 389.014,123.037 388.789,116.037 389.487 C 102.263 390.860,74.880 393.216,74.339 393.075 C 73.572 392.874,72.360 394.056,72.725 394.648 C 72.967 395.039,75.347 394.967,80.688 394.406 L 82.620 394.204 82.620 395.360 C 82.620 397.589,80.543 398.861,74.495 400.338 C 69.809 401.482,34.226 406.137,31.413 405.974 L 29.745 405.877 31.936 404.453 C 34.517 402.775,37.206 401.638,41.814 400.276 C 45.450 399.201,46.551 398.542,45.676 397.963 C 44.133 396.943,33.534 400.731,29.179 403.859 C 27.532 405.043,25.173 405.492,24.692 404.713 C 24.245 403.989,29.734 400.857,37.378 397.474 C 40.819 395.952,42.110 394.953,41.292 394.447 C 40.627 394.037,31.551 398.080,26.113 401.210 C 24.059 402.392,23.626 401.950,25.357 400.440 C 29.294 397.003,39.139 391.855,46.439 389.416 L 51.031 387.881 53.811 389.223 C 57.598 391.050,62.646 392.489,63.317 391.933 C 64.303 391.114,63.789 390.700,60.911 389.989 C 46.994 386.554,38.797 375.515,39.386 361.004 C 39.629 355.030,39.099 356.737,52.150 319.899 C 62.455 290.812,65.333 282.433,66.457 278.243 L 66.821 276.890 72.789 277.341 C 86.816 278.401,100.201 275.368,115.594 267.644 L 118.910 265.980 121.494 267.015 C 125.290 268.534,125.781 268.242,125.480 264.637 L 125.257 261.965 127.928 261.965 C 131.938 261.965,132.145 261.602,130.216 257.935 L 129.245 256.087 130.198 255.983 C 134.663 255.494,135.196 254.110,132.286 250.564 C 131.147 249.176,131.161 249.157,133.519 248.837 C 137.339 248.318,137.255 245.682,133.322 242.653 C 132.363 241.914,131.268 241.069,130.890 240.775 C 130.202 240.242,130.203 240.236,131.295 238.328 C 132.663 235.936,132.530 235.582,130.171 235.339 C 127.700 235.084,125.231 233.892,122.754 231.759 C 114.760 224.876,102.840 219.698,90.397 217.702 L 86.818 217.128 83.604 210.737 C 81.126 205.809,77.246 196.622,77.246 195.683 C 77.246 195.615,78.169 195.476,79.297 195.373 C 83.903 194.956,88.272 191.451,90.939 186.032 C 97.141 173.432,94.533 154.564,86.245 152.081 C 84.682 151.613,84.604 152.143,86.948 147.314 C 88.036 145.074,90.554 139.040,92.543 133.906 C 97.420 121.318,102.224 113.031,108.984 105.545 L 110.663 103.685 109.488 104.275 C 108.841 104.599,107.970 105.178,107.551 105.561 C 105.635 107.313,92.308 103.074,80.437 96.936 C 67.610 90.304,52.014 79.807,50.475 76.771 C 46.775 69.470,43.601 42.601,46.138 40.064 C 46.401 39.801,58.959 45.424,66.163 49.030 C 89.112 60.521,110.693 75.795,122.502 88.905 C 125.361 92.079,125.273 91.816,123.633 92.308 C 119.952 93.411,121.222 94.741,125.006 93.746 C 127.770 93.019,144.635 91.016,147.992 91.016 C 150.088 91.016,170.103 93.222,172.460 93.713 C 188.783 97.111,208.064 108.421,220.783 122.059 C 224.370 125.905,225.368 126.541,225.636 125.150 C 225.718 124.726,224.539 123.298,221.898 120.620 L 218.041 116.709 217.806 111.839 C 216.998 95.068,223.584 63.184,232.740 39.548 C 234.348 35.395,233.955 35.489,237.830 38.336 M113.801 131.282 C 102.410 134.004,100.045 149.662,110.290 154.524 C 119.935 159.102,131.165 149.272,128.147 138.892 C 126.277 132.460,120.872 129.593,113.801 131.282 M122.396 134.478 C 125.022 135.575,126.120 139.355,124.511 141.764 C 121.777 145.856,115.404 143.958,115.404 139.051 C 115.404 135.498,119.081 133.093,122.396 134.478 M86.170 154.120 C 89.829 155.782,92.124 161.193,92.585 169.243 C 93.304 181.817,86.238 193.787,78.097 193.787 L 76.622 193.787 76.102 191.998 C 71.775 177.113,72.525 170.324,79.701 159.423 C 83.911 153.028,83.859 153.071,86.170 154.120 M198.843 155.866 C 194.986 156.538,191.017 160.318,189.923 164.358 C 186.483 177.068,201.078 186.849,209.985 177.803 C 218.454 169.202,210.636 153.809,198.843 155.866 M203.312 158.723 C 205.507 160.215,206.032 162.335,204.824 164.830 C 203.217 168.149,199.186 168.538,196.723 165.611 C 193.152 161.366,198.686 155.580,203.312 158.723 M152.356 159.478 C 150.308 161.741,154.429 164.316,157.531 162.712 C 159.195 161.851,157.923 159.756,155.487 159.346 C 154.848 159.238,154.005 159.087,153.616 159.009 C 153.210 158.929,152.672 159.129,152.356 159.478 M124.733 168.068 C 124.495 168.688,125.042 169.684,126.519 171.319 L 127.710 172.637 127.282 179.144 C 125.865 200.641,128.521 219.293,133.806 224.959 C 140.264 231.883,152.027 225.104,164.294 207.389 C 165.861 205.125,166.890 203.502,169.936 198.489 C 171.020 196.706,174.051 190.801,175.153 188.329 C 176.256 185.853,176.585 185.390,177.243 185.390 C 178.212 185.390,180.296 184.538,181.095 183.815 C 182.279 182.744,180.539 181.867,179.216 182.868 C 175.772 185.476,168.243 182.224,157.892 173.659 C 152.599 169.279,154.136 169.550,142.783 170.992 C 131.291 172.450,128.428 172.086,126.658 168.937 C 125.891 167.571,125.066 167.199,124.733 168.068 M156.507 175.012 C 162.099 179.851,167.783 183.429,171.956 184.736 C 174.207 185.441,174.217 185.024,171.820 190.178 L 169.836 194.443 168.665 192.088 C 166.457 187.650,161.326 183.075,155.697 180.523 C 148.037 177.050,135.321 177.237,129.691 180.904 C 128.960 181.380,128.917 181.373,129.082 180.801 C 129.180 180.462,129.363 178.711,129.489 176.910 C 129.748 173.226,129.728 173.244,132.798 173.956 C 134.134 174.266,142.511 173.428,145.760 172.660 C 151.441 171.316,152.506 171.549,156.507 175.012 M148.610 180.526 C 158.152 182.547,166.287 189.137,167.900 196.152 C 168.545 198.961,160.125 211.371,152.704 218.549 C 137.352 233.397,129.359 224.963,128.727 193.248 L 128.545 184.146 129.344 183.585 C 133.417 180.728,142.646 179.262,148.610 180.526 M223.729 199.500 L 224.957 199.846 224.807 202.610 C 224.128 215.137,219.595 223.766,209.245 232.234 C 206.608 234.392,206.666 234.382,204.006 233.124 C 190.013 226.504,208.389 195.179,223.729 199.500 M88.643 219.172 C 101.154 221.028,113.457 226.222,121.243 232.935 C 123.370 234.770,126.425 236.320,128.537 236.636 L 130.000 236.856 129.434 237.720 C 127.859 240.124,128.187 241.233,131.093 243.325 C 132.120 244.064,133.270 245.218,133.650 245.889 L 134.340 247.110 132.409 247.336 C 128.198 247.831,128.187 247.941,131.873 253.149 C 132.407 253.903,132.405 253.904,130.701 253.904 C 127.735 253.904,127.058 255.194,128.451 258.186 L 129.272 259.950 127.860 259.951 C 124.208 259.956,122.950 261.115,123.636 263.842 C 124.136 265.827,124.015 265.886,121.236 265.008 C 118.491 264.142,119.065 264.007,112.343 267.103 C 92.216 276.372,70.680 278.542,58.665 272.512 C 36.054 261.165,34.003 233.632,54.981 223.055 C 59.974 220.537,63.147 219.654,71.369 218.496 C 73.442 218.204,85.224 218.665,88.643 219.172 M286.986 232.748 C 306.550 234.161,309.559 234.536,323.594 237.304 C 347.074 241.935,370.683 248.958,386.907 256.138 C 392.272 258.512,397.045 261.004,397.058 261.438 C 397.082 262.214,347.101 312.388,346.444 312.248 C 346.068 312.167,329.976 307.465,310.685 301.798 C 291.394 296.132,275.437 291.562,275.224 291.644 C 275.012 291.725,269.722 300.572,263.469 311.303 C 257.215 322.034,251.940 330.814,251.747 330.814 C 251.553 330.814,247.865 329.738,243.550 328.423 C 236.925 326.403,235.636 326.103,235.258 326.492 C 234.784 326.980,234.670 328.074,233.231 345.916 C 232.762 351.728,232.310 356.551,232.226 356.635 C 232.142 356.719,227.476 355.452,221.856 353.819 L 211.637 350.852 209.556 344.848 C 208.411 341.546,207.553 338.767,207.648 338.671 C 207.744 338.576,210.509 339.345,213.793 340.379 C 221.428 342.785,220.907 343.240,219.965 334.983 C 216.989 308.921,216.426 302.939,216.947 302.940 C 217.232 302.941,222.582 303.924,228.837 305.123 C 235.091 306.323,240.256 307.305,240.314 307.305 C 240.615 307.305,241.601 302.732,247.007 276.287 C 250.248 260.428,253.005 247.280,253.133 247.068 C 253.261 246.857,256.005 243.162,259.231 238.858 L 265.096 231.032 266.805 231.223 C 267.745 231.328,276.826 232.014,286.986 232.748 M244.657 277.964 C 241.583 292.901,239.042 305.148,239.011 305.180 C 238.980 305.211,233.742 304.270,227.370 303.088 C 213.227 300.465,214.129 300.516,214.371 302.351 C 215.275 309.216,218.397 339.229,218.224 339.402 C 218.102 339.525,215.361 338.775,212.134 337.737 L 206.266 335.849 205.720 333.446 C 203.788 324.951,203.448 315.645,204.501 300.074 C 204.889 294.342,205.206 289.414,205.206 289.123 C 205.206 288.811,207.067 287.389,209.728 285.669 C 221.818 277.851,236.435 265.469,245.865 255.057 C 248.121 252.565,250.030 250.590,250.107 250.666 C 250.183 250.743,247.731 263.027,244.657 277.964 " stroke="none" fill="#0c0806" fill-rule="evenodd"></path><path id="path1" d="M232.783 40.050 C 224.222 62.125,218.187 90.107,218.153 107.887 L 218.136 116.530 222.116 120.520 C 226.154 124.569,226.763 125.646,225.146 125.878 C 224.616 125.954,223.057 124.602,218.936 120.491 C 201.503 103.102,184.803 95.141,159.891 92.347 L 147.994 91.012 137.389 92.188 C 130.366 92.966,126.001 93.607,124.465 94.086 C 122.227 94.784,122.130 94.788,121.697 94.196 C 121.097 93.375,121.899 92.456,123.472 92.161 C 125.048 91.865,125.038 91.846,120.841 87.481 C 108.512 74.656,90.499 61.844,69.353 50.860 C 61.470 46.765,46.547 39.991,46.192 40.346 C 44.735 41.802,46.140 64.152,47.824 66.307 C 48.028 66.568,60.663 74.219,75.903 83.309 C 105.950 101.231,104.831 100.543,107.376 102.677 C 109.109 104.130,109.137 104.139,110.147 103.617 C 111.731 102.798,111.354 103.567,109.320 105.305 C 108.304 106.172,107.473 107.075,107.473 107.311 C 107.473 107.546,106.286 109.254,104.834 111.105 C 100.076 117.177,96.938 123.147,92.385 134.793 C 90.166 140.468,87.618 146.532,86.723 148.269 L 85.095 151.426 86.603 152.002 C 93.724 154.721,96.868 169.391,92.967 181.696 C 90.519 189.419,85.617 194.562,79.744 195.568 C 77.195 196.005,77.170 195.275,79.980 202.351 C 83.377 210.904,86.562 216.739,87.993 217.036 C 88.640 217.170,91.158 217.659,93.589 218.121 C 104.268 220.154,114.817 224.966,122.586 231.350 C 125.421 233.679,127.496 234.776,129.471 234.992 C 132.851 235.360,133.029 235.642,131.580 238.319 L 130.537 240.244 131.492 241.006 C 134.094 243.081,143.651 245.499,153.988 246.698 C 156.759 247.019,159.151 247.394,159.304 247.530 C 160.180 248.308,148.928 254.749,144.920 255.764 C 141.212 256.703,138.594 255.390,135.465 251.021 C 134.300 249.394,134.049 249.216,132.914 249.210 C 131.481 249.201,131.347 249.493,132.362 250.410 C 135.301 253.068,134.579 255.919,130.967 255.919 C 129.377 255.919,129.387 255.844,130.647 258.323 C 132.355 261.685,131.752 262.507,127.796 262.207 L 125.273 262.017 125.462 263.418 C 125.566 264.189,125.717 265.149,125.798 265.552 C 126.303 268.061,124.722 268.530,120.874 267.014 L 118.993 266.273 115.500 267.945 C 97.745 276.441,84.981 278.974,68.841 277.203 L 66.986 277.000 66.019 280.481 C 65.487 282.396,59.570 299.458,52.870 318.397 C 46.171 337.336,40.413 354.112,40.076 355.677 C 38.248 364.160,40.476 374.673,45.264 380.159 L 46.560 381.644 46.422 378.647 C 45.973 368.936,49.087 368.231,68.010 373.758 L 79.765 377.192 89.505 378.045 C 98.219 378.807,99.740 378.858,103.946 378.527 C 109.381 378.098,114.732 377.573,115.701 377.373 C 116.071 377.296,118.413 376.907,120.907 376.508 C 123.401 376.109,126.272 375.573,127.288 375.318 C 128.304 375.062,130.269 374.693,131.654 374.497 C 133.039 374.301,135.231 373.980,136.524 373.783 C 143.135 372.778,164.027 373.120,170.445 374.338 C 181.191 376.379,183.641 376.997,187.909 378.747 C 195.876 382.013,201.624 386.412,204.088 391.127 C 205.276 393.402,205.338 393.397,207.796 390.838 C 212.770 385.658,214.095 382.073,214.094 373.804 L 214.092 367.926 209.155 351.805 C 204.115 335.349,203.247 331.976,202.462 325.777 C 201.885 321.226,201.867 299.411,202.436 294.897 C 202.914 291.098,203.112 291.358,200.536 292.399 C 196.646 293.970,195.636 292.896,196.595 288.212 C 198.212 280.314,206.247 269.972,214.535 265.120 C 218.681 262.693,257.274 237.842,258.183 237.015 C 258.597 236.638,260.561 233.786,262.549 230.676 C 266.675 224.223,266.593 224.279,270.484 225.187 C 273.272 225.838,273.188 225.908,272.667 223.387 C 272.176 221.008,272.200 220.966,274.207 220.740 C 275.047 220.645,275.735 220.531,275.735 220.486 C 275.735 220.440,275.506 219.755,275.226 218.962 C 274.549 217.042,274.806 216.443,276.601 215.757 C 278.547 215.014,278.574 214.944,277.585 213.215 C 276.212 210.813,276.645 209.455,278.936 208.979 L 280.223 208.712 277.266 206.287 C 273.843 203.481,273.733 203.445,273.680 205.122 C 273.602 207.595,273.282 208.396,272.373 208.396 L 271.537 208.396 271.635 204.908 C 271.689 202.990,271.951 200.496,272.218 199.367 C 272.484 198.237,272.704 197.200,272.707 197.061 C 272.710 196.923,271.149 196.809,269.240 196.809 C 250.080 196.809,227.220 203.820,226.042 210.056 C 223.397 224.062,211.504 236.270,191.744 245.264 C 189.420 246.322,187.218 247.187,186.850 247.187 C 186.483 247.187,185.513 247.411,184.695 247.685 C 183.064 248.230,176.955 249.275,176.728 249.048 C 176.530 248.850,178.265 248.157,182.200 246.860 C 184.047 246.252,185.709 245.642,185.894 245.506 C 186.079 245.369,188.195 244.395,190.596 243.341 C 194.175 241.770,204.198 236.046,204.198 235.573 C 204.198 235.502,203.467 235.073,202.573 234.620 C 200.615 233.628,198.996 231.859,197.951 229.570 C 192.393 217.395,210.399 194.209,223.048 197.255 L 224.937 197.709 225.169 194.824 C 225.532 190.317,226.437 185.554,229.582 171.620 C 233.266 155.298,233.630 150.676,231.890 142.301 C 231.466 140.259,231.435 139.576,231.747 139.199 C 232.061 138.822,232.022 138.201,231.571 136.358 C 230.784 133.147,230.944 132.562,234.634 125.191 C 242.957 108.562,253.620 78.315,255.114 67.095 L 255.683 62.822 254.751 60.714 C 250.895 51.998,244.129 43.220,237.502 38.336 C 234.029 35.775,234.508 35.601,232.783 40.050 M122.488 131.673 C 129.852 135.264,131.017 145.177,124.844 151.705 C 117.479 159.492,104.630 155.572,103.567 145.214 C 102.548 135.294,113.638 127.357,122.488 131.673 M204.800 156.014 C 213.448 158.582,216.575 171.108,210.240 177.806 C 205.521 182.796,197.334 182.585,192.720 177.354 C 184.065 167.541,192.635 152.401,204.800 156.014 M155.898 159.206 C 157.264 159.585,158.932 161.297,158.650 162.032 C 158.010 163.699,154.140 163.947,152.611 162.418 C 150.170 159.977,152.052 158.138,155.898 159.206 M126.968 168.964 C 128.476 171.921,131.259 172.226,143.073 170.730 C 153.651 169.391,153.087 169.309,157.087 172.748 C 167.647 181.826,174.504 184.903,179.149 182.646 C 180.396 182.040,180.738 181.991,181.173 182.351 C 182.381 183.355,180.935 184.790,178.015 185.483 C 177.084 185.704,176.322 185.999,176.322 186.137 C 176.322 186.697,171.213 196.860,169.944 198.825 C 169.765 199.102,168.368 201.325,166.841 203.766 C 155.455 221.958,142.557 231.353,135.470 226.616 C 128.905 222.228,125.502 203.799,127.018 180.831 L 127.548 172.796 126.655 171.788 C 124.371 169.212,123.909 168.159,124.833 167.642 C 125.671 167.173,126.231 167.520,126.968 168.964 M68.630 219.020 C 43.494 222.633,32.759 243.606,46.502 262.249 C 48.270 264.647,48.603 264.744,47.863 262.647 C 46.526 258.857,45.387 258.876,75.332 262.189 C 101.309 265.063,101.928 265.083,108.508 263.303 C 112.940 262.104,116.118 262.052,117.716 263.153 C 118.455 263.662,120.080 264.413,121.327 264.823 L 123.594 265.567 123.560 264.690 C 123.542 264.207,123.415 263.434,123.278 262.972 C 122.687 260.980,124.125 259.950,127.498 259.950 C 129.225 259.950,129.196 260.042,128.128 257.935 C 126.795 255.306,127.526 253.904,130.229 253.904 C 132.031 253.904,132.215 253.520,131.059 252.161 C 129.561 250.401,128.917 249.220,129.030 248.440 C 129.136 247.710,129.305 247.646,132.766 247.038 L 134.047 246.813 133.438 245.862 C 133.103 245.339,131.998 244.261,130.982 243.465 C 128.019 241.144,127.795 240.586,128.932 238.356 L 129.569 237.107 128.680 236.912 C 126.283 236.385,124.423 235.592,122.989 234.486 C 116.720 229.653,114.899 228.455,110.360 226.179 C 98.275 220.119,81.273 217.202,68.630 219.020 M259.101 239.358 L 253.132 247.315 247.045 277.026 C 242.391 299.749,240.828 306.820,240.400 307.090 C 239.985 307.352,237.030 306.902,228.873 305.334 C 222.841 304.174,217.852 303.279,217.787 303.344 C 217.721 303.409,224.331 308.492,232.475 314.640 C 240.618 320.787,247.394 325.695,247.532 325.545 C 247.671 325.395,250.658 311.746,254.170 295.214 C 260.247 266.616,261.695 260.723,263.102 258.864 C 263.622 258.176,300.549 278.349,310.495 284.755 C 323.036 292.831,335.674 302.430,343.613 309.908 C 344.839 311.062,346.147 312.007,346.520 312.007 C 347.270 312.007,397.121 261.798,396.833 261.332 C 396.603 260.959,388.381 256.930,384.520 255.297 C 364.271 246.736,334.184 238.675,307.305 234.612 C 304.476 234.184,268.488 231.402,265.784 231.402 C 265.245 231.402,263.612 233.346,259.101 239.358 M46.365 389.603 C 39.449 391.969,28.934 397.470,25.832 400.345 C 23.979 402.062,23.580 402.215,32.671 397.708 C 40.358 393.896,41.646 393.500,41.646 394.944 C 41.646 395.804,41.391 395.956,35.708 398.474 C 30.540 400.765,26.001 403.220,25.241 404.135 C 24.356 405.201,27.296 405.235,28.422 404.172 C 31.457 401.306,44.258 396.645,45.830 397.833 C 46.859 398.609,45.732 399.414,42.317 400.341 C 36.915 401.807,28.982 405.657,30.682 405.987 C 32.007 406.245,42.435 404.664,43.292 404.076 C 53.330 397.188,59.756 392.017,58.892 391.521 C 58.735 391.431,57.851 391.108,56.927 390.803 C 56.003 390.498,54.430 389.798,53.431 389.247 C 51.163 387.996,51.042 388.003,46.365 389.603 M214.508 400.017 C 214.255 400.983,212.635 401.542,204.730 403.393 C 197.721 405.033,193.567 406.566,191.484 408.280 L 190.692 408.931 203.116 411.716 C 210.035 413.266,217.827 415.239,220.701 416.168 C 236.654 421.325,237.830 419.249,223.168 411.812 C 214.775 407.556,213.534 406.664,215.361 406.205 C 217.267 405.727,231.735 413.410,234.425 416.328 C 235.725 417.738,237.723 418.459,237.367 417.390 C 237.153 416.749,225.678 408.862,221.882 406.747 C 218.408 404.812,217.775 404.039,219.021 403.253 C 219.816 402.752,222.396 404.104,229.028 408.496 C 232.089 410.523,234.291 411.842,233.921 411.427 C 232.676 410.030,220.871 402.497,216.241 400.145 C 214.716 399.371,214.678 399.368,214.508 400.017 " stroke="none" fill="#fbd31c" fill-rule="evenodd"></path><path id="path2" d="M80.181 158.815 C 72.765 169.945,71.841 176.679,75.802 190.722 L 76.690 193.870 78.642 193.693 C 83.472 193.255,87.587 189.443,90.322 182.873 C 94.605 172.585,92.342 156.923,86.166 154.119 C 83.978 153.125,83.967 153.133,80.181 158.815 M137.265 180.665 C 133.321 181.525,129.024 183.534,128.745 184.648 C 128.386 186.079,128.894 200.829,129.450 205.118 C 131.094 217.804,134.342 224.863,138.847 225.538 C 145.589 226.549,156.395 217.023,165.455 202.082 C 168.663 196.792,168.586 195.271,164.865 190.328 C 158.952 182.473,147.443 178.444,137.265 180.665 M216.564 199.806 C 202.603 205.266,193.612 226.620,202.817 232.458 C 205.930 234.432,206.556 234.401,209.328 232.134 C 219.148 224.103,223.997 215.197,224.567 204.144 L 224.786 199.891 223.476 199.528 C 221.515 198.983,218.342 199.111,216.564 199.806 " stroke="none" fill="#d73531" fill-rule="evenodd"></path><path id="path3" d="M47.691 66.981 C 47.691 67.599,48.790 72.063,49.312 73.568 C 50.876 78.072,51.291 78.474,61.488 85.390 C 81.453 98.931,103.988 108.392,107.962 104.900 L 108.955 104.027 107.962 103.218 C 104.499 100.396,47.691 66.241,47.691 66.981 M252.760 78.198 C 248.751 92.220,240.296 114.271,234.567 125.643 C 231.843 131.051,231.404 132.151,231.416 133.553 C 231.437 135.919,232.130 138.438,232.997 139.300 C 233.413 139.713,233.753 140.388,233.753 140.800 C 233.753 144.931,242.560 125.065,246.294 112.510 C 249.579 101.463,255.025 74.560,254.152 73.688 C 254.108 73.644,253.482 75.673,252.760 78.198 M237.280 250.769 C 226.012 258.059,216.093 264.384,215.238 264.826 C 205.417 269.900,194.358 286.288,196.677 292.332 C 197.133 293.519,202.855 291.996,202.855 290.689 C 202.855 290.242,202.640 290.280,201.524 290.922 C 200.251 291.654,200.167 291.662,199.598 291.094 C 198.728 290.224,199.284 289.574,202.290 287.946 C 210.701 283.392,223.481 273.830,234.185 264.080 C 237.793 260.795,258.941 237.022,257.848 237.482 C 257.803 237.500,248.547 243.480,237.280 250.769 M134.762 243.775 C 137.013 246.182,136.915 248.815,134.573 248.856 C 133.336 248.878,138.611 254.855,140.492 255.564 C 142.869 256.458,145.978 255.713,151.093 253.024 C 154.033 251.478,159.623 247.846,159.405 247.623 C 159.368 247.586,156.774 247.239,153.641 246.853 C 146.084 245.920,138.181 244.166,134.374 242.575 L 133.169 242.072 134.762 243.775 M262.547 260.380 C 261.077 263.484,260.551 265.713,254.057 296.312 C 250.577 312.710,247.619 326.085,247.482 326.035 C 247.346 325.985,240.626 320.957,232.549 314.861 C 224.472 308.766,217.565 303.566,217.199 303.307 C 216.558 302.854,216.541 302.892,216.735 304.315 C 216.847 305.128,217.496 311.026,218.178 317.421 L 219.418 329.049 220.194 328.169 C 220.740 327.549,220.980 327.437,221.006 327.792 C 221.043 328.310,221.125 328.690,221.510 330.143 C 221.632 330.605,221.749 331.247,221.770 331.570 C 221.790 331.893,221.943 332.158,222.109 332.158 C 222.276 332.158,222.336 332.450,222.243 332.808 C 222.149 333.165,222.259 333.529,222.486 333.617 C 222.768 333.725,223.150 332.715,223.685 330.448 C 224.396 327.434,224.986 326.181,224.975 327.708 C 224.972 328.031,225.124 328.892,225.311 329.620 C 225.498 330.349,225.580 331.061,225.493 331.202 C 225.405 331.343,225.481 331.729,225.661 332.060 C 225.841 332.391,226.087 333.115,226.209 333.669 C 226.417 334.621,226.520 334.497,228.080 331.402 C 229.486 328.610,230.562 327.003,229.941 328.621 C 229.837 328.892,229.907 329.209,230.095 329.326 C 230.284 329.442,230.396 329.938,230.345 330.428 C 230.293 330.918,230.370 331.510,230.514 331.744 C 230.659 331.978,230.744 332.507,230.704 332.919 C 230.664 333.332,230.746 333.936,230.886 334.262 C 231.027 334.588,231.064 335.155,230.968 335.521 C 230.411 337.652,231.444 335.998,232.255 333.461 C 233.115 330.768,233.977 329.090,233.692 330.662 C 233.633 330.985,233.774 331.315,234.005 331.395 C 234.308 331.501,234.425 331.026,234.425 329.689 C 234.425 325.390,234.309 325.405,244.167 328.433 C 250.901 330.502,251.766 330.697,252.134 330.226 C 252.361 329.936,257.554 321.108,263.676 310.609 C 273.300 294.101,274.910 291.520,275.581 291.520 C 276.008 291.520,291.809 296.053,310.696 301.593 C 329.583 307.134,345.083 311.620,345.141 311.562 C 345.317 311.386,338.031 304.975,333.885 301.658 C 326.666 295.883,316.063 288.403,307.267 282.880 C 304.268 280.997,265.145 259.229,263.944 258.775 C 263.539 258.622,263.189 259.024,262.547 260.380 M49.202 259.901 C 44.362 260.681,50.448 268.412,59.145 272.532 C 69.258 277.324,89.600 276.300,104.670 270.240 C 108.899 268.540,115.699 265.445,116.699 264.766 C 117.064 264.518,117.657 264.316,118.017 264.316 C 118.637 264.316,118.631 264.271,117.906 263.499 C 116.492 261.994,113.894 262.048,107.473 263.716 C 102.061 265.122,98.506 264.971,74.727 262.327 C 48.796 259.443,50.840 259.637,49.202 259.901 M50.409 370.554 C 47.755 371.559,46.509 374.436,46.749 379.003 C 46.927 382.391,47.119 382.665,51.255 385.422 C 55.331 388.139,57.824 389.175,63.224 390.400 C 64.264 390.635,64.390 391.115,63.634 391.951 C 63.176 392.457,62.921 392.472,61.282 392.091 L 59.445 391.664 57.514 393.772 C 56.331 395.064,53.439 397.381,50.042 399.761 C 46.994 401.896,44.214 403.858,43.864 404.120 C 42.988 404.776,69.826 401.330,74.462 400.191 C 80.072 398.813,82.620 397.285,82.620 395.299 L 82.620 394.423 77.834 394.852 C 73.463 395.244,73.012 395.233,72.631 394.726 C 71.885 393.732,73.004 392.950,75.199 392.931 C 76.232 392.922,85.088 392.156,94.878 391.228 C 104.668 390.300,113.434 389.472,114.358 389.388 C 115.281 389.304,122.313 389.149,129.984 389.043 L 143.932 388.851 144.410 389.745 C 145.225 391.268,144.765 391.332,134.173 391.162 C 128.816 391.076,124.660 391.062,124.937 391.131 C 125.214 391.199,137.003 393.244,151.134 395.674 C 182.272 401.028,185.099 401.219,194.997 398.626 C 197.815 397.888,198.570 398.029,198.423 399.268 C 198.245 400.768,189.840 402.351,182.051 402.351 L 178.074 402.351 177.855 403.226 C 177.321 405.352,178.846 406.245,185.635 407.778 L 190.191 408.808 191.401 408.075 C 195.063 405.857,198.141 404.741,204.767 403.227 C 216.875 400.460,217.258 399.699,208.164 396.476 L 205.580 395.561 204.637 396.214 C 203.019 397.335,202.843 397.399,203.081 396.778 C 203.216 396.426,203.075 396.045,202.711 395.778 C 202.175 395.386,202.245 395.267,203.496 394.439 C 205.166 393.333,205.171 393.242,203.675 390.744 C 197.789 380.918,182.857 375.105,159.698 373.623 C 145.636 372.724,139.407 373.130,125.945 375.825 C 110.510 378.914,103.135 379.374,88.665 378.147 L 80.437 377.449 68.178 373.953 C 55.441 370.321,52.507 369.760,50.409 370.554 " stroke="none" fill="#e09324" fill-rule="evenodd"></path><path id="path4" d="M117.884 134.885 C 114.971 136.709,114.756 141.057,117.487 142.912 C 121.271 145.484,126.273 142.027,124.986 137.731 C 124.121 134.842,120.359 133.334,117.884 134.885 M198.657 158.325 C 195.216 159.854,194.784 164.686,197.917 166.596 C 199.416 167.510,202.131 167.488,203.320 166.553 C 207.727 163.087,203.746 156.063,198.657 158.325 " stroke="none" fill="#dbdbda" fill-rule="evenodd"></path><path id="path5" d="M259.038 26.029 C 259.041 26.952,259.106 27.290,259.183 26.780 C 259.260 26.269,259.258 25.513,259.178 25.100 C 259.099 24.687,259.036 25.105,259.038 26.029 M0.756 26.428 C 1.079 26.512,1.608 26.512,1.931 26.428 C 2.254 26.344,1.990 26.274,1.343 26.274 C 0.697 26.274,0.432 26.344,0.756 26.428 M259.043 45.004 C 259.043 46.020,259.106 46.436,259.183 45.928 C 259.260 45.420,259.260 44.589,259.183 44.081 C 259.106 43.573,259.043 43.988,259.043 45.004 M258.698 51.385 C 258.698 52.217,258.763 52.557,258.843 52.141 C 258.923 51.725,258.923 51.045,258.843 50.630 C 258.763 50.214,258.698 50.554,258.698 51.385 M258.348 56.423 C 258.348 57.070,258.417 57.334,258.502 57.011 C 258.586 56.688,258.586 56.159,258.502 55.835 C 258.417 55.512,258.348 55.777,258.348 56.423 M140.811 89.242 C 141.321 89.319,142.077 89.317,142.490 89.237 C 142.903 89.158,142.485 89.094,141.562 89.097 C 140.638 89.099,140.300 89.165,140.811 89.242 M153.736 89.238 C 154.152 89.318,154.832 89.318,155.248 89.238 C 155.663 89.158,155.323 89.092,154.492 89.092 C 153.661 89.092,153.321 89.158,153.736 89.238 M216.054 104.786 C 216.054 105.802,216.117 106.217,216.194 105.709 C 216.270 105.202,216.270 104.370,216.194 103.862 C 216.117 103.354,216.054 103.770,216.054 104.786 M217.717 105.626 C 217.721 106.364,217.789 106.627,217.870 106.209 C 217.950 105.792,217.947 105.187,217.863 104.866 C 217.779 104.545,217.713 104.887,217.717 105.626 M216.044 113.518 C 216.044 114.349,216.110 114.689,216.190 114.274 C 216.270 113.858,216.270 113.178,216.190 112.762 C 216.110 112.347,216.044 112.687,216.044 113.518 M218.976 120.403 C 219.602 121.050,220.191 121.579,220.283 121.579 C 220.375 121.579,219.938 121.050,219.312 120.403 C 218.685 119.757,218.097 119.228,218.004 119.228 C 217.912 119.228,218.349 119.757,218.976 120.403 M119.983 134.237 C 120.306 134.321,120.835 134.321,121.159 134.237 C 121.482 134.152,121.217 134.083,120.571 134.083 C 119.924 134.083,119.660 134.152,119.983 134.237 M103.527 143.913 C 103.531 144.652,103.600 144.914,103.680 144.497 C 103.760 144.079,103.757 143.474,103.673 143.153 C 103.589 142.832,103.523 143.174,103.527 143.913 M119.819 143.982 C 120.237 144.063,120.842 144.060,121.163 143.976 C 121.484 143.891,121.142 143.826,120.403 143.829 C 119.664 143.833,119.401 143.902,119.819 143.982 M205.284 162.552 C 205.284 163.199,205.353 163.463,205.437 163.140 C 205.522 162.817,205.522 162.288,205.437 161.965 C 205.353 161.641,205.284 161.906,205.284 162.552 M213.358 168.262 C 213.358 169.093,213.423 169.433,213.503 169.018 C 213.583 168.602,213.583 167.922,213.503 167.506 C 213.423 167.091,213.358 167.431,213.358 168.262 M200.084 167.491 C 200.500 167.571,201.180 167.571,201.595 167.491 C 202.011 167.411,201.671 167.346,200.840 167.346 C 200.008 167.346,199.668 167.411,200.084 167.491 M92.444 169.102 C 92.448 169.840,92.517 170.103,92.597 169.685 C 92.677 169.268,92.674 168.663,92.590 168.342 C 92.506 168.021,92.440 168.363,92.444 169.102 M148.447 172.183 C 147.800 172.249,146.591 172.463,145.760 172.660 C 142.511 173.428,134.134 174.266,132.798 173.956 C 129.728 173.244,129.748 173.226,129.489 176.910 C 129.363 178.711,129.180 180.462,129.082 180.801 C 128.917 181.373,128.960 181.380,129.691 180.904 C 135.321 177.237,148.037 177.050,155.697 180.523 C 161.326 183.075,166.457 187.650,168.665 192.088 L 169.836 194.443 171.820 190.178 C 174.217 185.024,174.207 185.441,171.956 184.736 C 167.783 183.429,162.099 179.851,156.507 175.012 C 152.657 171.680,152.825 171.739,148.447 172.183 M71.647 176.154 C 71.648 177.448,71.709 177.935,71.782 177.239 C 71.854 176.542,71.853 175.484,71.779 174.888 C 71.705 174.291,71.645 174.861,71.647 176.154 M175.571 183.613 C 175.988 183.693,176.593 183.690,176.914 183.606 C 177.235 183.522,176.893 183.456,176.154 183.460 C 175.416 183.464,175.153 183.533,175.571 183.613 M126.724 189.757 C 126.724 190.957,126.785 191.448,126.859 190.848 C 126.934 190.248,126.934 189.265,126.859 188.665 C 126.785 188.065,126.724 188.556,126.724 189.757 M269.276 194.702 C 269.879 194.777,270.786 194.775,271.291 194.698 C 271.795 194.622,271.301 194.561,270.193 194.563 C 269.085 194.564,268.672 194.627,269.276 194.702 M262.221 195.032 C 262.638 195.112,263.243 195.109,263.564 195.025 C 263.885 194.941,263.543 194.875,262.804 194.879 C 262.065 194.883,261.803 194.951,262.221 195.032 M270.277 196.711 C 270.693 196.791,271.373 196.791,271.788 196.711 C 272.204 196.631,271.864 196.565,271.033 196.565 C 270.202 196.565,269.861 196.631,270.277 196.711 M226.456 202.519 C 226.456 203.350,226.521 203.690,226.601 203.275 C 226.681 202.859,226.681 202.179,226.601 201.763 C 226.521 201.348,226.456 201.688,226.456 202.519 M74.307 216.533 C 75.000 216.606,76.134 216.606,76.826 216.533 C 77.519 216.461,76.952 216.402,75.567 216.402 C 74.181 216.402,73.615 216.461,74.307 216.533 M81.024 216.856 C 81.348 216.941,81.877 216.941,82.200 216.856 C 82.523 216.772,82.259 216.703,81.612 216.703 C 80.966 216.703,80.701 216.772,81.024 216.856 M269.102 229.619 C 269.425 229.703,269.954 229.703,270.277 229.619 C 270.600 229.534,270.336 229.465,269.689 229.465 C 269.043 229.465,268.778 229.534,269.102 229.619 M213.584 230.982 L 212.427 232.242 213.686 231.084 C 214.858 230.007,215.100 229.723,214.843 229.723 C 214.787 229.723,214.221 230.290,213.584 230.982 M277.498 230.290 C 277.821 230.375,278.350 230.375,278.673 230.290 C 278.997 230.206,278.732 230.137,278.086 230.137 C 277.439 230.137,277.175 230.206,277.498 230.290 M281.864 230.626 C 282.187 230.711,282.716 230.711,283.039 230.626 C 283.363 230.542,283.098 230.473,282.452 230.473 C 281.805 230.473,281.541 230.542,281.864 230.626 M285.894 230.962 C 286.217 231.046,286.746 231.046,287.070 230.962 C 287.393 230.878,287.128 230.808,286.482 230.808 C 285.835 230.808,285.571 230.878,285.894 230.962 M290.260 231.298 C 290.584 231.382,291.113 231.382,291.436 231.298 C 291.759 231.213,291.495 231.144,290.848 231.144 C 290.202 231.144,289.937 231.213,290.260 231.298 M298.657 231.970 C 298.980 232.054,299.509 232.054,299.832 231.970 C 300.155 231.885,299.891 231.816,299.244 231.816 C 298.598 231.816,298.333 231.885,298.657 231.970 M303.023 232.305 C 303.346 232.390,303.875 232.390,304.198 232.305 C 304.521 232.221,304.257 232.152,303.610 232.152 C 302.964 232.152,302.699 232.221,303.023 232.305 M38.402 245.676 C 38.404 247.154,38.463 247.716,38.534 246.926 C 38.604 246.137,38.603 244.927,38.531 244.240 C 38.459 243.552,38.401 244.198,38.402 245.676 M238.455 260.118 C 237.639 260.949,237.047 261.629,237.140 261.629 C 237.232 261.629,237.975 260.949,238.791 260.118 C 239.607 259.286,240.199 258.606,240.106 258.606 C 240.014 258.606,239.271 259.286,238.455 260.118 M128.048 262.206 C 128.559 262.283,129.314 262.281,129.728 262.201 C 130.141 262.121,129.723 262.058,128.799 262.061 C 127.876 262.063,127.538 262.129,128.048 262.206 M388.574 272.628 L 385.726 275.567 388.665 272.719 C 390.281 271.153,391.604 269.831,391.604 269.781 C 391.604 269.536,391.218 269.899,388.574 272.628 M384.544 274.307 L 381.360 277.582 384.635 274.398 C 387.676 271.441,388.062 271.033,387.819 271.033 C 387.769 271.033,386.295 272.506,384.544 274.307 M367.913 292.947 L 366.247 294.710 368.010 293.044 C 368.980 292.127,369.773 291.334,369.773 291.280 C 369.773 291.030,369.462 291.309,367.913 292.947 M204.961 293.199 C 204.961 294.030,205.027 294.370,205.107 293.955 C 205.187 293.539,205.187 292.859,205.107 292.443 C 205.027 292.028,204.961 292.368,204.961 293.199 M359.355 299.832 L 356.171 303.107 359.446 299.923 C 362.487 296.965,362.873 296.558,362.630 296.558 C 362.580 296.558,361.106 298.031,359.355 299.832 M204.619 298.405 C 204.622 299.144,204.691 299.406,204.772 298.989 C 204.852 298.571,204.849 297.966,204.765 297.645 C 204.681 297.324,204.615 297.666,204.619 298.405 M201.925 303.275 C 201.925 303.921,201.994 304.186,202.079 303.862 C 202.163 303.539,202.163 303.010,202.079 302.687 C 201.994 302.364,201.925 302.628,201.925 303.275 M204.283 303.442 C 204.287 304.181,204.355 304.444,204.436 304.026 C 204.516 303.609,204.513 303.004,204.429 302.683 C 204.345 302.362,204.279 302.704,204.283 303.442 M203.947 308.480 C 203.951 309.219,204.020 309.482,204.100 309.064 C 204.180 308.646,204.177 308.042,204.093 307.721 C 204.009 307.400,203.943 307.741,203.947 308.480 M201.932 317.212 C 201.936 317.951,202.004 318.214,202.085 317.796 C 202.165 317.378,202.162 316.774,202.078 316.453 C 201.994 316.132,201.928 316.474,201.932 317.212 M203.947 321.243 C 203.951 321.982,204.020 322.244,204.100 321.826 C 204.180 321.409,204.177 320.804,204.093 320.483 C 204.009 320.162,203.943 320.504,203.947 321.243 M223.676 331.158 C 222.658 335.471,222.605 335.479,221.659 331.471 C 220.824 327.934,220.730 327.787,219.893 328.715 C 219.410 329.251,219.421 329.833,220.026 335.320 C 220.893 343.190,221.402 342.777,213.793 340.379 C 210.509 339.345,207.744 338.576,207.648 338.671 C 207.553 338.767,208.411 341.546,209.556 344.848 L 211.637 350.852 221.856 353.819 C 227.476 355.452,232.142 356.719,232.226 356.635 C 232.310 356.551,232.766 351.576,233.240 345.580 C 233.714 339.583,234.195 334.164,234.309 333.537 C 234.457 332.728,234.407 332.465,234.135 332.633 C 233.898 332.779,233.753 332.614,233.753 332.197 C 233.753 330.605,233.073 331.342,232.243 333.835 C 231.090 337.294,230.927 337.227,230.408 333.081 C 229.819 328.373,229.752 328.337,228.044 331.821 C 226.110 335.766,226.122 335.774,225.158 329.975 C 224.751 327.523,224.484 327.736,223.676 331.158 M236.182 331.150 C 236.182 331.797,236.251 332.061,236.336 331.738 C 236.420 331.415,236.420 330.886,236.336 330.563 C 236.251 330.239,236.182 330.504,236.182 331.150 M235.846 335.516 C 235.846 336.163,235.915 336.427,236.000 336.104 C 236.084 335.781,236.084 335.252,236.000 334.929 C 235.915 334.605,235.846 334.870,235.846 335.516 M235.510 340.218 C 235.510 340.865,235.579 341.129,235.664 340.806 C 235.748 340.483,235.748 339.954,235.664 339.631 C 235.579 339.307,235.510 339.572,235.510 340.218 M235.174 344.584 C 235.174 345.231,235.244 345.495,235.328 345.172 C 235.413 344.849,235.413 344.320,235.328 343.997 C 235.244 343.673,235.174 343.938,235.174 344.584 M234.839 348.950 C 234.839 349.597,234.908 349.861,234.992 349.538 C 235.077 349.215,235.077 348.686,234.992 348.363 C 234.908 348.039,234.839 348.304,234.839 348.950 M234.510 353.484 C 234.513 354.223,234.582 354.486,234.662 354.068 C 234.743 353.651,234.740 353.046,234.656 352.725 C 234.572 352.404,234.506 352.746,234.510 353.484 M37.358 360.034 C 37.358 360.680,37.427 360.945,37.511 360.621 C 37.596 360.298,37.596 359.769,37.511 359.446 C 37.427 359.123,37.358 359.387,37.358 360.034 M37.358 365.071 C 37.358 365.718,37.427 365.982,37.511 365.659 C 37.596 365.336,37.596 364.807,37.511 364.484 C 37.427 364.160,37.358 364.425,37.358 365.071 M45.340 383.375 C 45.967 384.022,46.555 384.551,46.647 384.551 C 46.740 384.551,46.303 384.022,45.676 383.375 C 45.049 382.729,44.461 382.200,44.369 382.200 C 44.276 382.200,44.713 382.729,45.340 383.375 M138.623 389.164 C 139.593 389.232,141.180 389.232,142.149 389.164 C 143.119 389.097,142.326 389.041,140.386 389.041 C 138.447 389.041,137.653 389.097,138.623 389.164 M136.272 391.175 C 136.872 391.249,137.855 391.249,138.455 391.175 C 139.055 391.100,138.564 391.039,137.364 391.039 C 136.163 391.039,135.672 391.100,136.272 391.175 M208.882 392.527 L 207.725 393.787 208.984 392.629 C 210.156 391.552,210.398 391.268,210.141 391.268 C 210.085 391.268,209.519 391.835,208.882 392.527 M110.915 391.835 C 111.238 391.920,111.767 391.920,112.091 391.835 C 112.414 391.751,112.149 391.682,111.503 391.682 C 110.856 391.682,110.592 391.751,110.915 391.835 M99.160 392.843 C 99.484 392.927,100.013 392.927,100.336 392.843 C 100.659 392.758,100.395 392.689,99.748 392.689 C 99.102 392.689,98.837 392.758,99.160 392.843 M91.436 393.514 C 91.759 393.599,92.288 393.599,92.611 393.514 C 92.935 393.430,92.670 393.361,92.024 393.361 C 91.377 393.361,91.113 393.430,91.436 393.514 M84.299 395.130 C 84.299 395.777,84.358 396.306,84.430 396.306 C 84.502 396.306,84.623 395.777,84.699 395.130 C 84.774 394.484,84.715 393.955,84.567 393.955 C 84.420 393.955,84.299 394.484,84.299 395.130 M203.079 396.222 C 203.290 397.060,203.696 397.198,204.064 396.558 C 204.197 396.327,204.183 396.249,204.033 396.384 C 203.883 396.520,203.564 396.369,203.324 396.049 C 202.930 395.522,202.906 395.538,203.079 396.222 M175.747 403.526 C 175.749 404.450,175.815 404.788,175.892 404.277 C 175.969 403.767,175.967 403.011,175.887 402.598 C 175.807 402.185,175.744 402.603,175.747 403.526 M25.781 406.955 C 26.198 407.035,26.803 407.032,27.124 406.948 C 27.445 406.864,27.103 406.798,26.364 406.802 C 25.626 406.805,25.363 406.874,25.781 406.955 M31.318 407.956 C 31.641 408.041,32.170 408.041,32.494 407.956 C 32.817 407.872,32.552 407.803,31.906 407.803 C 31.259 407.803,30.995 407.872,31.318 407.956 M235.383 417.885 C 235.552 418.054,236.048 418.137,236.485 418.068 C 237.157 417.962,237.110 417.915,236.178 417.760 C 235.510 417.650,235.197 417.699,235.383 417.885 " stroke="none" fill="#6c6c6c" fill-rule="evenodd"></path><path id="path6" d="M24.013 57.767 C 24.735 58.505,25.401 59.110,25.493 59.110 C 25.586 59.110,25.071 58.505,24.349 57.767 C 23.628 57.028,22.962 56.423,22.870 56.423 C 22.777 56.423,23.292 57.028,24.013 57.767 M120.067 83.627 C 120.789 84.366,121.455 84.971,121.547 84.971 C 121.639 84.971,121.125 84.366,120.403 83.627 C 119.682 82.888,119.016 82.284,118.923 82.284 C 118.831 82.284,119.346 82.888,120.067 83.627 M119.731 86.314 C 120.453 87.053,121.119 87.657,121.211 87.657 C 121.303 87.657,120.789 87.053,120.067 86.314 C 119.346 85.575,118.680 84.971,118.587 84.971 C 118.495 84.971,119.010 85.575,119.731 86.314 M109.970 104.534 L 108.984 105.626 110.076 104.639 C 111.093 103.720,111.321 103.442,111.062 103.442 C 111.004 103.442,110.513 103.934,109.970 104.534 M217.736 108.648 C 217.738 109.757,217.801 110.169,217.876 109.566 C 217.950 108.962,217.949 108.055,217.872 107.551 C 217.796 107.046,217.734 107.540,217.736 108.648 M221.830 120.571 C 223.856 122.603,225.589 124.265,225.681 124.265 C 225.774 124.265,224.192 122.603,222.166 120.571 C 220.141 118.539,218.408 116.877,218.315 116.877 C 218.223 116.877,219.805 118.539,221.830 120.571 M107.620 134.425 L 106.633 135.516 107.725 134.530 C 108.325 133.987,108.816 133.496,108.816 133.438 C 108.816 133.179,108.539 133.407,107.620 134.425 M128.716 142.233 C 128.720 142.972,128.789 143.235,128.869 142.817 C 128.949 142.399,128.946 141.795,128.862 141.474 C 128.778 141.153,128.712 141.495,128.716 142.233 M232.824 150.462 C 232.824 151.108,232.893 151.373,232.977 151.050 C 233.062 150.726,233.062 150.197,232.977 149.874 C 232.893 149.551,232.824 149.815,232.824 150.462 M232.830 154.660 C 232.834 155.399,232.903 155.662,232.983 155.244 C 233.063 154.826,233.060 154.221,232.976 153.900 C 232.892 153.579,232.827 153.921,232.830 154.660 M154.576 163.456 C 154.899 163.540,155.428 163.540,155.751 163.456 C 156.075 163.371,155.810 163.302,155.164 163.302 C 154.517 163.302,154.253 163.371,154.576 163.456 M189.181 168.094 C 189.183 169.018,189.249 169.356,189.326 168.845 C 189.403 168.335,189.401 167.579,189.321 167.166 C 189.242 166.753,189.178 167.170,189.181 168.094 M94.503 171.453 C 94.503 173.669,94.558 174.532,94.623 173.371 C 94.689 172.209,94.689 170.395,94.622 169.340 C 94.556 168.285,94.502 169.236,94.503 171.453 M192.107 176.763 C 192.107 176.821,192.599 177.312,193.199 177.855 L 194.291 178.841 193.304 177.750 C 192.385 176.732,192.107 176.504,192.107 176.763 M126.717 186.062 C 126.717 187.078,126.780 187.494,126.857 186.986 C 126.934 186.478,126.934 185.647,126.857 185.139 C 126.780 184.631,126.717 185.046,126.717 186.062 M126.717 193.451 C 126.717 194.467,126.780 194.882,126.857 194.374 C 126.934 193.866,126.934 193.035,126.857 192.527 C 126.780 192.019,126.717 192.435,126.717 193.451 M78.002 195.698 C 78.325 195.782,78.854 195.782,79.177 195.698 C 79.500 195.613,79.236 195.544,78.589 195.544 C 77.943 195.544,77.678 195.613,78.002 195.698 M220.067 197.041 C 220.390 197.125,220.919 197.125,221.243 197.041 C 221.566 196.956,221.301 196.887,220.655 196.887 C 220.008 196.887,219.744 196.956,220.067 197.041 M74.811 218.550 C 75.596 218.621,76.881 218.621,77.666 218.550 C 78.451 218.479,77.809 218.421,76.238 218.421 C 74.668 218.421,74.026 218.479,74.811 218.550 M196.910 224.349 C 196.910 225.365,196.973 225.781,197.050 225.273 C 197.127 224.765,197.127 223.934,197.050 223.426 C 196.973 222.918,196.910 223.333,196.910 224.349 M132.997 224.454 C 132.997 224.512,133.489 225.003,134.089 225.546 L 135.181 226.532 134.194 225.441 C 133.275 224.423,132.997 224.195,132.997 224.454 M395.634 262.804 C 394.818 263.636,394.226 264.316,394.319 264.316 C 394.411 264.316,395.154 263.636,395.970 262.804 C 396.786 261.973,397.377 261.293,397.285 261.293 C 397.193 261.293,396.450 261.973,395.634 262.804 M383.207 277.918 C 381.831 279.303,380.781 280.437,380.873 280.437 C 380.966 280.437,382.167 279.303,383.543 277.918 C 384.919 276.532,385.970 275.399,385.877 275.399 C 385.785 275.399,384.584 276.532,383.207 277.918 M375.144 283.711 L 368.934 290.008 375.231 283.799 C 378.694 280.383,381.528 277.549,381.528 277.501 C 381.528 277.262,380.913 277.860,375.144 283.711 M351.465 307.725 L 346.767 312.510 351.553 307.813 C 355.999 303.449,356.491 302.939,356.251 302.939 C 356.202 302.939,354.048 305.092,351.465 307.725 M214.365 373.804 C 214.365 374.635,214.431 374.975,214.511 374.559 C 214.591 374.144,214.591 373.463,214.511 373.048 C 214.431 372.632,214.365 372.972,214.365 373.804 M132.242 391.175 C 132.842 391.249,133.825 391.249,134.425 391.175 C 135.025 391.100,134.534 391.039,133.333 391.039 C 132.133 391.039,131.641 391.100,132.242 391.175 M177.750 400.232 C 178.073 400.316,178.602 400.316,178.925 400.232 C 179.249 400.147,178.984 400.078,178.338 400.078 C 177.691 400.078,177.427 400.147,177.750 400.232 M234.425 411.923 C 235.051 412.569,235.640 413.098,235.732 413.098 C 235.824 413.098,235.387 412.569,234.761 411.923 C 234.134 411.276,233.546 410.747,233.453 410.747 C 233.361 410.747,233.798 411.276,234.425 411.923 " stroke="none" fill="#bca414" fill-rule="evenodd"></path><path id="path7" d="M231.151 133.837 C 231.155 134.576,231.224 134.839,231.304 134.421 C 231.384 134.003,231.381 133.399,231.297 133.078 C 231.213 132.756,231.147 133.098,231.151 133.837 M48.783 259.845 C 49.106 259.930,49.635 259.930,49.958 259.845 C 50.281 259.761,50.017 259.692,49.370 259.692 C 48.724 259.692,48.459 259.761,48.783 259.845 M196.222 290.680 C 196.226 291.419,196.295 291.682,196.375 291.264 C 196.456 290.846,196.453 290.242,196.368 289.921 C 196.284 289.599,196.219 289.941,196.222 290.680 M149.207 373.037 C 149.717 373.114,150.473 373.112,150.886 373.032 C 151.299 372.953,150.882 372.890,149.958 372.892 C 149.034 372.895,148.696 372.960,149.207 373.037 M141.646 373.375 C 142.246 373.449,143.228 373.449,143.829 373.375 C 144.429 373.300,143.938 373.239,142.737 373.239 C 141.537 373.239,141.045 373.300,141.646 373.375 M154.744 373.369 C 155.160 373.449,155.840 373.449,156.255 373.369 C 156.671 373.289,156.331 373.223,155.500 373.223 C 154.668 373.223,154.328 373.289,154.744 373.369 M160.453 373.705 C 160.869 373.785,161.549 373.785,161.965 373.705 C 162.380 373.625,162.040 373.559,161.209 373.559 C 160.378 373.559,160.038 373.625,160.453 373.705 M165.831 374.041 C 166.249 374.121,166.853 374.118,167.174 374.034 C 167.495 373.950,167.154 373.884,166.415 373.888 C 165.676 373.892,165.413 373.961,165.831 374.041 M91.436 378.401 C 91.759 378.486,92.288 378.486,92.611 378.401 C 92.935 378.317,92.670 378.248,92.024 378.248 C 91.377 378.248,91.113 378.317,91.436 378.401 M95.466 378.737 C 95.789 378.821,96.318 378.821,96.641 378.737 C 96.965 378.652,96.700 378.583,96.054 378.583 C 95.407 378.583,95.143 378.652,95.466 378.737 M200.490 386.650 C 201.882 388.133,202.183 388.399,202.183 388.147 C 202.183 388.093,201.465 387.375,200.588 386.552 L 198.992 385.055 200.490 386.650 " stroke="none" fill="#dda622" fill-rule="evenodd"></path><path id="path8" d="M48.531 371.274 C 47.976 371.728,47.652 372.106,47.810 372.112 C 47.969 372.119,48.547 371.746,49.096 371.285 C 49.644 370.823,49.969 370.446,49.816 370.447 C 49.663 370.448,49.085 370.820,48.531 371.274 M46.465 377.834 C 46.465 379.404,46.523 380.046,46.594 379.261 C 46.664 378.476,46.664 377.191,46.594 376.406 C 46.523 375.621,46.465 376.264,46.465 377.834 M180.185 376.445 C 180.554 376.607,181.385 376.835,182.032 376.952 C 182.839 377.099,182.997 377.073,182.536 376.871 C 182.166 376.710,181.335 376.482,180.688 376.364 C 179.882 376.218,179.724 376.243,180.185 376.445 M108.312 378.170 L 106.633 378.400 108.144 378.428 C 108.976 378.443,110.336 378.335,111.167 378.187 L 112.678 377.918 111.335 377.929 C 110.596 377.934,109.236 378.043,108.312 378.170 M103.359 378.748 C 103.959 378.823,104.941 378.823,105.542 378.748 C 106.142 378.674,105.651 378.613,104.450 378.613 C 103.249 378.613,102.758 378.674,103.359 378.748 M57.252 393.649 C 56.150 394.774,54.379 396.291,53.317 397.020 C 52.254 397.749,51.385 398.421,51.385 398.514 C 51.385 398.972,55.511 395.762,57.421 393.817 C 58.616 392.600,59.518 391.604,59.426 391.604 C 59.333 391.604,58.355 392.524,57.252 393.649 M49.874 399.526 L 48.866 400.391 49.958 399.669 C 50.558 399.272,51.050 398.881,51.050 398.802 C 51.050 398.550,50.907 398.638,49.874 399.526 M47.523 401.205 L 46.516 402.071 47.607 401.348 C 48.207 400.951,48.699 400.561,48.699 400.481 C 48.699 400.230,48.556 400.317,47.523 401.205 M44.574 403.164 C 42.591 404.536,42.120 405.017,43.582 404.175 C 44.710 403.525,46.647 402.034,46.348 402.046 C 46.255 402.049,45.457 402.552,44.574 403.164 " stroke="none" fill="#efc76a" fill-rule="evenodd"></path></g></svg>