<svg id="svg" version="1.1" xmlns="http://www.w3.org/2000/svg" xmlns:xlink="http://www.w3.org/1999/xlink" width="400" height="400" viewBox="0, 0, 400,400"><g id="svgg"><path id="path0" d="M196.600 65.459 C 134.611 70.543,83.719 113.711,68.989 173.703 C 67.665 179.094,65.600 191.454,65.600 193.987 L 65.600 195.200 106.927 195.200 L 148.255 195.200 149.352 191.300 C 159.508 155.218,199.423 137.179,233.075 153.464 C 249.448 161.387,259.774 174.128,265.280 193.200 L 265.800 195.000 307.152 195.102 L 348.504 195.204 348.217 191.902 C 341.802 117.923,271.525 59.315,196.600 65.459 " stroke="none" fill="#e3041c" fill-rule="evenodd"></path><path id="path1" d="M197.736 166.597 C 167.809 173.525,155.316 209.516,174.541 233.422 C 197.117 261.497,242.399 249.435,248.210 213.800 C 252.939 184.796,226.387 159.964,197.736 166.597 M213.320 187.604 C 228.325 192.239,232.541 211.502,220.933 222.396 C 210.056 232.603,192.510 228.122,187.549 213.869 C 181.998 197.925,197.054 182.580,213.320 187.604 M65.600 220.672 C 65.600 226.301,69.331 243.680,72.555 253.072 C 103.460 343.089,211.920 378.057,289.400 322.984 C 322.359 299.556,345.143 260.700,348.230 222.652 L 348.510 219.196 307.155 219.298 L 265.800 219.400 265.280 221.200 C 260.338 238.319,252.048 249.679,238.226 258.274 C 205.043 278.909,159.321 261.025,149.546 223.588 C 149.060 221.724,148.491 219.975,148.282 219.700 C 147.982 219.306,139.203 219.200,106.751 219.200 L 65.600 219.200 65.600 220.672 " stroke="none" fill="#fbfbfb" fill-rule="evenodd"></path><path id="path2" d="M198.000 45.835 C 191.929 46.244,185.671 46.878,184.600 47.192 C 183.940 47.386,180.344 48.019,176.610 48.598 C 172.875 49.178,169.635 49.794,169.410 49.968 C 169.184 50.142,167.200 50.689,165.000 51.184 C 162.800 51.678,160.460 52.319,159.800 52.607 C 159.140 52.896,156.710 53.705,154.400 54.406 C 152.090 55.106,150.020 55.818,149.800 55.989 C 149.580 56.160,147.960 56.801,146.200 57.415 C 144.440 58.029,142.909 58.667,142.797 58.833 C 142.685 58.998,141.342 59.605,139.812 60.181 C 138.282 60.757,136.933 61.375,136.815 61.554 C 136.697 61.733,135.430 62.389,134.000 63.011 C 132.570 63.633,131.130 64.360,130.800 64.626 C 130.470 64.892,129.120 65.682,127.800 66.381 C 124.169 68.304,121.540 69.857,121.255 70.249 C 121.115 70.442,120.153 71.042,119.119 71.581 C 118.084 72.121,116.824 72.885,116.319 73.280 C 114.649 74.583,107.111 80.189,106.206 80.800 C 105.718 81.130,104.887 81.790,104.359 82.266 C 103.832 82.742,102.590 83.812,101.600 84.645 C 94.319 90.765,84.762 100.874,79.000 108.550 C 77.900 110.016,76.510 111.796,75.911 112.507 C 75.313 113.218,74.616 114.295,74.363 114.900 C 74.110 115.505,73.762 116.000,73.590 116.000 C 73.417 116.000,72.695 117.035,71.984 118.300 C 71.273 119.565,70.563 120.690,70.406 120.800 C 70.250 120.910,69.623 121.900,69.015 123.000 C 68.407 124.100,67.774 125.090,67.608 125.200 C 67.443 125.310,66.803 126.480,66.187 127.800 C 65.571 129.120,64.933 130.291,64.769 130.401 C 64.508 130.578,62.435 134.816,58.802 142.600 C 58.186 143.920,57.457 145.720,57.182 146.600 C 56.907 147.480,56.377 148.775,56.004 149.477 C 55.631 150.180,54.810 152.520,54.180 154.677 C 53.550 156.835,52.921 158.690,52.781 158.800 C 52.641 158.910,52.037 161.070,51.438 163.600 C 50.839 166.130,50.172 168.527,49.955 168.926 C 49.738 169.325,49.094 172.565,48.524 176.126 C 47.954 179.687,47.338 182.960,47.156 183.400 C 45.369 187.717,45.146 220.236,46.842 229.312 C 47.057 230.460,47.569 233.380,47.980 235.800 C 49.308 243.613,49.732 245.600,50.069 245.600 C 50.251 245.600,50.400 245.873,50.400 246.206 C 50.400 247.228,52.449 255.382,52.761 255.597 C 52.921 255.709,53.477 257.330,53.995 259.200 C 54.513 261.070,55.446 263.730,56.068 265.110 C 56.691 266.491,57.200 267.810,57.200 268.041 C 57.200 268.273,57.825 269.763,58.590 271.352 C 59.354 272.941,60.259 275.035,60.602 276.004 C 60.944 276.974,61.363 277.865,61.533 277.984 C 61.704 278.103,62.509 279.550,63.324 281.200 C 65.399 285.406,67.312 288.964,67.626 289.200 C 67.773 289.310,68.271 290.146,68.733 291.058 C 69.195 291.970,69.813 292.960,70.106 293.258 C 70.399 293.556,71.209 294.802,71.907 296.027 C 72.604 297.251,73.540 298.584,73.987 298.989 C 74.434 299.393,74.800 299.940,74.800 300.204 C 74.800 300.467,75.205 301.124,75.700 301.663 C 76.195 302.202,77.140 303.430,77.800 304.391 C 78.460 305.353,79.390 306.603,79.868 307.170 C 80.345 307.736,81.479 309.100,82.388 310.200 C 89.992 319.401,100.885 329.897,108.748 335.600 C 110.113 336.590,111.960 337.985,112.853 338.700 C 113.745 339.415,114.639 340.000,114.838 340.000 C 115.037 340.000,115.519 340.319,115.908 340.708 C 116.298 341.098,117.513 341.941,118.608 342.582 C 119.704 343.223,120.839 343.986,121.132 344.277 C 121.424 344.568,122.639 345.284,123.832 345.868 C 125.024 346.452,126.000 347.057,126.000 347.213 C 126.000 347.368,127.123 347.982,128.495 348.577 C 129.867 349.172,131.082 349.808,131.195 349.990 C 131.404 350.327,139.466 354.221,142.000 355.209 C 142.770 355.509,143.490 355.868,143.600 356.008 C 143.710 356.147,145.330 356.782,147.200 357.419 C 149.070 358.056,150.690 358.698,150.800 358.846 C 150.910 358.994,152.620 359.592,154.600 360.174 C 156.580 360.755,158.518 361.408,158.907 361.623 C 159.816 362.128,169.105 364.400,170.257 364.400 C 170.739 364.400,171.193 364.564,171.267 364.765 C 171.404 365.141,179.410 366.571,184.000 367.039 C 185.430 367.185,186.780 367.442,187.000 367.611 C 188.882 369.053,225.109 369.054,227.000 367.612 C 227.220 367.445,228.644 367.185,230.163 367.036 C 234.006 366.659,242.035 365.278,243.000 364.828 C 243.440 364.624,245.960 363.974,248.600 363.386 C 251.240 362.797,253.940 362.078,254.600 361.788 C 255.260 361.497,257.420 360.778,259.400 360.190 C 261.380 359.602,263.196 358.960,263.437 358.764 C 263.677 358.568,265.021 358.040,266.424 357.592 C 267.827 357.144,269.341 356.540,269.787 356.250 C 270.234 355.961,271.590 355.355,272.800 354.904 C 275.127 354.038,287.660 347.698,288.000 347.215 C 288.110 347.059,289.280 346.344,290.600 345.625 C 291.920 344.907,293.090 344.194,293.200 344.040 C 293.310 343.887,294.300 343.246,295.400 342.615 C 296.500 341.985,297.490 341.346,297.600 341.194 C 297.710 341.043,298.610 340.413,299.600 339.794 C 300.590 339.175,301.580 338.463,301.800 338.211 C 302.020 337.960,302.965 337.267,303.900 336.671 C 304.835 336.076,305.600 335.411,305.600 335.194 C 305.600 334.977,305.805 334.800,306.055 334.800 C 306.466 334.800,309.503 332.417,313.200 329.193 C 315.945 326.800,327.600 315.252,327.597 314.929 C 327.596 314.748,328.237 313.970,329.024 313.200 C 329.810 312.430,331.431 310.540,332.627 309.000 C 333.824 307.460,335.139 305.840,335.550 305.400 C 335.962 304.960,336.624 304.060,337.021 303.400 C 337.419 302.740,337.944 302.020,338.189 301.800 C 338.434 301.580,339.751 299.690,341.117 297.600 C 342.483 295.510,343.863 293.458,344.183 293.040 C 344.503 292.622,345.268 291.272,345.881 290.040 C 346.495 288.808,347.218 287.567,347.488 287.282 C 347.758 286.998,348.350 285.924,348.805 284.896 C 349.259 283.869,349.770 282.932,349.940 282.814 C 350.353 282.529,354.087 274.726,355.020 272.200 C 355.426 271.100,355.890 270.107,356.051 269.994 C 356.211 269.881,356.823 268.351,357.411 266.594 C 357.999 264.837,358.624 263.220,358.800 263.000 C 358.976 262.780,359.599 260.980,360.183 259.000 C 360.768 257.020,361.412 255.040,361.614 254.600 C 362.102 253.538,363.412 248.444,364.032 245.200 C 364.305 243.770,364.652 242.510,364.803 242.400 C 365.117 242.171,366.639 232.777,367.039 228.600 C 367.187 227.060,367.450 225.617,367.624 225.394 C 368.826 223.856,368.824 190.532,367.622 189.006 C 367.446 188.783,367.174 187.250,367.018 185.600 C 366.616 181.371,365.267 173.153,364.817 172.200 C 364.610 171.760,363.960 169.150,363.372 166.400 C 362.785 163.650,362.069 160.860,361.782 160.200 C 361.495 159.540,360.777 157.380,360.188 155.400 C 359.598 153.420,358.986 151.710,358.828 151.600 C 358.670 151.490,358.032 149.825,357.411 147.900 C 356.790 145.975,356.164 144.400,356.020 144.400 C 355.876 144.400,355.422 143.455,355.011 142.300 C 354.254 140.174,347.753 127.172,347.261 126.801 C 347.114 126.691,346.475 125.610,345.840 124.400 C 345.205 123.190,344.352 121.828,343.943 121.374 C 343.534 120.920,343.200 120.403,343.200 120.225 C 343.200 120.047,342.390 118.766,341.400 117.379 C 340.410 115.992,339.600 114.698,339.600 114.503 C 339.600 114.309,339.060 113.632,338.400 113.000 C 337.740 112.368,337.200 111.685,337.200 111.482 C 337.200 111.110,333.929 106.820,331.952 104.600 C 331.365 103.940,329.497 101.792,327.801 99.826 C 324.509 96.010,318.995 90.453,314.781 86.705 C 312.497 84.674,310.878 83.330,305.019 78.600 C 304.202 77.940,303.188 77.271,302.766 77.113 C 302.345 76.955,302.000 76.678,302.000 76.497 C 302.000 76.316,301.100 75.642,300.000 75.000 C 298.900 74.358,298.000 73.703,298.000 73.545 C 298.000 73.388,297.505 73.000,296.900 72.684 C 294.599 71.482,293.757 70.984,293.188 70.490 C 292.278 69.701,286.175 66.109,285.239 65.812 C 284.780 65.667,284.179 65.323,283.902 65.049 C 283.626 64.775,282.050 63.937,280.400 63.187 C 278.750 62.437,277.310 61.717,277.200 61.587 C 277.090 61.457,275.740 60.828,274.200 60.189 C 272.660 59.550,271.310 58.912,271.200 58.772 C 271.090 58.632,269.470 57.996,267.600 57.359 C 265.730 56.721,264.098 56.063,263.974 55.896 C 263.849 55.729,261.779 55.016,259.374 54.313 C 256.968 53.610,254.910 52.915,254.800 52.768 C 254.690 52.621,252.440 52.001,249.800 51.388 C 247.160 50.776,244.819 50.138,244.597 49.969 C 244.375 49.801,241.225 49.189,237.597 48.611 C 233.969 48.032,230.370 47.387,229.600 47.177 C 226.132 46.233,205.253 45.346,198.000 45.835 M221.743 65.619 C 271.551 70.542,318.900 105.093,337.380 150.000 C 337.968 151.430,338.696 153.140,338.996 153.800 C 340.166 156.371,342.884 164.424,344.257 169.389 C 346.581 177.793,349.278 193.376,348.679 194.937 C 348.443 195.554,345.339 195.596,306.951 195.502 L 265.479 195.400 264.817 192.600 C 262.290 181.910,255.354 170.506,246.719 162.846 C 213.464 133.343,160.458 149.332,149.405 192.200 L 148.580 195.400 107.212 195.502 C 84.140 195.559,65.690 195.450,65.496 195.256 C 64.517 194.277,67.754 176.185,70.588 166.800 C 88.246 108.324,138.018 69.186,200.000 65.036 C 203.447 64.805,217.258 65.175,221.743 65.619 M216.000 166.003 C 240.503 171.899,254.798 196.919,246.993 220.248 C 235.464 254.709,189.788 259.731,170.810 228.624 C 162.620 215.203,163.488 194.332,172.712 182.845 C 179.142 174.838,185.094 170.365,192.981 167.615 C 199.710 165.267,209.962 164.550,216.000 166.003 M203.400 187.240 C 189.950 189.160,182.496 205.493,189.574 217.539 C 197.881 231.677,218.390 230.631,225.517 215.706 L 227.000 212.600 227.000 207.179 L 227.000 201.757 225.432 198.579 C 222.488 192.612,216.632 188.183,210.400 187.211 C 207.469 186.754,206.784 186.757,203.400 187.240 M149.428 222.200 C 159.872 261.632,205.112 278.986,239.913 256.912 C 251.635 249.477,262.405 233.956,265.112 220.600 L 265.436 219.000 307.177 218.898 L 348.918 218.796 348.652 222.579 C 348.337 227.061,345.709 240.789,344.200 245.837 C 342.650 251.021,340.001 258.692,338.962 261.007 C 338.467 262.111,337.707 263.914,337.274 265.013 C 336.178 267.793,331.502 276.792,329.279 280.400 C 316.496 301.146,301.428 316.294,280.800 329.136 C 245.287 351.244,197.122 355.816,157.575 340.834 C 149.567 337.800,137.979 332.282,134.016 329.617 C 133.457 329.240,130.579 327.328,127.621 325.366 C 116.308 317.866,105.930 308.461,96.543 297.200 C 94.894 295.222,89.994 288.513,87.924 285.400 C 83.548 278.818,76.190 264.482,74.168 258.600 C 73.563 256.840,72.938 255.220,72.779 255.000 C 72.307 254.346,68.904 242.459,68.198 239.000 C 67.839 237.240,67.293 234.720,66.985 233.400 C 66.399 230.890,65.200 221.832,65.200 219.910 L 65.200 218.796 106.890 218.898 L 148.580 219.000 149.428 222.200 " stroke="none" fill="#040404" fill-rule="evenodd"></path><path id="path3" d="M204.517 65.097 C 206.011 65.174,208.351 65.174,209.717 65.096 C 211.082 65.018,209.860 64.955,207.000 64.955 C 204.140 64.956,203.022 65.020,204.517 65.097 M195.705 65.487 C 196.314 65.579,197.214 65.577,197.705 65.482 C 198.197 65.387,197.700 65.311,196.600 65.314 C 195.500 65.317,195.097 65.395,195.705 65.487 M216.700 65.482 C 217.195 65.578,218.005 65.578,218.500 65.482 C 218.995 65.387,218.590 65.309,217.600 65.309 C 216.610 65.309,216.205 65.387,216.700 65.482 M187.600 66.133 C 185.950 66.367,184.960 66.611,185.400 66.674 C 185.840 66.737,187.820 66.544,189.800 66.245 C 191.780 65.946,192.770 65.703,192.000 65.704 C 191.230 65.706,189.250 65.899,187.600 66.133 M224.000 66.197 C 225.870 66.496,227.850 66.733,228.400 66.724 C 229.999 66.699,226.517 66.101,223.400 65.866 L 220.600 65.655 224.000 66.197 M172.201 69.107 C 170.882 69.452,169.982 69.790,170.201 69.858 C 170.421 69.925,171.860 69.641,173.400 69.226 C 174.940 68.812,175.840 68.474,175.400 68.476 C 174.960 68.478,173.521 68.762,172.201 69.107 M239.800 69.028 C 240.900 69.334,242.070 69.572,242.400 69.557 C 242.730 69.541,242.100 69.278,241.000 68.972 C 239.900 68.666,238.730 68.428,238.400 68.443 C 238.070 68.459,238.700 68.722,239.800 69.028 M161.800 72.186 C 160.255 72.893,160.974 72.903,162.800 72.200 C 163.570 71.903,163.930 71.655,163.600 71.648 C 163.270 71.642,162.460 71.883,161.800 72.186 M251.968 72.428 C 253.160 72.851,254.205 73.128,254.290 73.044 C 254.476 72.857,250.833 71.588,250.229 71.629 C 249.993 71.645,250.776 72.005,251.968 72.428 M153.800 75.178 C 152.920 75.595,152.380 75.936,152.600 75.938 C 153.146 75.942,156.302 74.464,155.800 74.440 C 155.580 74.430,154.680 74.762,153.800 75.178 M259.558 75.237 C 260.525 75.666,261.388 75.945,261.475 75.858 C 261.648 75.686,258.565 74.382,258.092 74.428 C 257.931 74.444,258.591 74.808,259.558 75.237 M146.800 78.200 C 145.810 78.730,145.180 79.164,145.400 79.164 C 145.620 79.164,146.610 78.730,147.600 78.200 C 148.590 77.670,149.220 77.236,149.000 77.236 C 148.780 77.236,147.790 77.670,146.800 78.200 M266.000 78.000 C 266.770 78.422,267.580 78.766,267.800 78.766 C 268.020 78.766,267.570 78.422,266.800 78.000 C 266.030 77.578,265.220 77.234,265.000 77.234 C 264.780 77.234,265.230 77.578,266.000 78.000 M141.100 81.026 C 140.055 81.570,139.200 82.105,139.200 82.214 C 139.200 82.324,140.100 81.957,141.200 81.400 C 142.300 80.843,143.200 80.300,143.200 80.193 C 143.200 79.929,143.236 79.914,141.100 81.026 M271.600 80.584 C 271.600 80.694,272.320 81.151,273.200 81.600 C 274.080 82.049,274.800 82.326,274.800 82.216 C 274.800 82.106,274.080 81.649,273.200 81.200 C 272.320 80.751,271.600 80.474,271.600 80.584 M276.800 83.379 C 276.800 83.489,277.340 83.859,278.000 84.200 C 278.660 84.541,279.200 84.731,279.200 84.621 C 279.200 84.511,278.660 84.141,278.000 83.800 C 277.340 83.459,276.800 83.269,276.800 83.379 M282.200 86.607 C 282.640 86.966,283.360 87.435,283.800 87.651 L 284.600 88.044 283.800 87.393 C 283.360 87.034,282.640 86.565,282.200 86.349 L 281.400 85.956 282.200 86.607 M127.093 89.414 C 126.272 89.972,125.600 90.515,125.600 90.620 C 125.600 90.725,126.320 90.335,127.200 89.753 C 128.597 88.828,129.070 88.400,128.693 88.400 C 128.634 88.400,127.914 88.856,127.093 89.414 M286.000 88.946 C 286.000 89.056,286.540 89.530,287.200 90.000 C 287.860 90.470,288.400 90.764,288.400 90.654 C 288.400 90.544,287.860 90.070,287.200 89.600 C 286.540 89.130,286.000 88.836,286.000 88.946 M122.385 92.829 L 121.000 94.058 122.500 92.981 C 123.826 92.030,124.257 91.600,123.885 91.600 C 123.822 91.600,123.147 92.153,122.385 92.829 M290.000 91.725 C 290.000 91.824,290.661 92.409,291.468 93.025 C 292.276 93.641,292.811 93.941,292.656 93.691 C 292.340 93.179,290.000 91.447,290.000 91.725 M118.785 95.629 L 117.400 96.858 118.900 95.781 C 120.226 94.830,120.657 94.400,120.285 94.400 C 120.222 94.400,119.547 94.953,118.785 95.629 M299.400 99.200 C 300.720 100.357,304.950 104.473,308.800 108.349 C 312.650 112.224,314.695 114.136,313.346 112.597 C 310.216 109.031,301.153 100.215,298.800 98.449 C 297.597 97.546,297.796 97.795,299.400 99.200 M108.110 105.100 C 102.018 111.099,101.999 111.116,113.392 100.329 C 114.048 99.708,114.476 99.200,114.343 99.200 C 114.210 99.200,111.405 101.855,108.110 105.100 M100.181 113.300 L 98.600 115.000 100.300 113.419 C 101.881 111.948,102.184 111.600,101.881 111.600 C 101.816 111.600,101.051 112.365,100.181 113.300 M95.751 118.500 C 94.570 119.848,93.880 120.800,94.084 120.800 C 94.184 120.800,94.845 120.080,95.552 119.200 C 96.925 117.492,97.064 117.001,95.751 118.500 M93.144 121.900 C 91.993 123.289,91.506 124.000,91.704 124.000 C 91.814 124.000,92.386 123.370,92.973 122.600 C 94.063 121.171,94.195 120.632,93.144 121.900 M90.000 126.200 C 89.319 127.190,88.852 128.000,88.962 128.000 C 89.072 128.000,89.719 127.190,90.400 126.200 C 91.081 125.210,91.548 124.400,91.438 124.400 C 91.328 124.400,90.681 125.210,90.000 126.200 M324.585 127.500 C 325.202 128.435,325.783 129.200,325.876 129.200 C 326.164 129.200,324.633 126.766,324.032 126.269 C 323.720 126.011,323.968 126.565,324.585 127.500 M87.353 130.100 C 85.976 132.436,85.886 132.635,86.587 131.800 C 87.400 130.832,88.100 129.600,87.838 129.600 C 87.733 129.600,87.515 129.825,87.353 130.100 M327.639 132.176 C 328.101 132.959,328.556 133.600,328.650 133.600 C 328.934 133.600,327.636 131.269,327.202 131.001 C 326.980 130.864,327.177 131.393,327.639 132.176 M330.600 137.200 C 330.941 137.860,331.311 138.400,331.421 138.400 C 331.531 138.400,331.341 137.860,331.000 137.200 C 330.659 136.540,330.289 136.000,330.179 136.000 C 330.069 136.000,330.259 136.540,330.600 137.200 M80.581 141.637 C 80.229 142.318,80.012 142.945,80.099 143.032 C 80.186 143.119,80.556 142.562,80.922 141.795 C 81.744 140.070,81.459 139.938,80.581 141.637 M333.200 142.000 C 333.649 142.880,334.106 143.600,334.216 143.600 C 334.326 143.600,334.049 142.880,333.600 142.000 C 333.151 141.120,332.694 140.400,332.584 140.400 C 332.474 140.400,332.751 141.120,333.200 142.000 M206.105 147.487 C 206.714 147.579,207.614 147.577,208.105 147.482 C 208.597 147.387,208.100 147.311,207.000 147.314 C 205.900 147.317,205.497 147.395,206.105 147.487 M77.265 148.617 C 76.595 150.088,76.723 150.402,77.447 149.065 C 77.786 148.440,77.988 147.854,77.896 147.763 C 77.805 147.671,77.521 148.056,77.265 148.617 M197.600 148.053 C 196.390 148.250,195.220 148.497,195.000 148.601 C 194.624 148.778,195.429 148.702,201.400 147.994 L 203.800 147.709 201.800 147.701 C 200.700 147.697,198.810 147.855,197.600 148.053 M212.600 147.961 C 217.919 148.665,219.486 148.792,218.000 148.400 C 217.230 148.197,215.160 147.944,213.400 147.837 C 210.563 147.666,210.472 147.680,212.600 147.961 M186.075 151.073 C 185.126 151.409,184.421 151.754,184.507 151.841 C 184.690 152.023,188.400 150.805,188.400 150.562 C 188.400 150.312,187.945 150.412,186.075 151.073 M227.200 151.133 C 227.530 151.336,228.250 151.624,228.800 151.771 C 229.495 151.957,229.617 151.925,229.200 151.667 C 228.870 151.464,228.150 151.176,227.600 151.029 C 226.905 150.843,226.783 150.875,227.200 151.133 M75.067 153.667 C 74.705 154.588,74.474 155.407,74.554 155.488 C 74.634 155.568,75.000 154.883,75.367 153.967 C 75.733 153.050,75.964 152.231,75.879 152.146 C 75.794 152.061,75.429 152.745,75.067 153.667 M179.900 153.826 C 178.855 154.370,178.000 154.905,178.000 155.014 C 178.000 155.124,178.900 154.757,180.000 154.200 C 181.100 153.643,182.000 153.100,182.000 152.993 C 182.000 152.729,182.036 152.714,179.900 153.826 M232.800 153.384 C 232.800 153.494,233.520 153.951,234.400 154.400 C 235.280 154.849,236.000 155.126,236.000 155.016 C 236.000 154.906,235.280 154.449,234.400 154.000 C 233.520 153.551,232.800 153.274,232.800 153.384 M339.007 154.679 C 339.607 156.114,340.000 156.762,340.000 156.316 C 340.000 155.884,338.785 153.200,338.589 153.200 C 338.479 153.200,338.667 153.866,339.007 154.679 M170.600 159.844 L 169.000 161.276 170.700 160.004 C 172.163 158.910,172.691 158.383,172.300 158.406 C 172.245 158.409,171.480 159.056,170.600 159.844 M241.600 158.525 C 241.600 158.624,242.261 159.209,243.068 159.825 C 243.876 160.441,244.411 160.741,244.256 160.491 C 243.940 159.979,241.600 158.247,241.600 158.525 M72.046 161.639 C 71.801 162.343,71.613 163.118,71.628 163.360 C 71.644 163.602,71.914 163.096,72.230 162.235 C 72.545 161.374,72.733 160.600,72.648 160.515 C 72.562 160.429,72.292 160.935,72.046 161.639 M248.200 164.228 C 250.180 166.193,252.682 168.925,253.759 170.300 C 254.836 171.675,255.792 172.800,255.882 172.800 C 256.581 172.800,249.825 165.110,247.042 162.738 C 245.189 161.158,245.468 161.517,248.200 164.228 M166.981 162.900 L 165.400 164.600 167.100 163.019 C 168.681 161.548,168.984 161.200,168.681 161.200 C 168.616 161.200,167.851 161.965,166.981 162.900 M341.662 161.600 C 341.662 161.930,341.994 163.100,342.400 164.200 C 342.806 165.300,343.138 165.930,343.138 165.600 C 343.138 165.270,342.806 164.100,342.400 163.000 C 341.994 161.900,341.662 161.270,341.662 161.600 M204.716 165.497 C 206.099 165.575,208.259 165.574,209.516 165.495 C 210.772 165.416,209.640 165.352,207.000 165.353 C 204.360 165.353,203.332 165.418,204.716 165.497 M162.060 167.811 C 160.948 169.027,159.655 170.602,159.185 171.311 C 158.556 172.260,158.683 172.178,159.665 171.000 C 160.399 170.120,161.789 168.545,162.754 167.500 C 163.720 166.455,164.413 165.600,164.295 165.600 C 164.177 165.600,163.171 166.595,162.060 167.811 M197.268 166.270 C 195.876 166.600,194.808 166.941,194.896 167.029 C 194.984 167.117,196.573 166.847,198.428 166.428 C 200.283 166.010,201.350 165.668,200.800 165.669 C 200.250 165.670,198.661 165.940,197.268 166.270 M215.572 166.394 C 217.427 166.831,219.020 167.113,219.113 167.021 C 219.368 166.766,216.368 166.026,214.159 165.800 C 212.739 165.654,213.128 165.818,215.572 166.394 M189.300 169.000 C 188.145 169.525,187.200 170.053,187.200 170.172 C 187.200 170.386,191.580 168.553,191.947 168.187 C 192.367 167.767,191.279 168.101,189.300 169.000 M222.033 168.163 C 222.376 168.498,226.800 170.348,226.800 170.156 C 226.800 170.046,225.805 169.516,224.589 168.978 C 222.516 168.061,221.646 167.784,222.033 168.163 M69.000 172.000 C 68.848 172.691,68.807 173.341,68.909 173.442 C 69.011 173.544,69.209 173.053,69.350 172.350 C 69.683 170.683,69.360 170.360,69.000 172.000 M228.000 170.911 C 228.000 171.008,229.035 171.763,230.300 172.589 C 231.565 173.415,232.240 173.738,231.800 173.306 C 230.952 172.474,228.000 170.613,228.000 170.911 M344.867 172.600 C 344.861 173.452,345.892 176.877,345.950 176.200 C 345.969 175.980,345.734 174.900,345.428 173.800 C 345.122 172.700,344.869 172.160,344.867 172.600 M157.293 173.900 C 156.257 175.396,155.921 176.000,156.123 176.000 C 156.217 176.000,156.770 175.280,157.353 174.400 C 158.536 172.612,158.484 172.179,157.293 173.900 M179.416 175.552 C 178.189 176.625,176.511 178.290,175.687 179.252 C 172.955 182.438,172.979 182.640,175.741 179.706 C 177.239 178.114,179.285 176.089,180.289 175.206 C 181.292 174.322,182.008 173.600,181.880 173.600 C 181.751 173.600,180.643 174.478,179.416 175.552 M235.600 176.525 C 235.600 176.594,236.185 177.179,236.900 177.825 L 238.200 179.000 237.025 177.700 C 235.930 176.488,235.600 176.216,235.600 176.525 M154.168 179.018 C 153.582 180.018,153.175 180.908,153.263 180.996 C 153.351 181.084,153.923 180.266,154.534 179.178 C 155.930 176.695,155.611 176.556,154.168 179.018 M260.200 180.400 C 260.757 181.500,261.303 182.400,261.413 182.400 C 261.523 182.400,261.157 181.500,260.600 180.400 C 260.043 179.300,259.497 178.400,259.387 178.400 C 259.277 178.400,259.643 179.300,260.200 180.400 M239.705 181.282 C 240.717 182.537,242.024 184.382,242.610 185.382 C 243.196 186.382,243.755 187.200,243.852 187.200 C 244.429 187.200,240.220 181.059,238.780 179.800 C 238.277 179.360,238.693 180.027,239.705 181.282 M171.648 184.400 C 171.153 185.280,170.826 186.000,170.921 186.000 C 171.016 186.000,171.570 185.280,172.153 184.400 C 172.735 183.520,173.062 182.800,172.879 182.800 C 172.697 182.800,172.143 183.520,171.648 184.400 M66.006 187.361 C 65.740 189.234,65.594 190.981,65.681 191.243 C 65.768 191.505,66.062 190.049,66.334 188.008 C 66.606 185.966,66.752 184.219,66.659 184.125 C 66.565 184.032,66.271 185.488,66.006 187.361 M150.844 186.444 C 150.598 187.151,150.466 187.800,150.552 187.885 C 150.638 187.971,150.909 187.462,151.156 186.756 C 151.402 186.049,151.534 185.400,151.448 185.315 C 151.362 185.229,151.091 185.738,150.844 186.444 M347.693 186.800 C 347.693 187.570,347.775 187.885,347.876 187.500 C 347.976 187.115,347.976 186.485,347.876 186.100 C 347.775 185.715,347.693 186.030,347.693 186.800 M263.029 186.800 C 263.176 187.350,263.464 188.070,263.667 188.400 C 263.925 188.817,263.957 188.695,263.771 188.000 C 263.624 187.450,263.336 186.730,263.133 186.400 C 262.875 185.983,262.843 186.105,263.029 186.800 M169.380 188.440 C 168.811 189.562,168.413 190.547,168.495 190.629 C 168.577 190.711,169.127 189.793,169.718 188.589 C 170.308 187.385,170.706 186.400,170.602 186.400 C 170.498 186.400,169.948 187.318,169.380 188.440 M204.200 186.767 C 203.233 186.921,204.341 187.021,207.000 187.022 C 210.006 187.022,210.893 186.931,209.800 186.734 C 207.951 186.401,206.451 186.410,204.200 186.767 M196.929 189.195 C 195.790 189.849,194.739 190.575,194.594 190.809 C 194.450 191.043,195.202 190.711,196.266 190.070 C 197.330 189.429,198.560 188.706,199.000 188.464 C 199.440 188.222,199.620 188.021,199.400 188.016 C 199.180 188.011,198.068 188.542,196.929 189.195 M216.577 189.311 C 219.832 191.076,222.711 193.813,224.500 196.842 C 225.325 198.239,226.000 199.189,226.000 198.953 C 226.000 196.466,217.143 187.947,214.624 188.011 C 214.391 188.017,215.270 188.601,216.577 189.311 M244.418 188.700 C 244.442 189.104,246.359 192.667,246.382 192.351 C 246.410 191.964,244.785 188.400,244.581 188.400 C 244.482 188.400,244.408 188.535,244.418 188.700 M348.282 191.700 L 348.495 195.200 307.267 195.200 C 268.435 195.200,266.014 195.159,265.605 194.500 C 265.208 193.860,265.181 193.869,265.291 194.600 C 265.456 195.699,348.238 196.088,348.658 194.992 C 348.788 194.655,348.708 192.990,348.481 191.290 L 348.069 188.200 348.282 191.700 M192.378 192.672 L 191.000 194.145 192.273 193.172 C 193.333 192.362,194.272 191.200,193.866 191.200 C 193.806 191.200,193.137 191.863,192.378 192.672 M148.661 193.700 L 148.364 195.200 107.007 195.200 L 65.651 195.200 65.473 193.900 L 65.296 192.600 65.348 194.000 L 65.400 195.400 106.909 195.502 L 148.418 195.604 148.825 194.533 C 149.049 193.945,149.171 193.179,149.095 192.832 C 149.020 192.484,148.824 192.875,148.661 193.700 M166.426 195.862 C 166.188 196.708,165.905 198.120,165.797 199.000 C 165.683 199.929,165.937 199.355,166.400 197.633 C 166.840 196.001,167.123 194.590,167.029 194.496 C 166.935 194.402,166.664 195.017,166.426 195.862 M190.084 195.500 C 189.660 196.105,189.102 197.005,188.843 197.500 C 188.000 199.110,188.650 198.450,189.924 196.400 C 191.254 194.259,191.357 193.682,190.084 195.500 M247.422 196.437 C 247.550 197.007,247.896 198.807,248.191 200.437 C 248.486 202.067,248.744 202.938,248.764 202.373 C 248.813 200.977,248.011 196.740,247.557 196.000 C 247.298 195.579,247.258 195.708,247.422 196.437 M186.839 202.792 C 186.352 205.065,186.317 210.051,186.777 211.600 C 186.941 212.150,186.990 210.972,186.886 208.982 C 186.782 206.978,186.903 204.410,187.158 203.224 C 187.410 202.047,187.540 201.007,187.447 200.914 C 187.354 200.821,187.081 201.666,186.839 202.792 M165.293 202.400 C 165.293 203.170,165.375 203.485,165.476 203.100 C 165.576 202.715,165.576 202.085,165.476 201.700 C 165.375 201.315,165.293 201.630,165.293 202.400 M227.344 207.200 C 227.344 209.290,227.412 210.145,227.494 209.100 C 227.576 208.055,227.576 206.345,227.494 205.300 C 227.412 204.255,227.344 205.110,227.344 207.200 M248.944 207.200 C 248.944 209.290,249.012 210.145,249.094 209.100 C 249.176 208.055,249.176 206.345,249.094 205.300 C 249.012 204.255,248.944 205.110,248.944 207.200 M165.301 212.200 C 165.305 213.080,165.387 213.393,165.483 212.895 C 165.579 212.398,165.575 211.678,165.475 211.295 C 165.375 210.913,165.296 211.320,165.301 212.200 M248.453 212.200 C 248.416 212.860,248.122 214.648,247.799 216.172 C 247.476 217.697,247.283 219.017,247.371 219.105 C 247.689 219.422,248.857 213.257,248.691 212.143 L 248.520 211.000 248.453 212.200 M165.789 215.400 C 165.994 217.115,167.173 221.371,167.379 221.139 C 167.447 221.063,167.074 219.380,166.551 217.400 C 166.027 215.420,165.684 214.520,165.789 215.400 M225.281 216.209 C 224.802 217.194,224.494 218.000,224.597 218.000 C 224.868 218.000,226.484 214.751,226.303 214.570 C 226.219 214.486,225.759 215.224,225.281 216.209 M188.400 216.307 C 188.400 216.662,190.351 219.600,190.586 219.600 C 190.673 219.600,190.291 218.790,189.738 217.800 C 188.769 216.067,188.400 215.655,188.400 216.307 M65.270 220.698 L 65.340 222.600 65.493 220.900 L 65.646 219.200 106.743 219.200 C 139.071 219.200,147.953 219.307,148.370 219.700 C 148.798 220.104,148.865 220.084,148.717 219.600 C 148.556 219.073,143.496 218.988,106.867 218.898 L 65.200 218.796 65.270 220.698 M265.467 219.067 C 265.320 219.213,265.205 219.618,265.212 219.967 C 265.222 220.503,265.287 220.493,265.632 219.900 C 266.016 219.241,268.423 219.200,307.220 219.200 L 348.400 219.200 348.392 220.700 C 348.388 221.525,348.122 224.169,347.802 226.576 C 347.482 228.984,347.285 231.018,347.365 231.098 C 347.624 231.357,348.392 226.240,348.659 222.471 L 348.920 218.800 307.327 218.800 C 284.450 218.800,265.613 218.920,265.467 219.067 M221.583 221.439 C 220.602 222.450,218.847 223.822,217.682 224.487 C 216.517 225.153,215.655 225.788,215.767 225.900 C 216.130 226.264,219.752 223.688,221.785 221.620 C 222.877 220.509,223.679 219.600,223.568 219.600 C 223.457 219.600,222.564 220.427,221.583 221.439 M192.383 221.700 C 194.041 223.466,194.400 223.784,194.400 223.483 C 194.400 223.419,193.545 222.564,192.500 221.583 L 190.600 219.800 192.383 221.700 M246.000 222.084 C 246.000 222.203,245.552 223.313,245.005 224.550 C 244.458 225.788,244.108 226.800,244.227 226.800 C 244.570 226.800,246.458 222.325,246.217 222.084 C 246.098 221.964,246.000 221.964,246.000 222.084 M168.000 222.984 C 168.000 223.510,170.496 228.412,170.887 228.654 C 171.086 228.777,170.587 227.555,169.778 225.939 C 168.232 222.852,168.000 222.466,168.000 222.984 M65.644 224.000 C 65.590 225.912,67.087 235.047,67.402 234.731 C 67.475 234.658,67.116 231.989,66.604 228.799 C 66.091 225.610,65.660 223.450,65.644 224.000 M195.694 224.518 C 196.675 225.327,199.200 226.535,199.200 226.195 C 199.200 226.121,198.165 225.510,196.900 224.838 C 195.102 223.883,194.839 223.813,195.694 224.518 M263.429 226.029 C 263.031 227.134,262.799 228.132,262.912 228.245 C 263.026 228.359,263.425 227.529,263.800 226.400 C 264.687 223.728,264.370 223.411,263.429 226.029 M150.000 225.310 C 150.000 225.827,152.112 231.222,152.257 231.076 C 152.341 230.992,151.943 229.680,151.371 228.161 C 150.394 225.563,150.000 224.745,150.000 225.310 M207.200 227.600 L 204.200 227.856 207.000 227.888 C 208.540 227.906,210.250 227.776,210.800 227.600 C 211.978 227.223,211.625 227.223,207.200 227.600 M241.797 230.300 C 240.964 231.565,240.633 232.289,241.062 231.909 C 241.817 231.241,243.824 228.000,243.482 228.000 C 243.389 228.000,242.631 229.035,241.797 230.300 M171.815 230.300 C 173.035 232.198,176.271 236.149,177.630 237.400 C 178.348 238.060,177.747 237.221,176.296 235.535 C 174.845 233.850,173.171 231.735,172.576 230.835 C 171.981 229.936,171.407 229.200,171.301 229.200 C 171.195 229.200,171.426 229.695,171.815 230.300 M260.083 234.213 C 259.382 235.636,258.893 236.800,258.998 236.800 C 259.266 236.800,261.685 231.951,261.506 231.772 C 261.425 231.692,260.785 232.790,260.083 234.213 M239.398 233.602 C 238.998 234.044,238.766 234.499,238.882 234.615 C 238.997 234.730,239.390 234.369,239.755 233.812 C 240.552 232.596,240.393 232.502,239.398 233.602 M153.200 233.451 C 153.200 233.814,155.625 238.000,155.835 238.000 C 155.932 238.000,155.466 236.920,154.800 235.600 C 153.704 233.429,153.200 232.752,153.200 233.451 M235.200 238.073 C 233.550 239.631,232.740 240.537,233.400 240.085 C 234.549 239.299,238.769 235.179,238.385 235.219 C 238.283 235.230,236.850 236.514,235.200 238.073 M257.846 238.200 C 255.937 241.155,255.805 241.407,256.420 240.923 C 257.041 240.435,258.997 237.200,258.672 237.200 C 258.573 237.200,258.201 237.650,257.846 238.200 M344.873 241.657 C 344.382 243.668,344.050 245.383,344.135 245.468 C 344.314 245.647,345.432 241.691,345.822 239.500 C 346.314 236.735,345.773 237.963,344.873 241.657 M156.642 239.572 C 157.059 240.281,157.639 241.061,157.930 241.305 C 158.222 241.549,158.069 241.084,157.590 240.273 C 157.111 239.461,156.532 238.681,156.302 238.540 C 156.073 238.398,156.226 238.862,156.642 239.572 M179.210 238.676 C 179.221 239.036,183.687 242.440,185.100 243.166 C 186.562 243.917,186.127 243.341,184.500 242.371 C 183.675 241.879,182.145 240.773,181.100 239.914 C 180.055 239.055,179.204 238.498,179.210 238.676 M68.584 240.800 C 69.067 243.235,70.105 246.828,70.276 246.657 C 70.469 246.465,68.834 239.895,68.519 239.600 C 68.402 239.490,68.431 240.030,68.584 240.800 M230.613 241.713 C 229.961 242.201,227.801 243.449,225.813 244.487 C 223.826 245.525,222.351 246.380,222.536 246.387 C 223.143 246.410,229.771 242.832,231.000 241.818 C 232.492 240.588,232.218 240.513,230.613 241.713 M255.144 242.300 C 253.875 243.832,253.419 244.542,253.881 244.265 C 254.393 243.958,256.169 241.600,255.889 241.600 C 255.798 241.600,255.463 241.915,255.144 242.300 M158.990 242.782 C 161.055 246.060,168.450 253.454,171.676 255.468 C 172.184 255.785,171.880 255.453,171.000 254.731 C 169.017 253.103,161.365 245.503,159.774 243.582 C 159.128 242.802,158.775 242.442,158.990 242.782 M186.400 243.798 C 186.400 244.067,190.449 246.084,190.629 245.905 C 190.711 245.823,189.793 245.273,188.589 244.682 C 187.385 244.092,186.400 243.694,186.400 243.798 M251.210 247.151 C 250.085 248.444,247.799 250.649,246.130 252.051 C 241.764 255.717,240.743 256.672,242.800 255.164 C 246.803 252.231,254.451 244.800,253.467 244.800 C 253.350 244.800,252.335 245.858,251.210 247.151 M194.482 247.392 C 194.860 247.801,199.148 248.794,200.400 248.762 C 200.950 248.748,200.320 248.498,199.000 248.207 C 197.680 247.916,196.060 247.545,195.400 247.383 C 194.740 247.220,194.327 247.224,194.482 247.392 M216.600 247.828 C 215.500 248.134,214.150 248.402,213.600 248.424 C 213.050 248.445,212.835 248.557,213.123 248.673 C 213.753 248.925,218.421 248.085,219.228 247.575 C 220.067 247.043,219.078 247.139,216.600 247.828 M202.300 249.082 C 202.795 249.178,203.605 249.178,204.100 249.082 C 204.595 248.987,204.190 248.909,203.200 248.909 C 202.210 248.909,201.805 248.987,202.300 249.082 M209.900 249.082 C 210.395 249.178,211.205 249.178,211.700 249.082 C 212.195 248.987,211.790 248.909,210.800 248.909 C 209.810 248.909,209.405 248.987,209.900 249.082 M342.089 251.489 C 341.612 252.955,341.289 254.222,341.370 254.303 C 341.451 254.385,341.915 253.258,342.400 251.800 C 342.885 250.342,343.209 249.075,343.119 248.986 C 343.029 248.896,342.566 250.022,342.089 251.489 M71.200 250.127 C 71.200 250.759,72.568 254.690,72.895 255.000 C 73.184 255.274,73.254 255.210,73.117 254.800 C 73.007 254.470,72.606 253.255,72.226 252.100 C 71.658 250.372,71.200 249.491,71.200 250.127 M173.083 256.460 C 173.594 257.075,176.800 258.973,176.800 258.660 C 176.800 258.555,175.858 257.889,174.706 257.180 C 173.555 256.472,172.824 256.147,173.083 256.460 M239.000 257.434 C 238.120 257.989,236.185 259.065,234.700 259.826 C 231.947 261.237,231.136 261.909,233.076 261.171 C 234.952 260.458,241.617 256.298,240.700 256.412 C 240.645 256.419,239.880 256.879,239.000 257.434 M339.249 259.263 C 338.778 260.397,338.473 261.407,338.573 261.506 C 338.749 261.682,339.631 259.794,340.179 258.065 C 340.695 256.440,340.108 257.196,339.249 259.263 M74.249 258.800 C 74.393 259.350,74.934 260.700,75.451 261.800 C 75.969 262.900,76.287 263.379,76.158 262.865 C 76.029 262.351,75.488 261.001,74.956 259.865 C 74.423 258.729,74.105 258.250,74.249 258.800 M177.200 258.988 C 177.200 259.098,178.280 259.734,179.600 260.400 C 180.920 261.066,182.000 261.522,182.000 261.412 C 182.000 261.302,180.920 260.666,179.600 260.000 C 178.280 259.334,177.200 258.878,177.200 258.988 M185.800 263.174 C 186.680 263.595,187.940 264.048,188.600 264.182 C 189.446 264.354,189.269 264.202,188.000 263.666 C 185.506 262.612,183.847 262.241,185.800 263.174 M226.600 263.427 C 225.280 263.969,224.740 264.306,225.400 264.176 C 226.701 263.919,230.054 262.476,229.400 262.454 C 229.180 262.447,227.920 262.885,226.600 263.427 M336.815 265.098 C 335.685 267.518,335.200 268.800,335.417 268.800 C 335.708 268.800,337.684 264.351,337.482 264.149 C 337.398 264.065,337.098 264.492,336.815 265.098 M77.236 265.800 C 77.236 266.020,77.670 267.010,78.200 268.000 C 78.730 268.990,79.164 269.620,79.164 269.400 C 79.164 269.180,78.730 268.190,78.200 267.200 C 77.670 266.210,77.236 265.580,77.236 265.800 M195.800 266.004 C 199.814 267.357,214.159 267.355,218.200 266.001 L 219.400 265.599 218.038 265.802 C 210.697 266.895,203.245 266.897,195.996 265.809 L 194.600 265.599 195.800 266.004 M333.482 272.211 C 332.892 273.415,332.494 274.400,332.598 274.400 C 332.867 274.400,334.884 270.351,334.705 270.171 C 334.623 270.089,334.073 271.007,333.482 272.211 M81.000 273.600 C 81.557 274.700,82.103 275.600,82.213 275.600 C 82.323 275.600,81.957 274.700,81.400 273.600 C 80.843 272.500,80.297 271.600,80.187 271.600 C 80.077 271.600,80.443 272.500,81.000 273.600 M331.559 275.700 C 331.301 276.195,330.648 277.410,330.109 278.400 C 329.569 279.390,329.428 279.840,329.795 279.400 C 330.570 278.473,332.507 274.800,332.221 274.800 C 332.115 274.800,331.817 275.205,331.559 275.700 M83.525 278.200 C 83.972 279.080,84.638 280.160,85.005 280.600 C 85.372 281.040,85.183 280.500,84.583 279.400 C 83.247 276.946,82.401 275.988,83.525 278.200 M328.246 281.400 C 326.590 283.963,326.246 284.611,326.867 284.000 C 327.571 283.307,329.357 280.400,329.079 280.400 C 328.976 280.400,328.601 280.850,328.246 281.400 M86.429 283.100 C 86.921 283.925,87.584 284.870,87.902 285.200 C 88.220 285.530,87.907 284.855,87.206 283.700 C 86.505 282.545,85.842 281.600,85.733 281.600 C 85.624 281.600,85.937 282.275,86.429 283.100 M324.637 287.100 C 323.825 288.365,323.579 288.908,324.090 288.306 C 325.100 287.118,326.547 284.800,326.279 284.800 C 326.188 284.800,325.449 285.835,324.637 287.100 M88.766 286.700 C 88.983 287.085,89.632 287.940,90.209 288.600 C 91.098 289.618,91.067 289.511,90.009 287.900 C 88.814 286.081,87.944 285.240,88.766 286.700 M320.581 292.700 C 319.308 294.405,317.352 296.880,316.234 298.200 C 315.116 299.520,314.547 300.330,314.969 300.000 C 316.203 299.034,323.558 289.600,323.076 289.600 C 322.977 289.600,321.855 290.995,320.581 292.700 M92.740 292.316 C 93.233 293.009,93.844 293.704,94.097 293.860 C 94.350 294.017,94.154 293.577,93.660 292.884 C 93.167 292.191,92.556 291.496,92.303 291.340 C 92.050 291.183,92.246 291.623,92.740 292.316 M94.841 295.100 C 101.518 303.769,114.743 316.520,123.100 322.348 C 125.539 324.049,124.408 322.903,121.451 320.677 C 113.736 314.870,105.101 306.670,98.521 298.900 C 96.425 296.425,94.618 294.400,94.506 294.400 C 94.394 294.400,94.545 294.715,94.841 295.100 M308.400 306.718 C 305.210 309.956,300.665 314.210,298.300 316.171 C 295.935 318.133,294.000 319.819,294.000 319.918 C 294.000 320.289,298.835 316.235,304.252 311.322 C 307.347 308.515,314.789 300.767,314.343 300.816 C 314.264 300.824,311.590 303.480,308.400 306.718 M289.722 322.735 C 285.945 325.471,284.472 326.734,286.600 325.412 C 288.416 324.284,293.600 320.422,293.600 320.197 C 293.600 319.915,293.744 319.822,289.722 322.735 M124.800 323.362 C 124.800 323.472,125.610 324.119,126.600 324.800 C 127.590 325.481,128.400 325.948,128.400 325.838 C 128.400 325.728,127.590 325.081,126.600 324.400 C 125.610 323.719,124.800 323.252,124.800 323.362 M129.904 326.885 C 130.376 327.453,133.600 329.373,133.600 329.085 C 133.600 328.994,132.667 328.340,131.527 327.631 C 130.387 326.922,129.657 326.587,129.904 326.885 M282.500 327.646 C 281.785 328.104,281.200 328.556,281.200 328.650 C 281.200 328.934,283.531 327.636,283.798 327.203 C 284.145 326.641,283.982 326.697,282.500 327.646 M278.696 329.958 C 276.260 331.387,275.719 331.944,277.800 330.880 C 279.345 330.091,281.210 328.818,280.800 328.833 C 280.690 328.837,279.743 329.343,278.696 329.958 M134.175 329.559 C 134.330 329.810,135.389 330.481,136.528 331.051 C 139.004 332.288,138.590 331.782,135.847 330.218 C 134.772 329.605,134.020 329.309,134.175 329.559 M138.800 332.199 C 138.800 332.464,148.448 337.285,148.625 337.108 C 148.702 337.031,146.523 335.851,143.783 334.486 C 141.042 333.121,138.800 332.092,138.800 332.199 M273.100 333.026 C 272.055 333.570,271.200 334.105,271.200 334.214 C 271.200 334.324,272.100 333.957,273.200 333.400 C 274.300 332.843,275.200 332.300,275.200 332.193 C 275.200 331.929,275.236 331.914,273.100 333.026 M266.800 336.200 C 265.810 336.730,265.180 337.164,265.400 337.164 C 265.620 337.164,266.610 336.730,267.600 336.200 C 268.590 335.670,269.220 335.236,269.000 335.236 C 268.780 335.236,267.790 335.670,266.800 336.200 M152.800 338.966 C 153.350 339.260,154.250 339.612,154.800 339.749 C 155.350 339.886,155.080 339.652,154.200 339.229 C 152.390 338.358,151.268 338.148,152.800 338.966 M259.400 339.420 C 258.300 339.954,257.834 340.282,258.365 340.148 C 259.705 339.810,262.000 338.830,262.000 338.595 C 262.000 338.251,261.444 338.428,259.400 339.420 M159.200 341.336 C 159.200 341.573,164.000 343.211,164.578 343.171 C 164.810 343.155,164.100 342.821,163.000 342.429 C 159.963 341.348,159.200 341.128,159.200 341.336 M251.600 342.200 C 250.170 342.716,249.190 343.152,249.422 343.169 C 249.958 343.208,254.800 341.583,254.800 341.363 C 254.800 341.094,254.320 341.219,251.600 342.200 M169.200 344.514 C 169.200 344.813,174.804 346.129,175.047 345.887 C 175.161 345.772,174.301 345.473,173.135 345.223 C 171.968 344.973,170.606 344.666,170.107 344.541 C 169.608 344.416,169.200 344.403,169.200 344.514 M241.200 345.231 C 239.770 345.646,239.243 345.896,240.029 345.788 C 241.687 345.559,245.289 344.480,244.400 344.478 C 244.070 344.478,242.630 344.817,241.200 345.231 M182.070 347.391 C 182.429 347.767,189.421 348.807,191.200 348.749 C 191.970 348.724,190.980 348.481,189.000 348.208 C 187.020 347.935,184.590 347.576,183.600 347.410 C 182.610 347.244,181.922 347.236,182.070 347.391 M227.600 347.825 C 225.950 348.114,223.880 348.382,223.000 348.421 C 222.120 348.461,221.743 348.581,222.163 348.688 C 223.070 348.920,230.171 348.071,231.366 347.588 C 232.599 347.089,231.363 347.167,227.600 347.825 M193.705 349.087 C 194.314 349.179,195.214 349.177,195.705 349.082 C 196.197 348.987,195.700 348.911,194.600 348.914 C 193.500 348.917,193.097 348.995,193.705 349.087 M218.505 349.087 C 219.114 349.179,220.014 349.177,220.505 349.082 C 220.997 348.987,220.500 348.911,219.400 348.914 C 218.300 348.917,217.897 348.995,218.505 349.087 M202.478 349.498 C 204.831 349.569,208.791 349.569,211.278 349.499 C 213.765 349.429,211.840 349.371,207.000 349.370 C 202.160 349.370,200.125 349.428,202.478 349.498 " stroke="none" fill="#4c292c" fill-rule="evenodd"></path></g></svg>